<svg viewBox="0 0 1024.31 1024.3" xmlns="http://www.w3.org/2000/svg" xmlns:xlink="http://www.w3.org/1999/xlink"><radialGradient id="a" cx="540.83" cy="225.35" gradientUnits="userSpaceOnUse" r="698.86"><stop offset=".14" stop-color="#ed1c24"/><stop offset=".37" stop-color="#e71c25"/><stop offset=".69" stop-color="#d61d28"/><stop offset="1" stop-color="#be1e2d"/></radialGradient><path d="m0 0h1024.31v1024.3h-1024.31z" fill="url(#a)"/><g transform="translate(-1)"><g fill="#231f20" opacity=".2"><path d="m267.05 838.11h-61.27c-5.23 0-8.26-3-8.26-8.24v-72.87c0-5.51-2.74-8.25-8.24-8.25h-30.78c-5.22 0-8.24 2.74-8.24 8.25v120.14c0 5.23 3 8.24 8.24 8.24h108.55q8.25 0 8.24-8.24v-30.77q0-8.25-8.24-8.26z"/><path d="m267.05 164.73h-108.55c-5.22 0-8.24 3-8.24 8.24v120.13c0 5.5 3 8.24 8.24 8.24h30.78q8.25 0 8.24-8.24v-72.86c0-5.21 3-8.24 8.26-8.24h61.27c5.5 0 8.24-2.74 8.24-8.25v-30.75c0-5.51-2.74-8.27-8.24-8.27z"/><path d="m864.34 748.76h-30.77q-8.25 0-8.25 8.26v72.85c0 5.22-3 8.24-8.24 8.24h-61.28c-5.51 0-8.25 2.75-8.25 8.26v30.77c0 5.49 2.74 8.24 8.25 8.24h108.54c5.22 0 8.24-3 8.24-8.24v-120.14c0-5.48-3.02-8.24-8.24-8.24z"/><path d="m864.34 164.73h-108.54c-5.51 0-8.25 2.74-8.25 8.24v30.78c0 5.5 2.74 8.25 8.25 8.25h61.28c5.21 0 8.24 3 8.24 8.24v72.85c0 5.51 2.75 8.25 8.25 8.25h30.77c5.22 0 8.24-2.74 8.24-8.25v-120.09c0-5.25-3.02-8.27-8.24-8.27z"/><path d="m696.3 483.62c-2.81-14.75-127.46-18.43-127.46-18.43s-38.77-115.4-56.93-115.4-56.81 115.4-56.81 115.4-124.51 2.13-127.26 18.43 91.86 89.86 91.86 89.86-33.14 117.16-21.63 126.85 113.84-59.85 113.84-59.85 104.06 68.44 114 59.85-21.84-126.85-21.84-126.85 95.02-75.13 92.23-89.86zm-155.22 71.18s10.11 37.56 6.94 40.3-36.2-19-36.2-19-32.49 22.1-36.14 19 6.86-40.3 6.86-40.3-30-23.36-29.18-28.52 40.43-5.86 40.43-5.86 12.27-36.64 18-36.64 18.09 36.64 18.09 36.64 39.56 1.17 40.45 5.86-29.25 28.52-29.25 28.52z"/></g><path d="m270.51 812.3h-61.28c-5.22 0-8.25-3-8.25-8.24v-72.84q0-8.26-8.24-8.26h-30.74c-5.22 0-8.24 2.75-8.24 8.26v120.11c0 5.23 3 8.24 8.24 8.24h108.51q8.25 0 8.24-8.24v-30.77q0-8.25-8.24-8.26z" fill="#fff"/><path d="m270.51 138.92h-108.51c-5.22 0-8.24 3-8.24 8.24v120.12c0 5.5 3 8.24 8.24 8.24h30.78q8.25 0 8.24-8.24v-72.85c0-5.21 3-8.24 8.25-8.24h61.28q8.25 0 8.24-8.25v-30.78q-.04-8.24-8.28-8.24z" fill="#fff"/><path d="m867.8 723h-30.8q-8.25 0-8.25 8.26v72.85c0 5.21-3 8.24-8.24 8.24h-61.26q-8.25 0-8.24 8.26v30.77c0 5.48 2.74 8.24 8.24 8.24h108.55c5.22 0 8.24-3 8.24-8.24v-120.17c-.04-5.5-3.04-8.21-8.24-8.21z" fill="#fff"/><path d="m867.8 138.92h-108.55q-8.25 0-8.24 8.24v30.78q0 8.25 8.24 8.25h61.29c5.21 0 8.24 3 8.24 8.24v72.84c0 5.51 2.75 8.25 8.25 8.25h30.77c5.22 0 8.24-2.74 8.24-8.25v-120.11c-.04-5.22-3.04-8.24-8.24-8.24z" fill="#fff"/><path d="m699.75 457.8c-2.75-14.74-127.45-18.42-127.45-18.42s-38.77-115.38-56.94-115.38-56.8 115.4-56.8 115.4-124.51 2.11-127.26 18.4 91.86 89.87 91.86 89.87-33.16 117.16-21.64 126.85 113.84-59.86 113.84-59.86 104.07 68.45 114 59.86-21.84-126.85-21.84-126.85 95.03-75.13 92.23-89.87zm-155.21 71.2s10.11 37.56 6.94 40.29-36.2-19-36.2-19-32.5 22.1-36.14 19 6.86-40.29 6.86-40.29-30-23.36-29.18-28.53 40.43-5.85 40.43-5.85 12.27-36.64 18-36.64 18.09 36.64 18.09 36.64 39.56 1.17 40.45 5.85-29.25 28.53-29.25 28.53z" fill="#fff"/></g></svg>