<?xml version="1.0" encoding="UTF-8"?>
<svg width="300px" height="57px" viewBox="0 0 300 57" version="1.1" xmlns="http://www.w3.org/2000/svg" xmlns:xlink="http://www.w3.org/1999/xlink">
    <!-- Generator: Sketch 63.1 (92452) - https://sketch.com -->
    <title>rainbow</title>
    <desc>Created with Sketch.</desc>
    <g id="Page-1" stroke="none" stroke-width="1" fill="none" fill-rule="evenodd">
        <path d="M28.9019034,16.8667643 L28.1112738,28.7262079 C26.090776,27.5841874 24.1581259,27.1449488 21.4348463,27.1449488 C16.1639824,27.1449488 12.6500732,30.1317716 12.6500732,36.8960469 L12.6500732,55.3440703 L0,55.3440703 L0,16.3396779 L12.6500732,16.3396779 L12.6500732,23.4553441 C14.1434846,19.0629575 18.1844802,15.2855051 23.4553441,15.2855051 C25.8272328,15.2855051 27.8477306,15.988287 28.9019034,16.8667643 Z M55.6954612,38.8286969 L55.6954612,38.0380673 L49.2825769,39.3557833 C45.329429,40.1464129 42.8696925,41.1127379 42.8696925,44.1874085 C42.8696925,46.4714495 44.6266471,47.8770132 47.3499268,47.8770132 C52.0058565,47.8770132 55.6954612,44.363104 55.6954612,38.8286969 Z M68.1698389,30.4831625 L68.1698389,44.7144949 C68.1698389,46.7349927 69.0483163,47.61347 70.6295754,47.61347 C71.7715959,47.61347 72.7379209,47.4377745 73.8799414,46.9106881 L73.8799414,53.6749634 C71.9472914,55.0805271 69.4875549,56.2225476 65.6222548,56.2225476 C60.966325,56.2225476 57.5402635,53.7628111 56.398243,49.3704246 C54.2020498,53.8506589 49.3704246,56.2225476 43.3089312,56.2225476 C35.4904832,56.2225476 30.5710102,52.2693997 30.5710102,45.5929722 C30.5710102,38.1259151 36.193265,34.9633968 44.8023426,33.2942899 L55.6954612,31.3616398 L55.6954612,30.658858 C55.6954612,26.9692533 53.8506589,24.77306 49.9853587,24.77306 C46.295754,24.77306 44.4509517,27.057101 43.7481698,30.3074671 L31.9765739,29.4289898 C33.2942899,21.0834553 39.5314788,15.2855051 50.6881406,15.2855051 C60.8784773,15.2855051 68.1698389,19.8535871 68.1698389,30.4831625 Z M78.3601757,16.3396779 L91.0102489,16.3396779 L91.0102489,55.3440703 L78.3601757,55.3440703 L78.3601757,16.3396779 Z M78.272328,11.5959004 L78.272328,0 L91.1859444,0 L91.1859444,11.5959004 L78.272328,11.5959004 Z M111.918009,35.4904832 L111.918009,55.3440703 L99.2679356,55.3440703 L99.2679356,16.3396779 L111.918009,16.3396779 L111.918009,22.4011713 C114.026354,18.0966325 118.770132,15.2855051 124.65593,15.2855051 C135.197657,15.2855051 138.711567,22.5768668 138.711567,30.9224012 L138.711567,55.3440703 L126.061493,55.3440703 L126.061493,33.9970717 C126.061493,28.374817 124.216691,25.3001464 119.560761,25.3001464 C114.465593,25.3001464 111.918009,29.341142 111.918009,35.4904832 Z M159.180088,35.4026354 L159.180088,36.2811127 C159.180088,42.6061493 162.781845,46.5592972 168.052709,46.5592972 C174.026354,46.5592972 176.925329,42.2547584 176.925329,35.8418741 C176.925329,29.5168375 174.026354,25.2122987 168.052709,25.2122987 C162.781845,25.2122987 159.180088,29.1654466 159.180088,35.4026354 Z M158.565154,48.3162518 L156.281113,55.3440703 L146.530015,55.3440703 L146.530015,0 L159.180088,0 L159.180088,23.3674963 C161.112738,18.7115666 165.592972,15.2855051 172.357247,15.2855051 C183.777452,15.2855051 189.751098,24.4216691 189.751098,35.8418741 C189.751098,47.3499268 183.777452,56.398243 172.093704,56.398243 C165.592972,56.398243 160.673499,53.0600293 158.565154,48.3162518 Z M206.70571,35.8418741 C206.70571,42.3426061 209.253294,46.8228404 214.875549,46.8228404 C220.409956,46.8228404 223.133236,42.3426061 223.133236,35.8418741 C223.133236,29.341142 220.409956,24.8609078 214.875549,24.8609078 C209.253294,24.8609078 206.70571,29.341142 206.70571,35.8418741 Z M235.959004,35.8418741 C235.959004,47.9648609 227.349927,56.398243 214.875549,56.398243 C202.401171,56.398243 193.879941,47.9648609 193.879941,35.8418741 C193.879941,23.806735 202.401171,15.2855051 214.875549,15.2855051 C227.349927,15.2855051 235.959004,23.806735 235.959004,35.8418741 Z M274.43631,16.3396779 L280.673499,40.0585652 L281.02489,40.0585652 L288.491947,16.3396779 L300,16.3396779 L287.61347,55.3440703 L275.22694,55.3440703 L268.901903,31.8008785 L268.550512,31.8008785 L262.313324,55.3440703 L249.926794,55.3440703 L237.540264,16.3396779 L250.190337,16.3396779 L257.657394,40.0585652 L258.008785,40.0585652 L264.245974,16.3396779 L274.43631,16.3396779 Z" id="rainbow" fill="#000000" fill-rule="nonzero"></path>
    </g>
</svg>