<?xml version="1.0" encoding="UTF-8"?>
<svg width="648px" height="648px" viewBox="0 0 648 648" version="1.1" xmlns="http://www.w3.org/2000/svg" xmlns:xlink="http://www.w3.org/1999/xlink">
    <!-- Generator: Sketch 57.1 (83088) - https://sketch.com -->
    <title>spiritH_pms349</title>
    <desc>Created with Sketch.</desc>
    <defs>
        <polygon id="path-1" points="0 0 648 0 648 647.94 0 647.94"></polygon>
    </defs>
    <g id="spiritH_pms349" stroke="none" stroke-width="1" fill="none" fill-rule="evenodd">
        <mask id="mask-2" fill="white">
            <use xlink:href="#path-1"></use>
        </mask>
        <g id="Clip-2"></g>
        <path d="M493.521,481.744 C491.538,466.814 490.547,422.526 490.547,348.879 L490.547,289.166 C490.547,220.497 491.538,179.197 493.521,165.264 C495.832,148.015 502.278,138.89 512.855,137.895 L512.855,129.463 C496.606,129.463 473.374,129.463 443.184,129.463 C414.325,129.463 392.101,129.463 376.509,129.463 L376.509,137.895 C386.861,138.89 393.2,147.019 395.542,162.276 C397.215,174.556 398.053,209.06 398.053,265.791 L398.053,283.207 L249.947,283.207 L249.947,265.791 C249.947,209.06 250.785,174.556 252.458,162.276 C254.8,147.019 261.139,138.89 271.491,137.895 L271.491,129.463 C255.899,129.463 233.675,129.463 204.816,129.463 C174.626,129.463 151.394,129.463 135.145,129.463 L135.145,137.895 C145.722,138.89 152.168,148.015 154.479,165.264 C156.462,179.197 157.453,220.497 157.453,289.166 L157.453,348.879 C157.453,422.526 156.462,466.814 154.479,481.744 C152.168,499.659 145.389,509.113 134.147,510.106 L134.147,518.537 C150.735,518.537 173.627,518.537 202.817,518.537 C231.351,518.537 255.077,518.537 273.986,518.537 L273.986,510.106 C262.301,509.113 255.295,501.15 252.955,486.223 C250.956,473.946 249.947,439.781 249.947,383.717 L249.947,360.329 L398.053,360.329 L398.053,383.717 C398.053,439.781 397.044,473.946 395.045,486.223 C392.705,501.15 385.699,509.113 374.014,510.106 L374.014,518.537 C392.923,518.537 416.649,518.537 445.183,518.537 C474.373,518.537 497.265,518.537 513.853,518.537 L513.853,510.106 C502.611,509.113 495.832,499.659 493.521,481.744 Z M648,324 C648,502.941 502.938,648 323.994,648 C145.055,648 0,502.941 0,324 C0,145.06 145.055,0 323.994,0 C502.938,0 648,145.06 648,324 L648,324 Z" id="Fill-1" fill="#185F33" mask="url(#mask-2)"></path>
    </g>
</svg>