<svg xmlns="http://www.w3.org/2000/svg" xmlns:xlink="http://www.w3.org/1999/xlink" viewBox="0 0 1024.31 1024.3"><defs><style>.cls-1{isolation:isolate;}.cls-2{fill:url(#radial-gradient);}.cls-3{opacity:0.2;mix-blend-mode:multiply;}.cls-4{fill:#231f20;}.cls-5{fill:#fff;}</style><radialGradient id="radial-gradient" cx="540.83" cy="225.35" r="698.86" gradientUnits="userSpaceOnUse"><stop offset="0.14" stop-color="#ed1c24"/><stop offset="0.37" stop-color="#e71c25"/><stop offset="0.69" stop-color="#d61d28"/><stop offset="1" stop-color="#be1e2d"/></radialGradient></defs><g class="cls-1"><g id="Layer_1" data-name="Layer 1"><rect class="cls-2" width="1024.31" height="1024.3"/><g class="cls-3"><path class="cls-4" d="M267.05,838.11H205.78c-5.23,0-8.26-3-8.26-8.24V757c0-5.51-2.74-8.25-8.24-8.25H158.5c-5.22,0-8.24,2.74-8.24,8.25V877.14c0,5.23,3,8.24,8.24,8.24H267.05q8.25,0,8.24-8.24V846.37Q275.29,838.12,267.05,838.11Z" transform="translate(-1 0)"/><path class="cls-4" d="M267.05,164.73H158.5c-5.22,0-8.24,3-8.24,8.24V293.1c0,5.5,3,8.24,8.24,8.24h30.78q8.25,0,8.24-8.24V220.24c0-5.21,3-8.24,8.26-8.24h61.27c5.5,0,8.24-2.74,8.24-8.25V173C275.29,167.49,272.55,164.73,267.05,164.73Z" transform="translate(-1 0)"/><path class="cls-4" d="M864.34,748.76H833.57q-8.25,0-8.25,8.26v72.85c0,5.22-3,8.24-8.24,8.24H755.8c-5.51,0-8.25,2.75-8.25,8.26v30.77c0,5.49,2.74,8.24,8.25,8.24H864.34c5.22,0,8.24-3,8.24-8.24V757C872.58,751.52,869.56,748.76,864.34,748.76Z" transform="translate(-1 0)"/><path class="cls-4" d="M864.34,164.73H755.8c-5.51,0-8.25,2.74-8.25,8.24v30.78c0,5.5,2.74,8.25,8.25,8.25h61.28c5.21,0,8.24,3,8.24,8.24v72.85c0,5.51,2.75,8.25,8.25,8.25h30.77c5.22,0,8.24-2.74,8.24-8.25V173C872.58,167.75,869.56,164.73,864.34,164.73Z" transform="translate(-1 0)"/><path class="cls-4" d="M696.3,483.62c-2.81-14.75-127.46-18.43-127.46-18.43s-38.77-115.4-56.93-115.4-56.81,115.4-56.81,115.4-124.51,2.13-127.26,18.43,91.86,89.86,91.86,89.86-33.14,117.16-21.63,126.85,113.84-59.85,113.84-59.85,104.06,68.44,114,59.85-21.84-126.85-21.84-126.85S699.09,498.35,696.3,483.62ZM541.08,554.8s10.11,37.56,6.94,40.3-36.2-19-36.2-19-32.49,22.1-36.14,19,6.86-40.3,6.86-40.3-30-23.36-29.18-28.52,40.43-5.86,40.43-5.86,12.27-36.64,18-36.64,18.09,36.64,18.09,36.64,39.56,1.17,40.45,5.86S541.08,554.8,541.08,554.8Z" transform="translate(-1 0)"/></g><path class="cls-5" d="M270.51,812.3H209.23c-5.22,0-8.25-3-8.25-8.24V731.22q0-8.26-8.24-8.26H162c-5.22,0-8.24,2.75-8.24,8.26V851.33c0,5.23,3,8.24,8.24,8.24H270.51q8.25,0,8.24-8.24V820.56Q278.75,812.31,270.51,812.3Z" transform="translate(-1 0)"/><path class="cls-5" d="M270.51,138.92H162c-5.22,0-8.24,3-8.24,8.24V267.28c0,5.5,3,8.24,8.24,8.24h30.78q8.25,0,8.24-8.24V194.43c0-5.21,3-8.24,8.25-8.24h61.28q8.25,0,8.24-8.25V147.16Q278.75,138.92,270.51,138.92Z" transform="translate(-1 0)"/><path class="cls-5" d="M867.8,723H837q-8.25,0-8.25,8.26v72.85c0,5.21-3,8.24-8.24,8.24H759.25q-8.25,0-8.24,8.26v30.77c0,5.48,2.74,8.24,8.24,8.24H867.8c5.22,0,8.24-3,8.24-8.24V731.21C876,725.71,873,723,867.8,723Z" transform="translate(-1 0)"/><path class="cls-5" d="M867.8,138.92H759.25q-8.25,0-8.24,8.24v30.78q0,8.25,8.24,8.25h61.29c5.21,0,8.24,3,8.24,8.24v72.84c0,5.51,2.75,8.25,8.25,8.25H867.8c5.22,0,8.24-2.74,8.24-8.25V147.16C876,141.94,873,138.92,867.8,138.92Z" transform="translate(-1 0)"/><path class="cls-5" d="M699.75,457.8C697,443.06,572.3,439.38,572.3,439.38S533.53,324,515.36,324s-56.8,115.4-56.8,115.4S334.05,441.51,331.3,457.8s91.86,89.87,91.86,89.87S390,664.83,401.52,674.52s113.84-59.86,113.84-59.86,104.07,68.45,114,59.86-21.84-126.85-21.84-126.85S702.55,472.54,699.75,457.8ZM544.54,529s10.11,37.56,6.94,40.29-36.2-19-36.2-19-32.5,22.1-36.14,19S486,529,486,529s-30-23.36-29.18-28.53,40.43-5.85,40.43-5.85,12.27-36.64,18-36.64,18.09,36.64,18.09,36.64,39.56,1.17,40.45,5.85S544.54,529,544.54,529Z" transform="translate(-1 0)"/></g></g></svg>