<svg id="Layer_1" data-name="Layer 1" xmlns="http://www.w3.org/2000/svg" xmlns:xlink="http://www.w3.org/1999/xlink" viewBox="0 0 256 256"><defs><style>.cls-1{fill:#32004b;}.cls-2{fill:url(#linear-gradient);}.cls-3{fill:url(#linear-gradient-2);}.cls-4{fill:url(#linear-gradient-3);}.cls-5{fill:#fff;}</style><linearGradient id="linear-gradient" x1="37.01" y1="137.7" x2="281.47" y2="137.7" gradientUnits="userSpaceOnUse"><stop offset="0" stop-color="#f93"/><stop offset="0.48" stop-color="#ff2363"/><stop offset="0.52" stop-color="#f41b86"/><stop offset="0.57" stop-color="#e913ab"/><stop offset="0.62" stop-color="#df0cca"/><stop offset="0.67" stop-color="#d807e1"/><stop offset="0.72" stop-color="#d303f2"/><stop offset="0.78" stop-color="#d001fc"/><stop offset="0.86" stop-color="#cf00ff"/></linearGradient><linearGradient id="linear-gradient-2" x1="31.09" y1="131.07" x2="275.54" y2="131.07" xlink:href="#linear-gradient"/><linearGradient id="linear-gradient-3" x1="25.28" y1="124.55" x2="269.74" y2="124.55" xlink:href="#linear-gradient"/></defs><rect class="cls-1" width="256" height="256"/><path class="cls-2" d="M245.41,180.45c-2-.31-4.72-1.63-4.72-6.5V86.66H209.27v6h2.18c2,.3,4.73,1.62,4.73,6.49v22c-6.13-7-14.52-11.32-23.79-11.32-18.7,0-33.85,17.56-33.85,39.22s15.15,39.22,33.85,39.22c9.27,0,17.67-4.32,23.78-11.32v9.46H247.6v-6Zm-47.18-2.88c-8.94,0-16.19-12.23-16.19-27.31S189.29,123,198.23,123s16.2,12.22,16.2,27.31-7.26,27.31-16.2,27.31Zm-39.32,2.88c-2-.31-4.73-1.63-4.73-6.5a10,10,0,0,0-.12-2V129.45c0-16.9-17.3-16.85-17.3-16.85H115v3.92h5.8c3.28,0,8.42,2.54,8.42,12.92v1.62a151.88,151.88,0,0,1-29.43,13.77c-17.05,5.85-13.59,27.73-10.88,32.74s7.14,10.75,16.19,10.75,24.11-13.15,24.11-13.15v11.29h31.88v-6Zm-30.56-14.84s-9.75,9.81-16.59,3.66-3-12.75,0-15.84,16.59-11.7,16.59-11.7Zm139.21.79c4.66,0,8.47.94,11.36,4.22a10.72,10.72,0,0,1,2.54,7.73c-.14,5.28-3.42,8.39-7.67,9.65a18.26,18.26,0,0,1-9.81.15,10.33,10.33,0,0,1-7.92-13.24c1.11-4.5,4.25-6.95,8.59-8C265.74,166.61,266.89,166.51,267.56,166.4ZM94.27,112c-15,0-25.83,11.3-25.83,11.3V112H37v6H39.2c2,.3,4.72,1.62,4.72,6.49v49.05c0,4.88-2.69,6.2-4.72,6.5H37v6H75.35v-6H73.16c-2-.3-4.73-1.62-4.73-6.49V136.44c0-7.91,9.65-14.88,12.9-14.88h0a13.24,13.24,0,0,0,25.44,7.33,13,13,0,0,0,.51-3.67C107.29,117.91,102.44,112,94.27,112Z"/><path class="cls-1" d="M241.86,176.89c-2-.3-4.73-1.62-4.73-6.49V83.1H205.71v6h2.18c2,.31,4.73,1.63,4.73,6.5v22c-6.13-7-14.52-11.32-23.79-11.32-18.7,0-33.85,17.57-33.85,39.23s15.16,39.22,33.85,39.22c9.27,0,17.68-4.33,23.78-11.32v9.45H244v-6ZM194.68,174c-8.94,0-16.19-12.22-16.19-27.31s7.25-27.31,16.19-27.31,16.19,12.23,16.19,27.31S203.61,174,194.68,174Z"/><path class="cls-1" d="M155.35,176.89c-2-.3-4.72-1.62-4.72-6.49a9.66,9.66,0,0,0-.13-2V125.89C150.5,109,133.21,109,133.21,109H111.45V113h5.79c3.29,0,8.43,2.54,8.43,12.91v1.63a151.8,151.8,0,0,1-29.44,13.77C79.18,147.13,82.64,169,85.35,174s7.14,10.75,16.19,10.75,24.12-13.15,24.12-13.15V182.9h31.88v-6Zm-30.56-14.84s-9.75,9.81-16.58,3.66-3-12.75,0-15.83,16.58-11.7,16.58-11.7Z"/><path class="cls-1" d="M264,162.85c4.66,0,8.46.93,11.36,4.22a10.78,10.78,0,0,1,2.54,7.73c-.14,5.28-3.43,8.39-7.68,9.64a18.16,18.16,0,0,1-9.81.15,10.32,10.32,0,0,1-7.92-13.23c1.11-4.51,4.25-7,8.6-8C262.18,163.06,263.34,163,264,162.85Z"/><path class="cls-1" d="M90.71,108.43c-15,0-25.82,11.3-25.82,11.3v-11.3H33.46v6h2.18c2,.31,4.73,1.62,4.73,6.5V170c0,4.87-2.7,6.19-4.73,6.5H33.46v6H71.79v-6H69.61c-2-.31-4.73-1.63-4.73-6.5V132.88c0-7.91,9.64-14.87,12.9-14.87h0a13.23,13.23,0,0,0,25.43,7.33,13,13,0,0,0,.52-3.67C103.74,114.36,98.89,108.43,90.71,108.43Z"/><path class="cls-3" d="M239.49,173.81c-2-.3-4.73-1.62-4.73-6.5V80H203.34v6h2.18c2,.31,4.73,1.62,4.73,6.5v22c-6.13-7-14.52-11.32-23.79-11.32-18.7,0-33.85,17.56-33.85,39.23s15.16,39.22,33.85,39.22c9.27,0,17.68-4.33,23.78-11.32v9.45h31.43v-6Zm-47.18-2.88c-8.95,0-16.19-12.22-16.19-27.31s7.24-27.31,16.19-27.31,16.19,12.23,16.19,27.31-7.26,27.32-16.19,27.32ZM153,173.81c-2-.3-4.72-1.62-4.72-6.5a9.61,9.61,0,0,0-.13-2V122.81c0-16.89-17.29-16.85-17.29-16.85H109.08v3.93h5.79c3.29,0,8.43,2.53,8.43,12.91v1.63a152.14,152.14,0,0,1-29.44,13.76C76.81,144,80.27,165.92,83,170.94s7.14,10.75,16.19,10.75,24.12-13.16,24.12-13.16v11.29h31.88v-6ZM122.42,159s-9.75,9.81-16.58,3.66-3-12.75,0-15.83,16.58-11.7,16.58-11.7Zm139.22.8c4.66,0,8.46.93,11.36,4.21a10.82,10.82,0,0,1,2.54,7.74c-.14,5.28-3.43,8.39-7.68,9.64a18.16,18.16,0,0,1-9.81.15,10.32,10.32,0,0,1-7.92-13.23c1.11-4.51,4.25-7,8.6-8C259.81,160,261,159.87,261.64,159.77ZM88.34,105.35c-15,0-25.82,11.3-25.82,11.3v-11.3H31.09v6h2.18c2,.3,4.73,1.62,4.73,6.5v49.05c0,4.87-2.7,6.19-4.73,6.5H31.09v6H69.42v-6H67.23c-2-.31-4.72-1.63-4.72-6.5V129.8c0-7.91,9.64-14.87,12.9-14.87h0a13.23,13.23,0,0,0,25.43,7.33,13.07,13.07,0,0,0,.52-3.67C101.37,111.28,96.52,105.35,88.34,105.35Z"/><path class="cls-1" d="M236.05,170.25c-2-.3-4.73-1.62-4.73-6.49V76.46H199.9v6h2.19c2,.31,4.72,1.63,4.72,6.5v22c-6.13-7-14.51-11.31-23.78-11.31-18.7,0-33.86,17.56-33.86,39.22s15.16,39.22,33.86,39.22c9.27,0,17.67-4.32,23.78-11.32v9.45h31.43v-6Zm-47.18-2.87c-8.94,0-16.19-12.23-16.19-27.31s7.25-27.32,16.19-27.32,16.19,12.23,16.19,27.32-7.25,27.31-16.19,27.31Z"/><path class="cls-1" d="M149.55,170.25c-2-.3-4.73-1.62-4.73-6.49a10.88,10.88,0,0,0-.12-2V119.25c0-16.89-17.3-16.85-17.3-16.85H105.64v3.93h5.79c3.29,0,8.43,2.54,8.43,12.92v1.62a151.88,151.88,0,0,1-29.43,13.77c-17.06,5.85-13.6,27.73-10.88,32.74s7.13,10.75,16.19,10.75S119.85,165,119.85,165v11.29h31.88v-6ZM119,155.42s-9.75,9.8-16.58,3.66-3-12.75,0-15.84S119,131.54,119,131.54Z"/><path class="cls-1" d="M258.2,156.21c4.66,0,8.47.94,11.36,4.22a10.75,10.75,0,0,1,2.54,7.73c-.14,5.28-3.43,8.39-7.67,9.64a18.16,18.16,0,0,1-9.81.15,10.31,10.31,0,0,1-7.92-13.23c1.11-4.5,4.25-6.95,8.59-8C256.38,156.42,257.53,156.32,258.2,156.21Z"/><path class="cls-1" d="M84.91,101.79c-15,0-25.83,11.31-25.83,11.31V101.79H27.65v6h2.18c2,.31,4.73,1.63,4.73,6.5v49.05c0,4.87-2.7,6.19-4.73,6.5H27.65v6H66v-6H63.8c-2-.31-4.73-1.63-4.73-6.49V126.25c0-7.92,9.65-14.88,12.9-14.88h0a13.23,13.23,0,0,0,25.43,7.33,13,13,0,0,0,.52-3.67C97.93,107.72,93.08,101.79,84.91,101.79Z"/><path class="cls-4" d="M233.68,167.29c-2-.3-4.73-1.62-4.73-6.49V73.5H197.53v6h2.19c2,.31,4.72,1.63,4.72,6.5v22c-6.13-7-14.51-11.32-23.78-11.32-18.7,0-33.86,17.57-33.86,39.23s15.16,39.22,33.86,39.22c9.27,0,17.67-4.33,23.78-11.32v9.45h31.43v-6Zm-47.18-2.88c-8.94,0-16.19-12.22-16.19-27.31s7.25-27.31,16.19-27.31S202.69,122,202.69,137.1s-7.25,27.32-16.19,27.32Zm-39.32,2.88c-2-.3-4.73-1.62-4.73-6.49a10.8,10.8,0,0,0-.12-2V116.29c0-16.89-17.3-16.85-17.3-16.85H103.27v3.93h5.79c3.29,0,8.43,2.54,8.43,12.91v1.63a151.88,151.88,0,0,1-29.43,13.77C71,137.53,74.46,159.4,77.18,164.42s7.13,10.75,16.19,10.75S117.48,162,117.48,162V173.3h31.88v-6Zm-30.57-14.84s-9.75,9.81-16.58,3.66-3-12.75,0-15.83,16.58-11.7,16.58-11.7Zm139.22.8c4.66,0,8.47.93,11.36,4.22a10.74,10.74,0,0,1,2.54,7.73c-.14,5.28-3.43,8.39-7.67,9.64a18.16,18.16,0,0,1-9.81.15,10.31,10.31,0,0,1-7.92-13.23c1.11-4.51,4.25-6.95,8.59-8C254,153.46,255.16,153.36,255.83,153.25ZM82.53,98.83c-15,0-25.82,11.3-25.82,11.3V102l-31.43-3.2,1.78,6h.4c2,.31,4.73,1.62,4.73,6.5v49c0,4.87-2.7,6.19-4.73,6.5H25.28v6H63.61v-6H61.43c-2-.31-4.73-1.63-4.73-6.5V123.28c0-7.91,9.65-14.87,12.9-14.87h0A13.23,13.23,0,0,0,95,115.74a13,13,0,0,0,.52-3.67C95.56,104.76,90.71,98.83,82.53,98.83Z"/><path class="cls-1" d="M230.24,163.74c-2-.31-4.72-1.63-4.72-6.5V70H194.1v6h2.18c2,.3,4.73,1.62,4.73,6.49v22c-6.13-7-14.52-11.32-23.79-11.32-18.7,0-33.85,17.56-33.85,39.22s15.15,39.22,33.85,39.22c9.27,0,17.67-4.32,23.78-11.32v9.45h31.43v-6Zm-47.18-2.88c-8.94,0-16.19-12.23-16.19-27.31s7.25-27.31,16.19-27.31,16.2,12.22,16.2,27.31-7.26,27.31-16.2,27.31Z"/><path class="cls-1" d="M143.74,163.74c-2-.31-4.73-1.63-4.73-6.5a10,10,0,0,0-.12-2V112.74c0-16.9-17.3-16.86-17.3-16.86H99.83v3.93h5.8c3.28,0,8.42,2.54,8.42,12.92v1.62a151.88,151.88,0,0,1-29.43,13.77C67.56,134,71,155.85,73.74,160.86s7.14,10.75,16.19,10.75S114,158.46,114,158.46v11.29h31.88v-6ZM113.18,148.9s-9.75,9.81-16.59,3.66-3-12.75,0-15.84S113.18,125,113.18,125Z"/><path class="cls-1" d="M252.39,149.69c4.66,0,8.47.94,11.36,4.22a10.77,10.77,0,0,1,2.54,7.73c-.14,5.28-3.42,8.39-7.67,9.64a18.16,18.16,0,0,1-9.81.15,10.61,10.61,0,0,1-6.78-4.6,10.73,10.73,0,0,1-1.14-8.63c1.11-4.5,4.25-6.95,8.59-8C250.57,149.9,251.72,149.8,252.39,149.69Z"/><path class="cls-1" d="M79.1,95.27c-15,0-25.83,11.31-25.83,11.31V95.27H21.84v6H24c2,.3,4.72,1.62,4.72,6.49v49.05c0,4.88-2.69,6.19-4.72,6.5H21.84v6H60.17v-6H58c-2-.31-4.73-1.62-4.73-6.49V119.73c0-7.91,9.65-14.88,12.9-14.88h0a13.24,13.24,0,0,0,25.44,7.33,13.38,13.38,0,0,0,.51-3.67C92.12,101.2,87.27,95.27,79.1,95.27Z"/><path class="cls-5" d="M227.28,160.65c-2-.3-4.73-1.62-4.73-6.49V66.86H191.13v6h2.19c2,.31,4.72,1.63,4.72,6.5v22c-6.13-7-14.51-11.31-23.78-11.31-18.7,0-33.86,17.56-33.86,39.22s15.16,39.22,33.86,39.22c9.27,0,17.67-4.32,23.78-11.32v9.45h31.43v-6Zm-47.18-2.87c-8.94,0-16.19-12.23-16.19-27.31s7.25-27.32,16.19-27.32,16.19,12.23,16.19,27.32S189,157.78,180.1,157.78Z"/><path class="cls-5" d="M140.78,160.65c-2-.3-4.73-1.62-4.73-6.49a10.88,10.88,0,0,0-.12-2V109.65c0-16.89-17.3-16.85-17.3-16.85H96.87v3.93h5.79c3.29,0,8.43,2.54,8.43,12.92v1.62A151.88,151.88,0,0,1,81.66,125c-17.06,5.85-13.6,27.73-10.88,32.74S77.91,168.53,87,168.53s24.11-13.15,24.11-13.15v11.29H143v-6Zm-30.57-14.83s-9.75,9.8-16.58,3.66-3-12.75,0-15.84,16.58-11.7,16.58-11.7Z"/><path class="cls-5" d="M249.43,146.61c4.66,0,8.47.94,11.36,4.22a10.75,10.75,0,0,1,2.54,7.73c-.14,5.28-3.43,8.39-7.67,9.64a18.16,18.16,0,0,1-9.81.15,10.31,10.31,0,0,1-7.92-13.23c1.11-4.5,4.25-7,8.59-8C247.6,146.82,248.76,146.72,249.43,146.61Z"/><path class="cls-5" d="M76.13,92.19c-15,0-25.82,11.31-25.82,11.31V92.19H18.88v6h2.18c2,.31,4.73,1.63,4.73,6.5v49.05c0,4.87-2.7,6.19-4.73,6.5H18.88v6H57.21v-6H55c-2-.31-4.73-1.63-4.73-6.49V116.65c0-7.92,9.65-14.88,12.9-14.88h0a13.23,13.23,0,0,0,25.43,7.33,13,13,0,0,0,.52-3.67C89.16,98.12,84.31,92.19,76.13,92.19Z"/></svg>