<?xml version="1.0" encoding="UTF-8"?>
<svg width="168px" height="48px" viewBox="0 0 336 96" version="1.1" xmlns="http://www.w3.org/2000/svg" xmlns:xlink="http://www.w3.org/1999/xlink">
  <g>
    <path d="M3.465 25.727l37.33-24.472a7.67 7.67 0 018.41 0l37.33 24.472A7.67 7.67 0 0190 32.142v31.714a7.67 7.67 0 01-3.465 6.414l-37.33 24.472a7.67 7.67 0 01-8.41 0L3.465 70.27A7.67 7.67 0 010 63.856V32.142a7.67 7.67 0 013.465-6.415z" fill="#0366D6"></path>
    <path d="M114.045 62.658c9.032 0 14.388-5.59 14.388-14.858 0-9.239-5.356-14.8-14.185-14.8H104v29.658h10.045zm-4.675-4.648V37.649h4.574c6.021 0 9.162 3.36 9.162 10.151 0 6.821-3.141 10.21-9.321 10.21h-4.415zM142.614 63.093c5.182 0 8.743-2.534 9.669-6.4l-4.893-.551c-.709 1.882-2.446 2.867-4.704 2.867-3.387 0-5.63-2.23-5.674-6.039H152.5v-1.607c0-7.806-4.69-11.238-10.161-11.238-6.369 0-10.523 4.678-10.523 11.542 0 6.98 4.096 11.426 10.798 11.426zm-5.587-13.656c.159-2.839 2.258-5.228 5.384-5.228 3.011 0 5.037 2.201 5.066 5.228h-10.45zM156.512 71h5.24V59.154h.217c.825 1.622 2.547 3.895 6.369 3.895 5.239 0 9.162-4.156 9.162-11.483 0-7.415-4.038-11.441-9.177-11.441-3.922 0-5.558 2.36-6.354 3.968h-.304v-3.678h-5.153V71zm5.138-19.463c0-4.316 1.853-7.11 5.226-7.11 3.488 0 5.283 2.968 5.283 7.11 0 4.17-1.824 7.212-5.283 7.212-3.344 0-5.226-2.897-5.226-7.212zM191.798 63.093c5.182 0 8.743-2.534 9.669-6.4l-4.892-.551c-.71 1.882-2.447 2.867-4.705 2.867-3.387 0-5.63-2.23-5.674-6.039h15.488v-1.607c0-7.806-4.69-11.238-10.161-11.238-6.369 0-10.523 4.678-10.523 11.542 0 6.98 4.096 11.426 10.798 11.426zm-5.587-13.656c.159-2.839 2.258-5.228 5.384-5.228 3.011 0 5.038 2.201 5.066 5.228h-10.45zM210.342 49.625c0-3.215 1.94-5.069 4.704-5.069 2.707 0 4.328 1.782 4.328 4.75v13.352h5.24V48.495c.014-5.329-3.025-8.37-7.614-8.37-3.329 0-5.616 1.593-6.629 4.07h-.261v-3.78h-5.008v22.243h5.24V49.625zM237.191 63.05c3.821 0 5.544-2.274 6.369-3.896h.318v3.504h5.153V33h-5.254v11.093h-.217c-.796-1.608-2.432-3.968-6.355-3.968-5.138 0-9.176 4.026-9.176 11.44 0 7.328 3.922 11.485 9.162 11.485zm1.462-4.301c-3.46 0-5.283-3.042-5.283-7.212 0-4.142 1.795-7.11 5.283-7.11 3.372 0 5.225 2.794 5.225 7.11 0 4.315-1.881 7.212-5.225 7.212zM259.512 63.108c3.489 0 5.573-1.637 6.528-3.505h.174v3.055h5.037V47.771c0-5.88-4.791-7.646-9.032-7.646-4.675 0-8.265 2.085-9.423 6.14l4.893.695c.521-1.52 1.997-2.824 4.559-2.824 2.432 0 3.764 1.246 3.764 3.433v.087c0 1.506-1.578 1.578-5.501 1.998-4.313.463-8.438 1.752-8.438 6.763 0 4.373 3.198 6.69 7.439 6.69zm1.361-3.853c-2.186 0-3.749-.999-3.749-2.925 0-2.013 1.752-2.853 4.096-3.186 1.376-.188 4.126-.536 4.806-1.086v2.621c0 2.477-1.998 4.576-5.153 4.576zM275.012 62.658h5.153v-3.504h.304c.825 1.622 2.547 3.895 6.369 3.895 5.239 0 9.162-4.156 9.162-11.483 0-7.415-4.038-11.441-9.177-11.441-3.922 0-5.558 2.36-6.354 3.968h-.217V33h-5.24v29.658zm5.138-11.121c0-4.316 1.853-7.11 5.226-7.11 3.488 0 5.283 2.968 5.283 7.11 0 4.17-1.824 7.212-5.283 7.212-3.344 0-5.226-2.897-5.226-7.212zM309.892 63.093c6.514 0 10.653-4.59 10.653-11.47 0-6.893-4.139-11.498-10.653-11.498-6.513 0-10.653 4.605-10.653 11.498 0 6.88 4.14 11.47 10.653 11.47zm.029-4.2c-3.604 0-5.37-3.215-5.37-7.284 0-4.07 1.766-7.328 5.37-7.328 3.546 0 5.312 3.259 5.312 7.328 0 4.07-1.766 7.284-5.312 7.284zM334.781 40.415h-4.386v-5.33h-5.24v5.33H322v4.054h3.155v12.368c-.028 4.185 3.011 6.241 6.948 6.126 1.491-.044 2.519-.333 3.083-.522l-.883-4.098a6.527 6.527 0 01-1.534.203c-1.317 0-2.374-.464-2.374-2.578V44.469h4.386v-4.054z" fill="#24292E"></path>
    <path d="M48 33v-3h-5a1 1 0 01-1-1v-7a1 1 0 011-1h7a1 1 0 011 1v11h15a3 3 0 013 3v12h2a1 1 0 011 1v10a1 1 0 01-1 1h-2v6a3 3 0 01-3 3H24a3 3 0 01-3-3v-6h-2a1 1 0 01-1-1V49a1 1 0 011-1h2V36a3 3 0 013-3h24z" fill="#fff"></path>
    <path d="M53.143 56.643a1.21 1.21 0 001.711 0l6.29-6.288a1.21 1.21 0 000-1.712l-1.29-1.288a1.21 1.21 0 00-1.71 0l-4.145 4.144-1.645-1.644a1.21 1.21 0 00-1.71 0l-1.29 1.288a1.21 1.21 0 000 1.712l3.79 3.788zM33.143 56.643a1.21 1.21 0 001.711 0l6.29-6.288a1.21 1.21 0 000-1.712l-1.29-1.288a1.21 1.21 0 00-1.71 0l-4.145 4.144-1.645-1.644a1.21 1.21 0 00-1.71 0l-1.29 1.288a1.21 1.21 0 000 1.712l3.79 3.788z" fill="#0366D6"></path>
  </g>
</svg>
