<?xml version="1.0" encoding="UTF-8"?>
<svg width="77px" height="52px" viewBox="0 0 77 52" version="1.1" xmlns="http://www.w3.org/2000/svg" xmlns:xlink="http://www.w3.org/1999/xlink">
    <!-- Generator: Sketch 57.1 (83088) - https://sketch.com -->
    <title>airship 2</title>
    <desc>Created with Sketch.</desc>
    <defs>
        <path d="M56.8415888,3.02095862 L61.682243,7.59724138 L48.2943925,21.0334552 C42.4640187,14.253269 33.6665888,9.9537931 24.0420561,9.9537931 C14.4178738,9.91862069 5.90116822,14.253269 0.0711448598,21.0334552 C8.93306075,8.40515172 23.4935748,0 40.0535047,0 C45.9177896,0 51.5404937,1.03490324 56.7524366,2.93148567 L56.8415888,3.02095862 Z" id="path-1"></path>
    </defs>
    <g id="Page-2" stroke="none" stroke-width="1" fill="none" fill-rule="evenodd">
        <g id="airship">
            <path d="M-2.84217094e-14,37.4941448 L37.3598131,0 L70.1593458,32.9175103 L75,37.4937931 L61.6121495,50.9300069 C55.7817757,44.1498207 46.9843458,39.8503448 37.3598131,39.8503448 C27.7356308,39.8151724 19.2189252,44.1498207 13.3889019,50.9300069 L-2.84217094e-14,37.4941448 Z M41.2296729,19.0933448 C41.2296729,17.0048069 39.5425234,15.3119586 37.4617991,15.3119586 C35.3807243,15.3119586 33.6939252,17.0048069 33.6939252,19.0933448 C33.6939252,21.1822345 35.3807243,22.8754345 37.4617991,22.8754345 C39.5425234,22.8754345 41.2296729,21.1822345 41.2296729,19.0933448 Z" id="Shape" fill="#0034B3" fill-rule="nonzero"></path>
            <path d="M70.0701935,32.8280373 C64.8582506,30.9314549 59.2355466,29.8965517 53.3712617,29.8965517 C36.8113318,29.8965517 22.2508178,38.3017034 13.3889019,50.9300069 L-2.84217094e-14,37.4941448 L37.3598131,-2.84217094e-14 L70.0701935,32.8280373 Z M41.2296729,19.0933448 C41.2296729,17.0048069 39.5425234,15.3119586 37.4617991,15.3119586 C35.3807243,15.3119586 33.6939252,17.0048069 33.6939252,19.0933448 C33.6939252,21.1822345 35.3807243,22.8754345 37.4617991,22.8754345 C39.5425234,22.8754345 41.2296729,21.1822345 41.2296729,19.0933448 Z" id="Shape" fill="#004BFF" fill-rule="nonzero"></path>
            <g id="Group" transform="translate(14.318000, 29.897000)">
                <g id="Clipped">
                    <mask id="mask-2" fill="white">
                        <use xlink:href="#path-1"></use>
                    </mask>
                    <g id="logo-horizontal-a"></g>
                    <g id="Group" opacity="0.5" mask="url(#mask-2)">
                        <g transform="translate(-14.000000, -30.000000)" id="logo-horizontal-d-link">
                            <g>
                                <path d="M70.7524365,32.9314856 C65.5404936,31.0349032 59.9177896,30 54.0535047,30 C37.4935748,30 22.9330607,38.4051517 14.0711449,51.0334552 L0.682243,37.5975931 L38.0420561,0.1034483 L70.7524365,32.9314856 L70.7524365,32.9314856 Z" id="logo-horizontal-d" fill="#000000" fill-rule="nonzero"></path>
                            </g>
                        </g>
                    </g>
                </g>
            </g>
        </g>
    </g>
</svg>