<?xml version="1.0" encoding="UTF-8"?>
<svg width="2384px" height="1684px" viewBox="0 0 2384 1684" version="1.1" xmlns="http://www.w3.org/2000/svg" xmlns:xlink="http://www.w3.org/1999/xlink">
    <!-- Generator: Sketch 57.1 (83088) - https://sketch.com -->
    <title>A1</title>
    <desc>Created with Sketch.</desc>
    <g id="A1" stroke="none" stroke-width="1" fill="none" fill-rule="evenodd">
        <rect fill="#F4F4F7" x="0" y="0" width="2384" height="1684"></rect>
        <g id="Group" transform="translate(366.000000, 89.000000)">
            <g id="Arch_Linux_ARM_logo" transform="translate(81.000000, 1198.000000)" fill-rule="nonzero">
                <path d="M330.602377,95.3490405 C315.666885,95.3249492 303.26691,98.3919552 298.473487,100.065373 L293.532005,126.752957 C293.532005,126.851176 318.109865,120.189009 328.936709,120.581882 C346.851896,121.226787 348.517564,127.442339 348.202938,135.831666 C348.499057,136.322757 343.576082,128.250324 328.06686,127.97976 C308.486004,127.642482 280.891434,134.916197 280.928449,164.489176 C280.391733,197.757388 305.728398,207.542156 322.995825,207.708942 C338.505047,207.430966 345.796973,201.834375 349.776069,198.83223 C355.01367,193.34683 361.010076,187.842897 366.710362,181.223353 C361.306194,191.067423 356.623816,197.868578 351.737856,203.057471 L351.737856,207.468029 L375.334822,203.483701 L375.501389,139.287839 C375.260793,130.201718 380.701976,95.4324334 330.602377,95.3471873 L330.602377,95.3490405 L330.602377,95.3490405 Z M327.215518,151.242676 C337.005946,151.376104 348.221619,156.201774 348.221619,167.81748 C348.276967,178.380582 335.007144,184.060566 326.382684,183.971613 C317.758224,183.880808 306.302128,177.177871 306.246606,166.879773 C306.413173,157.673196 317.054942,151.005469 327.215518,151.242676 Z M391.047626,101.282909 L390.881059,207.597751 L418.364585,202.297669 L418.4016,142.01942 C418.420107,133.044489 431.227245,122.555514 447.273182,122.724153 C450.697056,116.547518 457.100625,100.762167 458.655249,97.1707123 C422.769352,97.0854662 422.325174,107.500314 416.069664,112.622492 C416.014142,102.848843 416.051157,96.9835416 416.051157,96.9835416 L391.047626,101.286616 L391.047626,101.282909 L391.047626,101.282909 Z M545.67716,115.241029 C545.418056,115.115014 531.352413,98.7662967 503.073068,98.6384275 C476.588943,98.1973717 446.884526,108.478791 446.403333,152.951304 C446.64393,192.049606 474.941782,207.338307 503.221127,207.634815 C533.499274,207.949855 545.5291,188.676827 546.25089,188.195001 C542.641942,185.063134 529.113015,171.644288 529.113015,171.644288 C529.113015,171.644288 520.673629,183.691784 504.276051,183.843744 C487.878472,183.999411 473.627755,171.155049 473.424174,153.231133 C473.220592,135.30907 486.52743,125.598429 504.405603,124.812682 C519.87781,124.810829 528.798388,134.814272 528.798388,134.814272 L545.67716,115.241029 Z M580.323059,64.0729927 L554.375649,70.1792069 L554.560724,208.654062 L580.119477,204.039654 L580.415596,138.870874 C580.471118,132.038215 590.280053,121.545533 606.677632,121.877252 C622.35342,122.040331 625.851324,132.336576 625.814309,133.637506 L626.258487,209.080292 L651.4656,204.614138 L651.558137,124.623658 C651.724704,116.925566 634.71638,100.667655 607.380914,100.552758 C594.407209,100.574996 587.207821,103.517839 583.543351,105.689761 C577.287841,110.533963 570.125468,115.176168 563.092646,121.100771 C569.588753,112.735536 575.048443,106.953627 580.378581,102.652406 L580.323059,64.0766991 L580.323059,64.0729927 L580.323059,64.0729927 Z M1183.57257,187.564921 L1137.32251,187.564921 L1130.03059,208.487276 L1100.30766,208.487276 L1142.7822,93.6552378 L1178.03885,93.6552378 L1220.51339,208.487276 L1190.79046,208.487276 L1183.57257,187.564921 L1183.57257,187.564921 Z M1144.68847,166.260812 L1176.11408,166.260812 L1160.43829,120.574469 L1144.68847,166.260812 Z M1280.51446,144.571243 C1286.71445,144.571243 1291.15623,143.418567 1293.83981,141.111363 C1296.52338,138.802306 1297.87442,135.008856 1297.87442,129.727305 C1297.87442,124.497643 1296.52338,120.754227 1293.83981,118.497059 C1291.15623,116.241744 1286.71445,115.11316 1280.51446,115.11316 L1268.07747,115.11316 L1268.07747,144.571243 L1280.51446,144.571243 Z M1268.07747,165.030303 L1268.07747,208.487276 L1238.50261,208.487276 L1238.50261,93.6552378 L1283.66072,93.6552378 C1298.76278,93.6552378 1309.84873,96.1922355 1316.88155,101.269937 C1323.93288,106.345786 1327.44929,114.370037 1327.44929,125.342691 C1327.44929,132.931446 1325.61705,139.161823 1321.95258,144.033822 C1318.28811,148.903968 1312.7729,152.493569 1305.40695,154.800773 C1309.44156,155.723655 1313.06902,157.814037 1316.2708,161.070067 C1319.47259,164.326097 1322.71139,169.261104 1325.9872,175.875088 L1342.03314,208.487276 L1310.55201,208.487276 L1296.5604,179.952075 C1293.74727,174.209083 1290.89712,170.28591 1288.00997,168.184409 C1285.1043,166.082907 1281.25476,165.030303 1276.44283,165.030303 L1268.07747,165.030303 L1268.07747,165.030303 Z M1362.40981,93.6552378 L1400.05392,93.6552378 L1426.16789,155.1084 L1452.42993,93.6552378 L1490,93.6552378 L1490,208.487276 L1462.03528,208.487276 L1462.03528,124.497643 L1435.60668,186.415952 L1416.85866,186.415952 L1390.44856,124.497643 L1390.44856,208.487276 L1362.40981,208.487276 L1362.40981,93.6552378 L1362.40981,93.6552378 Z" id="Shape" fill="#4D4D4D"></path>
                <rect id="Rectangle" fill="#3F3F3F" x="1055.13575" y="22.4817518" width="3.37104072" height="257.416058"></rect>
                <path d="M673.353969,67.4476138 L685.155838,64.5137543 L683.731475,204.138037 L671.744623,206.158193 L673.353969,67.4476138 Z M704.745461,109.11472 L715.122966,104.542496 L713.791094,204.656976 L703.802051,206.7142 L704.745461,109.11472 Z M702.803147,73.0150895 L711.21984,66.2559072 L718.00869,73.9084062 L709.591996,80.8473638 L702.803147,73.0150895 Z M734.472112,107.292873 L746.273981,104.902046 L746.033504,125.831974 C746.015006,126.730851 752.822353,102.450059 783.973368,102.991238 C814.236468,103.15804 818.861025,126.482501 818.620548,131.710813 L817.936113,205.30565 L807.595604,207.529675 L808.57601,134.842982 C808.723996,132.719038 804.136436,114.76745 782.752485,114.700729 C761.387033,114.637715 746.347974,130.161409 746.236984,140.078707 L745.497055,204.119504 L733.510204,207.233139 L734.472112,107.29102 L734.472112,107.292873 Z M920.619772,205.82459 L908.817904,208.215416 L909.05838,187.291049 C909.076879,186.401439 902.269531,210.680377 871.118516,210.142905 C840.855417,209.957569 836.249358,186.642375 836.471337,181.41221 L837.155771,107.813666 L849.697569,105.300518 L848.846651,177.996478 C848.828153,179.983274 850.955449,198.355573 872.339399,198.429707 C893.704852,198.485307 908.873398,185.604497 909.243363,166.209146 L909.909299,108.851544 L921.600179,105.893591 L920.619772,205.82459 Z M945.092927,106.466277 L936.750227,112.897416 L967.790252,154.125277 L933.383549,201.765744 L942.04072,208.23395 L974.394119,163.990681 L1006.48854,209.271828 L1014.68326,202.840689 L980.276555,154.427374 L1008.81932,115.273416 L1000.32863,108.024948 L974.301628,144.256167 L945.092927,106.466277 L945.092927,106.466277 Z M153.646275,0 C139.963137,33.609075 131.711077,55.5954145 116.477787,88.2070329 C125.817542,98.1261839 137.280894,109.676287 155.899359,122.723899 C135.884278,114.470914 122.232586,106.184567 112.027114,97.5887112 C92.5318322,138.347674 61.9857096,196.409551 0,308 C48.7206309,279.829018 86.4847617,262.444557 121.681339,255.828083 C120.170034,249.304276 119.311716,242.261531 119.36906,234.922249 L119.426405,233.346898 C120.199631,202.080814 136.435525,178.033545 155.669981,179.66635 C174.904438,181.299155 189.847306,207.993014 189.07038,239.259097 C188.940893,245.152763 188.274957,250.805493 187.109568,256.050485 C221.923232,262.870828 259.289651,280.199689 307.348045,308 C297.876953,290.522871 289.404765,274.769361 281.339538,259.757193 C268.612758,249.878816 255.349529,237.016539 228.268124,223.09785 C246.877341,227.953637 260.196064,233.532233 270.592068,239.778036 C188.459939,86.5649612 181.817226,66.2095733 153.644425,0.00961890768 L153.646275,0 L153.646275,0 Z M308.883398,280.524026 L308.883398,272.109798 L305.7387,272.109798 L305.7387,270.960719 L313.304474,270.960719 L313.304474,272.109798 L310.141278,272.109798 L310.141278,280.524026 L308.883398,280.524026 Z M314.617849,280.524026 L314.617849,270.960719 L316.523166,270.960719 L318.77995,277.743995 C319.001928,278.374135 319.149914,278.856007 319.242405,279.152544 C319.353395,278.81894 319.519879,278.300001 319.760356,277.632793 L322.035638,270.960719 L323.737475,270.960719 L323.737475,280.524026 L322.516592,280.524026 L322.516592,272.517536 L319.741858,280.524026 L318.613466,280.524026 L315.838732,272.406335 L315.838732,280.524026 L314.617849,280.524026 L314.617849,280.524026 Z" id="Shape" fill="#1793D1"></path>
            </g>
            <g id="Raspberry_Pi_Logo" fill-rule="nonzero">
                <path d="M171.354093,0.736793933 C167.28399,0.862898474 162.900643,2.36400162 157.929715,6.28029114 C145.754202,1.59141831 133.946226,-0.0375428647 123.384786,9.50815028 C107.085641,7.39656028 101.781757,11.7544528 97.7660142,16.8410042 C94.1870646,16.7670553 70.9804058,13.1673412 60.3394128,29.0156468 C33.5956378,25.8569245 25.1444596,44.7203042 34.7206406,62.3117155 C29.2587762,70.753499 23.5993489,79.0934685 36.372331,95.1867591 C31.8538616,104.150119 34.6546505,113.873571 45.2984875,125.640908 C42.4895096,138.240899 48.0110012,147.130995 57.9145907,154.060103 C56.0623472,171.302552 73.752269,181.328417 79.0351423,184.900192 C81.0634766,194.947176 85.2909415,204.427561 105.497331,209.670502 C108.829647,224.64339 120.973527,227.229 132.732651,230.370903 C93.8658556,252.926105 60.5354565,282.603457 60.761121,355.415359 L55.0680605,365.555047 C10.5009634,392.615498 -29.5944087,479.586901 33.1040925,550.279812 C37.1995774,572.407072 44.0680431,588.300018 50.183274,605.890211 C59.330219,676.769035 119.025876,709.958197 134.770907,713.88315 C157.842877,731.429366 182.416263,748.077934 215.668594,759.739801 C247.015738,792.017786 280.975876,804.319511 315.121441,804.300718 C315.622037,804.300718 316.131888,804.300718 316.632562,804.300718 C350.778139,804.319511 384.738265,792.017786 416.085409,759.739801 C449.337741,748.077934 473.911126,731.429366 496.983096,713.88315 C512.728128,709.958197 572.423789,676.769035 581.57073,605.890211 C587.685959,588.300018 594.554416,572.407072 598.649911,550.279812 C661.348404,479.586901 621.253031,392.615498 576.685943,365.555047 L570.992883,355.415359 C571.218547,282.603457 537.888149,252.926105 499.021352,230.370903 C510.780477,227.229 522.924357,224.64339 526.256673,209.670502 C546.463062,204.427561 550.690535,194.947176 552.718861,184.900192 C558.00174,181.328417 575.691656,171.302552 573.839413,154.060103 C583.74301,147.130995 589.264497,138.240899 586.455516,125.640908 C597.099363,113.873571 599.900135,104.150117 595.381673,95.1867591 C608.154651,79.0934685 602.495226,70.753499 597.033363,62.3117155 C606.609546,44.7203042 598.158368,25.8569245 571.414591,29.0156468 C560.7736,13.1673412 537.566942,16.7670553 533.987989,16.8410042 C529.972248,11.7544528 524.668362,7.39656006 508.369217,9.50815028 C497.807777,-0.03754273 485.999802,1.59141876 473.824288,6.28029114 C459.363409,-5.11255062 449.790003,4.01989605 438.857651,7.47319561 C421.343998,1.76097623 417.341515,9.58495402 408.740658,12.7710948 C389.651053,8.74264109 383.847955,17.5129962 374.687722,26.7701796 L364.039591,26.559667 C335.239126,43.5052145 320.931141,78.0094973 315.859431,95.7481259 C310.78537,78.0067129 296.509806,43.5022314 267.714413,26.559667 L257.066281,26.7701796 C247.906048,17.5129962 242.10295,8.74264075 223.013345,12.7710948 C214.412489,9.58495458 210.410006,1.76097724 192.896352,7.47319561 C185.721994,5.2069678 179.124296,0.496048859 171.354093,0.736793933 Z" id="Path" fill="#000000"></path>
                <path d="M114.020717,75.2855569 C190.43162,114.616439 234.850671,146.432026 259.18636,173.529763 C246.723646,223.398885 181.70858,225.674722 157.936373,224.275728 C162.80392,222.013712 166.865206,219.304511 168.305345,215.141459 C162.340153,210.908967 141.18907,214.695521 126.422828,206.413149 C132.095163,205.239903 134.74845,204.096927 137.401737,199.917663 C123.450832,195.475343 108.423502,191.647136 99.5854815,184.287909 C104.355004,184.34674 108.808134,185.353159 115.037281,181.040166 C102.541568,174.317024 89.2072521,168.989294 78.8475328,158.711936 C85.3083417,158.554046 92.2741052,158.648165 94.2993379,156.276132 C82.8621171,149.202147 73.212532,141.334939 65.2255476,132.729994 C74.2669475,133.81963 78.0851553,132.881316 80.270726,131.309108 C71.6253764,122.46849 60.6837201,115.003434 55.4665129,104.109269 C62.1796641,106.419275 68.3215829,107.303514 72.7481368,103.906284 C69.8103883,97.2895066 57.2231884,93.3866994 49.9770565,77.9243469 C57.0441648,78.608515 64.5396027,79.463736 66.0388001,77.9243469 C62.7525035,64.5766576 57.1239374,57.0751568 51.6035624,49.3036183 C66.7288777,49.0793759 89.64474,49.36239 88.6065676,48.0857151 L79.2541596,38.5454714 C94.0281346,34.5740921 109.145568,39.1833683 120.120113,42.6051493 C125.047756,38.7230946 120.032847,33.8141676 114.020717,28.8022454 C126.57633,30.4758438 137.92181,33.3576125 148.177337,37.3275682 C153.656597,32.3882937 144.619368,27.4490191 140.248121,22.5097446 C159.645978,26.1839667 167.864002,31.3464216 176.031252,36.5156331 C181.956927,30.8449313 176.370486,26.0255972 172.371613,21.0888567 C186.997195,26.4971184 194.530725,33.4788407 202.461965,40.3723263 C205.15099,36.7492054 209.29357,34.0935419 204.291785,25.3515192 C214.676107,31.3275215 222.4975,38.3696828 228.282752,46.2588591 C234.70774,42.1744204 232.110592,36.5887286 232.1457,31.4410354 C242.937662,40.2056734 249.786451,49.5327087 258.169796,58.6408773 C259.858529,57.4132388 261.337229,53.2498361 262.64268,46.6648272 C288.389809,71.6027785 324.769753,134.415711 271.995088,159.320885 C227.104229,122.330001 173.465917,95.4513413 114.020717,75.2855569 Z" id="Path" fill="#75A928"></path>
                <path d="M519.459996,75.2855569 C443.049093,114.616439 398.630042,146.432026 374.294353,173.529763 C386.757067,223.398885 451.772133,225.674722 475.54434,224.275728 C470.676793,222.013712 466.615507,219.304511 465.175368,215.141459 C471.14056,210.908967 492.291643,214.695521 507.057885,206.413149 C501.38555,205.239903 498.732263,204.096927 496.078976,199.917663 C510.029881,195.475343 525.057211,191.647136 533.895236,184.287909 C529.125705,184.34674 524.672579,185.353159 518.443432,181.040166 C530.93914,174.317024 544.273463,168.989294 554.63318,158.711936 C548.172375,158.554046 541.20661,158.648165 539.181376,156.276132 C550.618597,149.202147 560.26818,141.334939 568.255164,132.729994 C559.213763,133.81963 555.395561,132.881316 553.209988,131.309108 C561.855332,122.46849 572.796995,115.003434 578.0142,104.109269 C571.301044,106.419275 565.159129,107.303514 560.732576,103.906284 C563.67033,97.2895066 576.257521,93.3866994 583.50366,77.9243469 C576.43655,78.608515 568.941109,79.463736 567.441908,77.9243469 C570.728207,64.5766576 576.356775,57.0751568 581.877148,49.3036183 C566.751836,49.0793759 543.835978,49.3623934 544.874144,48.0857151 L554.226552,38.5454714 C539.452574,34.5740921 524.335145,39.1833683 513.3606,42.6051493 C508.432957,38.7230946 513.447866,33.8141676 519.459996,28.8022454 C506.904383,30.4758438 495.558903,33.3576125 485.303376,37.3275682 C479.824116,32.3882937 488.861345,27.4490191 493.232592,22.5097446 C473.834735,26.1839667 465.616711,31.3464216 457.449461,36.5156331 C451.523786,30.8449313 457.110227,26.0255972 461.1091,21.0888567 C446.483518,26.4971184 438.949988,33.4788407 431.018748,40.3723263 C428.329723,36.7492054 424.187143,34.0935419 429.188928,25.3515192 C418.804606,31.3275215 410.983213,38.3696828 405.197961,46.2588591 C398.772973,42.1744204 401.370121,36.5887286 401.335013,31.4410354 C390.543051,40.2056734 383.694262,49.5327087 375.310917,58.6408773 C373.622184,57.4132388 372.143484,53.2498361 370.838033,46.6648272 C345.090904,71.6027785 308.71096,134.415711 361.485625,159.320885 C406.376484,122.330001 460.014796,95.4513413 519.459996,75.2855569 L519.459996,75.2855569 Z" id="Path" fill="#75A928"></path>
                <path d="M409.27774,583.104099 C409.27774,629.641344 368.299407,667.367235 317.750071,667.367235 C267.200735,667.367235 226.222402,629.641344 226.222402,583.104099 C226.222402,536.566854 267.200735,498.840963 317.750071,498.840963 C368.299407,498.840963 409.27774,536.566854 409.27774,583.104099 Z" id="Path" fill="#BC1142"></path>
                <path d="M308.129039,423.138944 C308.162764,468.455685 264.875339,505.159888 211.443849,505.120107 C158.012358,505.080261 114.670221,468.311509 114.636456,422.994768 C114.602731,377.678027 157.890156,340.973825 211.321647,341.013605 C264.753137,341.053451 308.095274,377.822203 308.129039,423.138944 Z" id="Path" fill="#BC1142" transform="translate(211.382748, 423.066856) rotate(-56.610902) translate(-211.382748, -423.066856) "></path>
                <path d="M517.296318,418.64801 C517.330043,463.964751 474.042618,500.668953 420.611127,500.629172 C367.179637,500.589327 323.8375,463.820575 323.803735,418.503834 C323.77001,373.187093 367.057435,336.48289 420.488926,336.522671 C473.920416,336.562517 517.262553,373.331269 517.296318,418.64801 Z" id="Path" fill="#BC1142" transform="translate(420.550026, 418.575922) scale(-1, 1) rotate(-56.610902) translate(-420.550026, -418.575922) "></path>
                <path d="M75.2442703,382.950738 C116.194066,371.996316 89.0668435,552.075411 55.7519261,537.299406 C19.106308,507.869549 7.30263742,421.685429 75.2442703,382.950738 Z" id="Path" fill="#BC1142"></path>
                <path d="M548.421126,380.705271 C507.471327,369.750849 534.598544,549.829944 567.913468,535.053938 C604.559089,505.624082 616.362757,419.439962 548.421126,380.705271 Z" id="Path" fill="#BC1142"></path>
                <path d="M409.306118,246.612255 C479.967384,234.699906 538.760343,276.614268 536.393649,353.112475 C534.069272,382.439535 383.275658,250.978443 409.306118,246.612255 L409.306118,246.612255 Z" id="Path" fill="#BC1142"></path>
                <path d="M214.070039,244.366788 C143.408773,232.454438 84.6158148,274.368801 86.9825086,350.867008 C89.3068854,380.194068 240.1005,248.732976 214.070039,244.366788 Z" id="Path" fill="#BC1142"></path>
                <path d="M315.571904,226.517883 C273.398173,225.422679 232.922183,257.768253 232.82505,276.529412 C232.707708,299.325687 266.169769,322.665523 315.859431,323.257978 C366.602789,323.620857 398.981611,304.575141 399.145777,281.04983 C399.330594,254.396179 352.99484,226.106121 315.571904,226.517883 L315.571904,226.517883 Z" id="Path" fill="#BC1142"></path>
                <path d="M318.147192,693.980452 C354.917267,692.378187 404.255314,705.805037 404.351992,723.616106 C404.962288,740.912041 359.606291,779.989178 315.707424,779.23369 C270.244707,781.191637 225.665327,742.053704 226.249613,728.487714 C225.569189,708.597444 281.606965,693.067759 318.147192,693.980452 Z" id="Path" fill="#BC1142"></path>
                <path d="M182.333957,588.428829 C208.512589,619.916713 220.445873,675.237458 198.599017,691.544647 C177.930626,703.993338 127.738232,698.866689 92.0628923,647.700137 C68.0029762,604.764918 71.1039011,561.073795 87.996628,548.23802 C113.259112,532.874207 152.291297,553.626041 182.333957,588.428829 Z" id="Path" fill="#BC1142"></path>
                <path d="M448.721012,578.445572 C420.397044,611.568066 404.624652,671.979959 425.2877,691.440626 C445.0442,706.556674 498.079256,704.4437 537.254777,650.173721 C565.701513,613.7245 556.169941,552.852646 539.920839,536.693298 C515.783297,518.053529 481.13257,541.908272 448.721012,578.445572 L448.721012,578.445572 Z" id="Path" fill="#BC1142"></path>
            </g>
            <g id="Packer_VerticalLogo_FullColor-2" transform="translate(1087.424581, 0.000000)">
                <g id="Packer_VerticalLogo_FullColor">
                    <path d="M21.134331,626.126866 L21.134331,611.255224 L7.61614229,611.255224 L7.61614229,626.056716 L0.575418994,626.056716 L0.575418994,590.491045 L7.61614229,590.491045 L7.61614229,605.432836 L21.134331,605.432836 L21.134331,590.491045 L28.1750543,590.491045 L28.1750543,626.126866 L21.134331,626.126866 Z M53.5920654,626.126866 L48.1003013,626.126866 L47.6074506,624.232836 C45.1955883,625.714841 42.4146418,626.492598 39.5810261,626.477824 C34.6525198,626.477824 32.5403028,623.250746 32.5403028,618.831343 C32.5403028,614.41194 34.9341487,611.816418 40.3555056,611.816418 L46.8329711,611.816418 L46.8329711,609.150746 C46.8329711,606.274627 45.9880843,605.292537 41.6932431,605.292537 C39.1864372,605.310638 36.6871964,605.569043 34.2300764,606.064179 L33.3851896,601.153731 C36.4610115,600.323176 39.632985,599.898652 42.8197588,599.891045 C51.2686267,599.891045 53.7328799,602.767164 53.7328799,609.150746 L53.5920654,626.126866 Z M46.5513421,616.446269 L41.9044648,616.446269 C39.7218405,616.446269 39.0881754,617.007463 39.0881754,618.971642 C39.0881754,620.935821 39.7218405,621.567164 41.7636503,621.567164 C43.5370226,621.539906 45.2770057,621.082426 46.8329711,620.234328 L46.5513421,616.446269 Z M67.673512,626.68806 C64.5207247,626.643543 61.3907562,626.147418 58.3797573,625.214925 L59.2950513,620.304478 C61.9103044,621.024055 64.6084518,621.401354 67.3214759,621.426866 C70.2785796,621.426866 70.7714303,620.795522 70.7714303,618.831343 C70.7714303,616.867164 70.7714303,616.446269 66.0541457,615.464179 C59.506273,613.920896 59.0134224,612.377612 59.0134224,607.397015 C59.0134224,602.416418 61.4072683,599.961194 69.0816567,599.961194 C71.7826364,599.970395 74.4743677,600.276222 77.1080812,600.873134 L76.4744161,605.99403 C74.1491212,605.568902 71.7961383,605.311022 69.4336929,605.222388 C66.4765891,605.222388 65.9837384,605.853731 65.9837384,607.467164 C65.9837384,609.080597 65.9837384,609.71194 69.785729,610.553731 C77.3193029,612.447761 78.0233753,613.429851 78.0233753,618.691045 C78.0233753,623.952239 75.7703438,626.61791 67.673512,626.61791 L67.673512,626.68806 Z M98.5118801,626.126866 L98.5118801,608.168657 C98.5118801,606.765672 97.878215,606.134328 96.3292559,606.134328 C93.8627878,606.396343 91.4712594,607.135 89.2885326,608.308955 L89.2885326,626.126866 L82.2478093,626.126866 L82.2478093,590 L89.2885326,590.98209 L89.2885326,602.346269 C92.365927,600.85064 95.7237834,600.014251 99.1455452,599.891045 C103.581201,599.891045 105.200567,602.907463 105.200567,607.467164 L105.200567,626.126866 L98.5118801,626.126866 Z M110.903553,596.804478 L110.903553,590.491045 L117.944276,590.491045 L117.944276,596.804478 L110.903553,596.804478 Z M110.903553,626.126866 L110.903553,600.38209 L117.944276,600.38209 L117.944276,626.056716 L110.903553,626.126866 Z M123.013597,600.662687 C123.013597,594.208955 126.956402,590.491045 136.109342,590.491045 C139.477198,590.499183 142.832562,590.89941 146.10717,591.683582 L145.33269,597.435821 C142.344658,596.769662 139.307082,596.347367 136.250157,596.173134 C131.462465,596.173134 129.913506,597.786567 129.913506,601.504478 L129.913506,615.043284 C129.913506,618.761194 131.462465,620.374627 136.250157,620.374627 C139.2739,620.312205 142.287686,620.007239 145.262283,619.462687 L146.036762,625.214925 C142.762154,625.999097 139.40679,626.399324 136.038935,626.407463 C126.885995,626.407463 122.94319,622.689552 122.94319,616.235821 L123.013597,600.662687 Z M160.963096,626.68806 C151.739748,626.68806 149.275495,621.847761 149.275495,616.586567 L149.275495,610.202985 C149.275495,604.941791 151.739748,600.101493 160.963096,600.101493 C170.186443,600.101493 172.650696,604.941791 172.650696,610.202985 L172.650696,616.726866 C172.580289,621.777612 170.116036,626.61791 160.892688,626.61791 L160.963096,626.68806 Z M160.963096,605.643284 C157.372327,605.643284 155.964182,607.186567 155.964182,610.062687 L155.964182,617.077612 C155.964182,619.953731 157.372327,621.497015 160.963096,621.497015 C164.553865,621.497015 165.962009,619.953731 165.962009,617.077612 L165.962009,610.062687 C165.891602,606.90597 164.483457,605.362687 160.892688,605.362687 L160.963096,605.643284 Z M191.590242,606.064179 C189.153623,607.126941 186.800157,608.369708 184.549519,609.78209 L184.549519,626.337313 L177.508795,626.337313 L177.508795,600.38209 L183.634225,600.38209 L183.634225,603.18806 C185.827299,601.770919 188.193439,600.639333 190.674948,599.820896 L191.590242,606.064179 Z M218.485805,617.21791 C218.858973,619.675228 218.05382,622.164674 216.310866,623.942588 C214.567912,625.720503 212.088945,626.58105 209.614494,626.267164 C207.248803,626.225585 204.891967,625.967282 202.57377,625.495522 L202.57377,636.01791 L195.533047,637 L195.533047,600.38209 L200.883997,600.38209 L201.517662,602.556716 C204.005393,600.797632 206.986479,599.864854 210.036937,599.891045 C215.458294,599.891045 218.344991,602.977612 218.344991,608.8 L218.485805,617.21791 Z M202.432956,620.09403 C204.400282,620.52063 206.40459,620.755567 208.417571,620.795522 C210.811417,620.795522 211.797118,619.673134 211.797118,617.358209 L211.797118,608.659701 C211.797118,606.555224 210.952231,605.362687 208.487978,605.362687 C206.287475,605.43645 204.177361,606.252669 202.503363,607.677612 L202.432956,620.09403 Z" id="Shape" fill="#000000" fill-rule="nonzero"></path>
                    <path d="M1.57541899,655 L58.9789278,655 C93.0140155,655 105.575419,669.026718 105.575419,694.765744 L105.575419,714.82395 C105.575419,740.42271 91.5403313,754.30916 57.6455944,754.30916 L29.6455944,754.30916 L29.6455944,802 L1.57541899,802 L1.57541899,655 Z M57.7157699,679.476622 L29.6455944,679.476622 L29.6455944,729.622137 L57.7157699,729.622137 C73.4350681,729.622137 78.0666471,723.871183 78.0666471,711.738073 L78.0666471,696.939885 C77.7859453,684.806775 72.7333137,679.476622 57.7157699,679.476622 Z" id="Shape" fill="#000000" fill-rule="nonzero"></path>
                    <path d="M199.575419,802.548468 L177.24431,802.548468 L175.259322,795.54409 C165.633968,801.714293 154.406134,804.998532 142.932383,805 C123.082508,805 114.575419,791.551595 114.575419,773.060038 C114.575419,751.206379 124.145894,742.871169 146.264326,742.871169 L172.352733,742.871169 L172.352733,731.594121 C172.352733,719.686679 169.02079,715.484053 151.581257,715.484053 C141.452172,715.585766 131.358803,716.688612 121.451983,718.77611 L118.12004,698.253283 C130.235188,694.877596 142.751368,693.110974 155.338555,693 C189.508697,693 199.504527,704.907442 199.504527,731.804253 L199.575419,802.548468 Z M172.352733,761.993121 L152.219289,761.993121 C143.286845,761.993121 140.805611,764.444653 140.805611,772.569731 C140.805611,780.694809 143.286845,783.356473 151.723042,783.356473 C158.940147,783.265257 166.015066,781.361023 172.281841,777.823014 L172.352733,761.993121 Z" id="Shape" fill="#000000" fill-rule="nonzero"></path>
                    <path d="M214.575419,762.692549 L214.575419,733.307451 C214.575419,704.413275 227.188353,692 261.151674,692 C270.106939,692.060425 279.006575,693.4068 287.575419,695.997495 L284.263643,718.088917 C276.929817,716.279535 269.41141,715.314746 261.856307,715.213525 C246.354377,715.213525 241.703797,719.842204 241.703797,733.097057 L241.703797,762.902943 C241.703797,776.157796 246.354377,780.786475 261.856307,780.786475 C269.416016,780.751949 276.942358,779.786141 284.263643,777.911083 L287.575419,800.002505 C279.019663,802.650243 270.111471,803.997912 261.151674,804 C227.258817,804 214.575419,791.586725 214.575419,762.692549 Z" id="Path" fill="#000000" fill-rule="nonzero"></path>
                    <path d="M304.575419,802.929539 L304.575419,650.804878 L331.568616,647 L331.568616,802.929539 L304.575419,802.929539 Z M396.239818,694.98374 L364.607165,748.463415 L397.575419,803 L367.91102,803 L335.364535,748.463415 L366.15365,694.98374 L396.239818,694.98374 Z" id="Shape" fill="#000000" fill-rule="nonzero"></path>
                    <path d="M452.098073,782.71214 C463.163681,782.666878 474.161246,780.966218 484.730759,777.665832 L488.905516,797.991239 C476.331796,802.619818 463.049824,804.991982 449.662798,805 C416.125581,805 404.575419,789.300375 404.575419,763.508135 L404.575419,735.052566 C404.575419,712.34418 414.664416,693 448.827846,693 C482.991277,693 490.575419,713.045056 490.575419,736.244055 L490.575419,759.162703 L431.293866,759.162703 L431.293866,764.699625 C431.293866,777.665832 435.816519,782.71214 452.098073,782.71214 Z M431.224286,737.505632 L465.178979,737.505632 L465.178979,732.178974 C465.178979,722.01627 462.11749,714.937422 448.967005,714.937422 C435.816519,714.937422 431.224286,721.946183 431.224286,732.178974 L431.224286,737.505632 Z" id="Shape" fill="#000000" fill-rule="nonzero"></path>
                    <path d="M563.575419,716.647887 C553.587645,721.162093 543.965777,726.435996 534.795672,732.422535 L534.795672,802 L507.575419,802 L507.575419,694.112676 L530.542508,694.112676 L532.31466,706.084507 C541.108059,700.182389 550.640277,695.447447 560.66909,692 L563.575419,716.647887 Z" id="Path" fill="#000000" fill-rule="nonzero"></path>
                    <polygon id="Path" fill="#1DAEFF" points="116.575419 66 292.575419 167.788079 292.575419 543 116.575419 441.282119"></polygon>
                    <path d="M378.737457,110.221034 L187.575419,0 L187.575419,76.5443334 L317.540369,151.685471 L317.540369,381.318471 L378.737457,416.398367 C416.591326,438.288223 447.575419,425.168342 447.575419,387.282054 L447.575419,218.898552 C447.575419,181.012264 416.591326,132.110889 378.737457,110.221034 Z" id="Path" fill="#1D94DD" fill-rule="nonzero"></path>
                </g>
            </g>
            <g id="Plus" transform="translate(692.000000, 868.000000)" stroke="#1C1C1C" stroke-linecap="round" stroke-width="13">
                <path d="M0.562761506,132.939076 L268.437238,132.939076" id="Line"></path>
                <path d="M135.062762,0 L135.062762,267" id="Line"></path>
            </g>
        </g>
    </g>
</svg>