<?xml version="1.0" encoding="UTF-8"?>
<svg width="3370px" height="2384px" viewBox="0 0 3370 2384" version="1.1" xmlns="http://www.w3.org/2000/svg" xmlns:xlink="http://www.w3.org/1999/xlink">
    <!-- Generator: Sketch 57.1 (83088) - https://sketch.com -->
    <title>A0</title>
    <desc>Created with Sketch.</desc>
    <defs>
        <linearGradient x1="8.5%" y1="8.5%" x2="91.5%" y2="91.5%" id="linearGradient-1">
            <stop stop-color="#E3702D" offset="0%"></stop>
            <stop stop-color="#EA7D31" offset="10.71%"></stop>
            <stop stop-color="#F69537" offset="35.03%"></stop>
            <stop stop-color="#FB9E3A" offset="50%"></stop>
            <stop stop-color="#EA7C31" offset="70.16%"></stop>
            <stop stop-color="#DE642B" offset="88.66%"></stop>
            <stop stop-color="#D95B29" offset="100%"></stop>
        </linearGradient>
        <circle id="path-2" cx="97.6438186" cy="614.342359" r="97.6438186"></circle>
        <path d="M471.945123,711.986177 L333.61638,711.986177 C333.61638,527.734938 184.251239,378.369797 1.42108547e-14,378.369797 L1.42108547e-14,240.041054 C260.648094,240.041054 471.945123,451.338083 471.945123,711.986177 Z" id="path-3"></path>
        <path d="M569.588942,711.986177 C569.588942,397.410891 314.575286,142.397235 7.10542736e-15,142.397235 L7.10542736e-15,-1.42108547e-14 C393.219108,-1.42108547e-14 711.986177,318.767069 711.986177,711.986177 L569.588942,711.986177 Z" id="path-4"></path>
        <path d="M659.407617,649.895229 C683.626527,649.895229 703.301826,669.548029 703.301826,693.775385 C703.301826,718.00274 683.626527,737.65554 659.407617,737.65554 C635.161335,737.65554 615.522532,718.00274 615.522532,693.775385 C615.522532,669.548029 635.161335,649.895229 659.407617,649.895229 Z M896.665349,48.1428207 C920.929878,48.1428207 940.568682,67.786499 940.568682,92.0138542 C940.568682,116.254892 920.929878,135.894009 896.665349,135.894009 C872.460125,135.894009 852.789388,116.254892 852.789388,92.0138542 C852.789388,67.786499 872.460125,48.1428207 896.665349,48.1428207 Z M120.218674,134.17 L815.204231,134.17 C830.509268,163.624115 861.247075,183.810537 896.665349,183.810537 C947.301986,183.810537 988.491012,142.634979 988.491012,92.0138542 C988.491012,41.4064119 947.301986,0.230854071 896.665349,0.230854071 C858.254495,0.230854071 825.322434,23.9610742 811.659666,57.510853 L120.218674,57.510853 C53.0179271,57.510853 0.387758028,108.464922 0.387758028,173.502965 L0.387758028,913.162478 C0.387758028,979.176548 55.2669236,1034.95602 120.218674,1034.95602 L860.015373,1034.95602 C925.094856,1034.95602 978.048917,980.316766 978.048917,913.162478 L978.048917,474.392852 C978.048917,408.324051 925.094856,354.578729 860.015373,354.578729 L421.146275,354.578729 C354.137126,354.578729 297.519892,409.446026 297.519892,474.392852 L297.519892,612.286274 C297.519892,676.266195 352.978414,728.310312 421.146275,728.310312 L574.39281,728.310312 C588.078387,761.846408 621.010448,785.567507 659.407617,785.567507 C710.044253,785.567507 751.228718,744.391949 751.228718,693.775385 C751.228718,643.158821 710.044253,601.978702 659.407617,601.978702 C623.975657,601.978702 593.228726,622.183368 577.932812,651.646605 L421.146275,651.646605 C398.569634,651.646605 374.195621,636.595725 374.195621,612.286274 L374.195621,474.392852 C374.195621,451.80285 396.580664,431.242436 421.146275,431.242436 L860.015373,431.242436 C883.198741,431.242436 901.368626,450.192862 901.368626,474.392852 L901.368626,913.162478 C901.368626,937.622438 882.432349,958.292313 860.015373,958.292313 L120.218674,958.292313 C97.231466,958.292313 77.0680485,937.198277 77.0680485,913.162478 L77.0680485,173.502965 C77.0680485,151.081715 95.6165678,134.17 120.218674,134.17 L120.218674,134.17 Z" id="path-5"></path>
        <polygon id="path-7" points="0.39 0.139167331 77.5136471 0.139167331 77.5136471 737.790287 0.39 737.790287"></polygon>
        <linearGradient x1="4.24651779%" y1="87.2468815%" x2="4.24651779%" y2="18.9262573%" id="linearGradient-9">
            <stop stop-color="#249184" offset="0%"></stop>
            <stop stop-color="#3FB5AF" offset="100%"></stop>
        </linearGradient>
        <path d="M745.671396,77.9493158 L6.16973391,77.9493158 C4.16544206,77.9493158 2.17074542,77.8956266 0.186961634,77.7896016 L0.186961634,0.0367278587 C2.15155476,0.353571204 4.14973736,0.518220745 6.16973391,0.518220745 L745.671396,0.518220745 L745.671396,77.9493158 L745.671396,77.9493158 Z" id="path-10"></path>
        <linearGradient x1="11.5216458%" y1="95.6380306%" x2="86.9972899%" y2="95.6380306%" id="linearGradient-12">
            <stop stop-color="#249184" offset="0%"></stop>
            <stop stop-color="#E15F38" offset="100%"></stop>
        </linearGradient>
        <polygon id="path-13" points="0.249903547 0.0619571417 77.6809986 0.0619571417 77.6809986 438.790267 0.249903547 438.790267"></polygon>
        <linearGradient x1="94.2728796%" y1="45.9937409%" x2="94.2728796%" y2="87.8107286%" id="linearGradient-15">
            <stop stop-color="#B1343A" offset="0%"></stop>
            <stop stop-color="#E15F38" offset="100%"></stop>
        </linearGradient>
        <polygon id="path-16" points="0.530551828 0.348705882 438.672138 0.348705882 438.672138 77.4723529 0.530551828 77.4723529"></polygon>
        <linearGradient x1="86.34263%" y1="38.4158329%" x2="43.4002613%" y2="38.4158329%" id="linearGradient-18">
            <stop stop-color="#B1343A" offset="0%"></stop>
            <stop stop-color="#BA503D" offset="100%"></stop>
        </linearGradient>
        <polygon id="path-19" points="0.0765146368 0.0615828105 76.8432238 0.0615828105 76.8432238 137.932641 0.0765146368 137.932641"></polygon>
        <linearGradient x1="35.3073162%" y1="46.1281791%" x2="35.3073162%" y2="58.7012386%" id="linearGradient-21">
            <stop stop-color="#BA503D" offset="0%"></stop>
            <stop stop-color="#DF5430" offset="100%"></stop>
        </linearGradient>
        <path d="M0.187046265,134.539903 L0.187046265,57.6565485 C2.16851372,57.5664863 4.16401256,57.520963 6.17252673,57.520963 L697.650632,57.520963 C711.314133,23.963435 744.247962,0.227733803 782.660878,0.227733803 C833.300233,0.227733803 874.49147,41.4128021 874.49147,92.0319335 C874.49147,142.664751 833.300233,183.849819 782.660878,183.849819 C747.240703,183.849819 716.501246,163.658734 701.195387,134.197816 L6.17252673,134.197816 C4.13341111,134.197816 2.13587972,134.314009 0.187046265,134.539903 L0.187046265,134.539903 Z M782.660878,48.1507669 C758.454354,48.1507669 738.782562,67.7989823 738.782562,92.0319335 C738.782562,116.27857 758.454354,135.922224 782.660878,135.922224 C806.926709,135.922224 826.566567,116.27857 826.566567,92.0319335 C826.566567,67.7989823 806.926709,48.1507669 782.660878,48.1507669 Z" id="path-22"></path>
        <linearGradient x1="101.548008%" y1="9.4529907%" x2="13.0322575%" y2="9.4529907%" id="linearGradient-24">
            <stop stop-color="#2270A8" offset="0%"></stop>
            <stop stop-color="#3FB5AF" offset="100%"></stop>
        </linearGradient>
        <path d="M0.534085855,126.714817 L0.534085855,50.142086 L157.713213,50.142086 C173.047427,20.713813 203.871348,0.533124157 239.392029,0.533124157 C290.155458,0.533124157 331.443048,41.6643746 331.443048,92.2208722 C331.443048,142.77737 290.155458,183.904065 239.392029,183.904065 C200.898715,183.904065 167.884192,160.211116 154.164346,126.714817 L0.534085855,126.714817 Z M239.392029,48.3927893 C215.085035,48.3927893 195.397056,68.0222674 195.397056,92.2208722 C195.397056,116.419477 215.085035,136.048955 239.392029,136.048955 C263.671583,136.048955 283.396148,116.419477 283.396148,92.2208722 C283.396148,68.0222674 263.671583,48.3927893 239.392029,48.3927893 Z" id="path-25"></path>
        <linearGradient x1="42.5824442%" y1="67.0269317%" x2="77.7259108%" y2="67.0269317%" id="linearGradient-27">
            <stop stop-color="#DF5430" offset="0%"></stop>
            <stop stop-color="#F0A44C" offset="100%"></stop>
        </linearGradient>
    </defs>
    <g id="A0" stroke="none" stroke-width="1" fill="none" fill-rule="evenodd">
        <rect fill="#EEF6FF" x="0" y="0" width="3370" height="2384"></rect>
        <g id="Group-2" transform="translate(949.000000, 209.000000)">
            <g id="atom" transform="translate(1036.000000, 0.000000)" fill-rule="nonzero">
                <g id="Group">
                    <g id="Oval">
                        <use fill="#FFFFFF" xlink:href="#path-2"></use>
                        <use fill="url(#linearGradient-1)" xlink:href="#path-2"></use>
                    </g>
                    <g id="Path">
                        <use fill="#FFFFFF" xlink:href="#path-3"></use>
                        <use fill="url(#linearGradient-1)" xlink:href="#path-3"></use>
                    </g>
                    <g id="Path">
                        <use fill="#FFFFFF" xlink:href="#path-4"></use>
                        <use fill="url(#linearGradient-1)" xlink:href="#path-4"></use>
                    </g>
                </g>
            </g>
            <g id="Group" transform="translate(0.000000, 524.000000)">
                <g id="-Gumroad_Logo_Color" transform="translate(238.672000, 0.000000)">
                    <g id="Group-8">
                        <mask id="mask-6" fill="white">
                            <use xlink:href="#path-5"></use>
                        </mask>
                        <g id="Clip-2"></g>
                        <polygon id="Fill-1" fill="#3EB5AF" mask="url(#mask-6)" points="0.387758028 177.771942 117.112048 177.771942 117.112048 21.3796203 0.387758028 21.3796203"></polygon>
                        <polygon id="Fill-3" fill="#229183" mask="url(#mask-6)" points="0.387758028 1034.95602 117.112048 1034.95602 117.112048 910.093011 0.387758028 910.093011"></polygon>
                        <polygon id="Fill-4" fill="#E15E38" mask="url(#mask-6)" points="857.141402 1034.95602 988.491012 1034.95602 988.491012 910.093011 857.141402 910.093011"></polygon>
                        <polygon id="Fill-5" fill="#B03439" mask="url(#mask-6)" points="857.141402 477.457758 988.491012 477.457758 988.491012 321.065437 857.141402 321.065437"></polygon>
                        <polygon id="Fill-6" fill="#B94F3C" mask="url(#mask-6)" points="277.374722 477.457758 424.024808 477.457758 424.024808 321.065437 277.374722 321.065437"></polygon>
                        <polygon id="Fill-7" fill="#DF542F" mask="url(#mask-6)" points="277.374722 765.604567 424.024808 765.604567 424.024808 609.216807 277.374722 609.216807"></polygon>
                    </g>
                    <g id="Group-11" transform="translate(0.000000, 176.000000)">
                        <mask id="mask-8" fill="white">
                            <use xlink:href="#path-7"></use>
                        </mask>
                        <g id="Clip-10"></g>
                        <path d="M664.795993,475.59573 C689.154934,475.59573 708.943993,495.227125 708.943993,519.428091 C708.943993,543.629058 689.154934,563.260453 664.795993,563.260453 C640.409522,563.260453 620.657169,543.629058 620.657169,519.428091 C620.657169,495.227125 640.409522,475.59573 664.795993,475.59573 Z M903.425522,-125.501251 C927.830346,-125.501251 947.582699,-105.878969 947.582699,-81.6780021 C947.582699,-57.4633675 927.830346,-37.8456409 903.425522,-37.8456409 C879.080346,-37.8456409 859.295875,-57.4633675 859.295875,-81.6780021 C859.295875,-105.878969 879.080346,-125.501251 903.425522,-125.501251 Z M122.489522,-39.567773 L821.493405,-39.567773 C836.886934,-10.1457391 867.802463,10.018696 903.425522,10.018696 C954.354934,10.018696 995.782111,-31.1120135 995.782111,-81.6780021 C995.782111,-132.230323 954.354934,-173.361032 903.425522,-173.361032 C864.792581,-173.361032 831.670111,-149.656659 817.928346,-116.143423 L122.489522,-116.143423 C54.9002282,-116.143423 1.96575758,-65.2448531 1.96575758,-0.277649072 L1.96575758,738.576229 C1.96575758,804.518397 57.1622282,860.237114 122.489522,860.237114 L866.56364,860.237114 C932.019405,860.237114 985.27964,805.657373 985.27964,738.576229 L985.27964,300.28451 C985.27964,234.287671 932.019405,180.600888 866.56364,180.600888 L425.157052,180.600888 C357.760463,180.600888 300.815875,235.408424 300.815875,300.28451 L300.815875,438.027739 C300.815875,501.937973 356.595052,553.925403 425.157052,553.925403 L579.28964,553.925403 C593.054346,587.424972 626.176816,611.120234 664.795993,611.120234 C715.725405,611.120234 757.147993,569.989524 757.147993,519.428091 C757.147993,468.866659 715.725405,427.731393 664.795993,427.731393 C629.159169,427.731393 598.234463,447.914052 582.850111,477.345198 L425.157052,477.345198 C402.449875,477.345198 377.934934,462.310712 377.934934,438.027739 L377.934934,300.28451 C377.934934,277.719113 400.449405,257.181093 425.157052,257.181093 L866.56364,257.181093 C889.881052,257.181093 908.155993,276.110878 908.155993,300.28451 L908.155993,738.576229 C908.155993,763.009547 889.110228,783.656908 866.56364,783.656908 L122.489522,783.656908 C99.3694046,783.656908 79.0894046,762.585848 79.0894046,738.576229 L79.0894046,-0.277649072 C79.0894046,-22.6744776 97.7451693,-39.567773 122.489522,-39.567773 L122.489522,-39.567773 Z" id="Fill-9" fill="url(#linearGradient-9)" mask="url(#mask-8)"></path>
                    </g>
                    <g id="Group-14" transform="translate(113.000000, 957.000000)">
                        <mask id="mask-11" fill="white">
                            <use xlink:href="#path-10"></use>
                        </mask>
                        <g id="Clip-13"></g>
                        <path d="M545.143643,-310.965852 C569.352895,-310.965852 589.020347,-291.116332 589.020347,-266.646466 C589.020347,-242.1766 569.352895,-222.32708 545.143643,-222.32708 C520.907032,-222.32708 501.27606,-242.1766 501.27606,-266.646466 C501.27606,-291.116332 520.907032,-310.965852 545.143643,-310.965852 Z M782.306756,-918.741676 C806.561608,-918.741676 826.192579,-898.901368 826.192579,-874.431502 C826.192579,-849.947817 806.561608,-830.112116 782.306756,-830.112116 C758.111184,-830.112116 738.448293,-849.947817 738.448293,-874.431502 C738.448293,-898.901368 758.111184,-918.741676 782.306756,-918.741676 Z M6.16973391,-831.853383 L700.878124,-831.853383 C716.177058,-802.104438 746.902606,-781.715954 782.306756,-781.715954 C832.923198,-781.715954 874.095798,-823.303671 874.095798,-874.431502 C874.095798,-925.545514 832.923198,-967.133231 782.306756,-967.133231 C743.91122,-967.133231 710.992293,-943.165476 697.334973,-909.279871 L6.16973391,-909.279871 C-61.0042131,-909.279871 -113.613393,-857.815763 -113.613393,-792.126703 L-113.613393,-45.0633537 C-113.613393,21.6115032 -58.7561134,77.9493158 6.16973391,77.9493158 L745.671396,77.9493158 C810.724924,77.9493158 863.657867,22.7631347 863.657867,-45.0633537 L863.657867,-488.224972 C863.657867,-554.955107 810.724924,-609.238409 745.671396,-609.238409 L306.977322,-609.238409 C239.994897,-609.238409 183.400243,-553.821901 183.400243,-488.224972 L183.400243,-348.951265 C183.400243,-284.330919 238.836647,-231.765851 306.977322,-231.765851 L460.162741,-231.765851 C473.84286,-197.894066 506.761788,-173.935524 545.143643,-173.935524 C595.760086,-173.935524 636.928125,-215.523241 636.928125,-266.646466 C636.928125,-317.769691 595.760086,-359.362014 545.143643,-359.362014 C509.725814,-359.362014 478.991145,-338.955104 463.701332,-309.196946 L306.977322,-309.196946 C284.409685,-309.196946 260.045392,-324.398482 260.045392,-348.951265 L260.045392,-488.224972 C260.045392,-511.041095 282.421508,-531.807314 306.977322,-531.807314 L745.671396,-531.807314 C768.845518,-531.807314 787.008157,-512.667198 787.008157,-488.224972 L787.008157,-45.0633537 C787.008157,-20.3585549 768.079431,0.518220745 745.671396,0.518220745 L6.16973391,0.518220745 C-16.8083069,0.518220745 -36.963683,-20.7869619 -36.963683,-45.0633537 L-36.963683,-792.126703 C-36.963683,-814.772384 -18.422561,-831.853383 6.16973391,-831.853383 L6.16973391,-831.853383 Z" id="Fill-12" fill="url(#linearGradient-12)" mask="url(#mask-11)"></path>
                    </g>
                    <g id="Group-17" transform="translate(900.000000, 474.000000)">
                        <mask id="mask-14" fill="white">
                            <use xlink:href="#path-13"></use>
                        </mask>
                        <g id="Clip-16"></g>
                        <path d="M-244.080234,175.547809 C-219.624187,175.547809 -199.756241,195.198758 -199.756241,219.423832 C-199.756241,243.648906 -219.624187,263.299855 -244.080234,263.299855 C-268.563919,263.299855 -288.395014,243.648906 -288.395014,219.423832 C-288.395014,195.198758 -268.563919,175.547809 -244.080234,175.547809 Z M-4.49942473,-426.147937 C20.0026869,-426.147937 39.8337812,-406.506108 39.8337812,-382.281034 C39.8337812,-358.042279 20.0026869,-338.405011 -4.49942473,-338.405011 C-28.9416515,-338.405011 -48.8049915,-358.042279 -48.8049915,-382.281034 C-48.8049915,-406.506108 -28.9416515,-426.147937 -4.49942473,-426.147937 Z M-788.548571,-340.128858 L-86.758159,-340.128858 C-71.3032643,-310.677517 -40.2644924,-290.492995 -4.49942473,-290.492995 C46.6330135,-290.492995 88.2253365,-331.664676 88.2253365,-382.281034 C88.2253365,-432.883711 46.6330135,-474.055392 -4.49942473,-474.055392 C-43.2863734,-474.055392 -76.5408844,-450.327406 -90.3374296,-416.780786 L-788.548571,-416.780786 C-856.407305,-416.780786 -909.552795,-365.831516 -909.552795,-300.799597 L-909.552795,438.790267 C-909.552795,504.798121 -854.136288,560.57234 -788.548571,560.57234 L-41.5082544,560.57234 C24.2084451,560.57234 77.6809986,505.938232 77.6809986,438.790267 L77.6809986,0.0619571417 C77.6809986,-66.000622 24.2084451,-119.740884 -41.5082544,-119.740884 L-484.674479,-119.740884 C-552.339739,-119.740884 -609.511332,-64.878753 -609.511332,0.0619571417 L-609.511332,137.942395 C-609.511332,201.916291 -553.509796,253.955507 -484.674479,253.955507 L-329.927452,253.955507 C-316.107874,287.488446 -282.853363,311.20731 -244.080234,311.20731 C-192.947796,311.20731 -151.360079,270.03563 -151.360079,219.423832 C-151.360079,168.812034 -192.947796,127.635793 -244.080234,127.635793 C-279.859121,127.635793 -310.907106,147.838556 -326.352788,177.299019 L-484.674479,177.299019 C-507.472176,177.299019 -532.084844,162.249556 -532.084844,137.942395 L-532.084844,0.0619571417 C-532.084844,-22.5259177 -509.480621,-43.0843953 -484.674479,-43.0843953 L-41.5082544,-43.0843953 C-18.0978894,-43.0843953 0.249903547,-24.1357541 0.249903547,0.0619571417 L0.249903547,438.790267 C0.249903547,463.247924 -18.8717858,483.915852 -41.5082544,483.915852 L-788.548571,483.915852 C-811.760855,483.915852 -832.1217,462.823802 -832.1217,438.790267 L-832.1217,-300.799597 C-832.1217,-323.218735 -813.391565,-340.128858 -788.548571,-340.128858 L-788.548571,-340.128858 Z" id="Fill-15" fill="url(#linearGradient-15)" mask="url(#mask-14)"></path>
                    </g>
                    <g id="Group-20" transform="translate(421.000000, 354.000000)">
                        <mask id="mask-17" fill="white">
                            <use xlink:href="#path-16"></use>
                        </mask>
                        <g id="Clip-19"></g>
                        <path d="M238.396929,297.436941 C262.575691,297.436941 282.218374,317.207647 282.218374,341.580353 C282.218374,365.953059 262.575691,385.723765 238.396929,385.723765 C214.19084,385.723765 194.584592,365.953059 194.584592,341.580353 C194.584592,317.207647 214.19084,297.436941 238.396929,297.436941 Z M475.26136,-307.925647 C499.485666,-307.925647 519.091914,-288.164118 519.091914,-263.791412 C519.091914,-239.404941 499.485666,-219.648 475.26136,-219.648 C451.09626,-219.648 431.458132,-239.404941 431.458132,-263.791412 C431.458132,-288.164118 451.09626,-307.925647 475.26136,-307.925647 Z M-299.898203,-221.382353 L393.935279,-221.382353 C409.214945,-191.751529 439.901798,-171.444 475.26136,-171.444 C525.814057,-171.444 566.934804,-212.866588 566.934804,-263.791412 C566.934804,-314.702471 525.814057,-356.125059 475.26136,-356.125059 C436.91418,-356.125059 404.03671,-332.252471 390.39659,-298.501412 L-299.898203,-298.501412 C-366.987551,-298.501412 -419.530476,-247.241647 -419.530476,-181.813412 L-419.530476,562.283647 C-419.530476,628.693765 -364.742283,684.807882 -299.898203,684.807882 L438.672138,684.807882 C503.643739,684.807882 556.510018,629.840824 556.510018,562.283647 L556.510018,120.881647 C556.510018,54.4164706 503.643739,0.348705882 438.672138,0.348705882 L0.530551828,0.348705882 C-66.3675165,0.348705882 -122.890896,55.5451765 -122.890896,120.881647 L-122.890896,259.602353 C-122.890896,323.966118 -67.5243079,376.322471 0.530551828,376.322471 L153.52305,376.322471 C167.185941,410.059765 200.063411,433.923176 238.396929,433.923176 C288.949625,433.923176 330.065818,392.500588 330.065818,341.580353 C330.065818,290.660118 288.949625,249.232941 238.396929,249.232941 C203.023704,249.232941 172.327742,269.558824 157.057185,299.198824 L0.530551828,299.198824 C-22.0086639,299.198824 -46.3422727,284.057647 -46.3422727,259.602353 L-46.3422727,120.881647 C-46.3422727,98.1561176 -23.9943374,77.4723529 0.530551828,77.4723529 L438.672138,77.4723529 C461.817075,77.4723529 479.95684,96.5364706 479.95684,120.881647 L479.95684,562.283647 C479.95684,586.890353 461.051953,607.684235 438.672138,607.684235 L-299.898203,607.684235 C-322.847305,607.684235 -342.977298,586.463647 -342.977298,562.283647 L-342.977298,-181.813412 C-342.977298,-204.369176 -324.459526,-221.382353 -299.898203,-221.382353 L-299.898203,-221.382353 Z" id="Fill-18" fill="url(#linearGradient-18)" mask="url(#mask-17)"></path>
                    </g>
                    <g id="Group-23" transform="translate(296.000000, 474.000000)">
                        <mask id="mask-20" fill="white">
                            <use xlink:href="#path-19"></use>
                        </mask>
                        <g id="Clip-22"></g>
                        <path d="M362.393641,175.535497 C386.641289,175.535497 406.339933,195.18511 406.339933,219.408536 C406.339933,243.631962 386.641289,263.281575 362.393641,263.281575 C338.11859,263.281575 318.456484,243.631962 318.456484,219.408536 C318.456484,195.18511 338.11859,175.535497 362.393641,175.535497 Z M599.932895,-426.119319 C624.226215,-426.119319 643.888322,-406.478826 643.888322,-382.2554 C643.888322,-358.018294 624.226215,-338.382361 599.932895,-338.382361 C575.698949,-338.382361 556.004872,-358.018294 556.004872,-382.2554 C556.004872,-406.478826 575.698949,-426.119319 599.932895,-426.119319 Z M-177.435082,-340.106092 L518.375118,-340.106092 C533.698315,-310.656753 564.472595,-290.473605 599.932895,-290.473605 C650.629615,-290.473605 691.867515,-331.642485 691.867515,-382.2554 C691.867515,-432.854635 650.629615,-474.023515 599.932895,-474.023515 C561.476464,-474.023515 528.505327,-450.297143 514.826347,-416.752806 L-177.435082,-416.752806 C-244.715567,-416.752806 -297.408185,-365.807001 -297.408185,-300.779505 L-297.408185,438.760049 C-297.408185,504.763413 -242.463902,560.533838 -177.435082,560.533838 L563.239431,560.533838 C628.396135,560.533838 681.413029,505.903446 681.413029,438.760049 L681.413029,0.0615828105 C681.413029,-65.9965025 628.396135,-119.733109 563.239431,-119.733109 L123.849588,-119.733109 C56.7609284,-119.733109 0.0765146368,-64.8747098 0.0765146368,0.0615828105 L0.0765146368,137.932641 C0.0765146368,201.902186 55.6008413,253.937862 123.849588,253.937862 L277.277959,253.937862 C290.979775,287.46852 323.950912,311.185771 362.393641,311.185771 C413.090362,311.185771 454.323694,270.016891 454.323694,219.408536 C454.323694,168.800181 413.090362,127.626741 362.393641,127.626741 C326.919639,127.626741 296.136225,147.82813 280.822162,177.286588 L123.849588,177.286588 C101.246158,177.286588 76.8432238,162.23815 76.8432238,137.932641 L76.8432238,0.0615828105 C76.8432238,-22.5247555 99.2548278,-43.0818346 123.849588,-43.0818346 L563.239431,-43.0818346 C586.450308,-43.0818346 604.641753,-24.1344824 604.641753,0.0615828105 L604.641753,438.760049 C604.641753,463.216042 585.683006,483.882564 563.239431,483.882564 L-177.435082,483.882564 C-200.449566,483.882564 -220.636909,462.791949 -220.636909,438.760049 L-220.636909,-300.779505 C-220.636909,-323.197119 -202.06638,-340.106092 -177.435082,-340.106092 L-177.435082,-340.106092 Z" id="Fill-21" fill="url(#linearGradient-21)" mask="url(#mask-20)"></path>
                    </g>
                    <g id="Group-26" transform="translate(113.000000, 0.000000)">
                        <mask id="mask-23" fill="white">
                            <use xlink:href="#path-22"></use>
                        </mask>
                        <g id="Clip-25"></g>
                        <path d="M545.390411,650.042165 C569.610621,650.042165 589.286975,669.699504 589.286975,693.932456 C589.286975,718.165407 569.610621,737.822746 545.390411,737.822746 C521.142828,737.822746 501.50297,718.165407 501.50297,693.932456 C501.50297,669.699504 521.142828,650.042165 545.390411,650.042165 Z M782.660878,48.1507669 C806.926709,48.1507669 826.566567,67.7989823 826.566567,92.0319335 C826.566567,116.27857 806.926709,135.922224 782.660878,135.922224 C758.454354,135.922224 738.782562,116.27857 738.782562,92.0319335 C738.782562,67.7989823 758.454354,48.1507669 782.660878,48.1507669 Z M6.17252673,134.197816 L701.195387,134.197816 C716.501246,163.658734 747.240703,183.849819 782.660878,183.849819 C833.300233,183.849819 874.49147,142.664751 874.49147,92.0319335 C874.49147,41.4128021 833.300233,0.227733803 782.660878,0.227733803 C744.247962,0.227733803 711.314133,23.963435 697.650632,57.520963 L6.17252673,57.520963 C-61.0318275,57.520963 -113.664821,108.486801 -113.664821,173.539866 L-113.664821,913.370222 C-113.664821,979.39954 -58.7827102,1035.1919 6.17252673,1035.1919 L746.008934,1035.1919 C811.09191,1035.1919 864.048814,980.540021 864.048814,913.370222 L864.048814,474.499251 C864.048814,408.41519 811.09191,354.657454 746.008934,354.657454 L307.11628,354.657454 C240.103534,354.657454 183.483261,409.537424 183.483261,474.499251 L183.483261,612.424523 C183.483261,676.419221 238.94476,728.47536 307.11628,728.47536 L460.37104,728.47536 C474.057352,762.019202 506.991181,785.745779 545.390411,785.745779 C596.029765,785.745779 637.21644,744.560711 637.21644,693.932456 C637.21644,643.3042 596.029765,602.11457 545.390411,602.11457 C509.956549,602.11457 479.207968,622.323902 463.911233,651.793945 L307.11628,651.793945 C284.538427,651.793945 260.163106,636.739589 260.163106,612.424523 L260.163106,474.499251 C260.163106,451.904031 282.54935,431.338869 307.11628,431.338869 L746.008934,431.338869 C769.193547,431.338869 787.364407,450.293671 787.364407,474.499251 L787.364407,913.370222 C787.364407,937.835831 768.427114,958.51048 746.008934,958.51048 L6.17252673,958.51048 C-16.8159154,958.51048 -36.9804151,937.411572 -36.9804151,913.370222 L-36.9804151,173.539866 C-36.9804151,151.113438 -18.4309002,134.197816 6.17252673,134.197816 L6.17252673,134.197816 Z" id="Fill-24" fill="url(#linearGradient-24)" mask="url(#mask-23)"></path>
                    </g>
                    <g id="Group-29" transform="translate(420.000000, 602.000000)">
                        <mask id="mask-26" fill="white">
                            <use xlink:href="#path-25"></use>
                        </mask>
                        <g id="Clip-28"></g>
                        <path d="M239.392029,48.3927893 C263.671583,48.3927893 283.396148,68.0222674 283.396148,92.2208722 C283.396148,116.419477 263.671583,136.048955 239.392029,136.048955 C215.085035,136.048955 195.397056,116.419477 195.397056,92.2208722 C195.397056,68.0222674 215.085035,48.3927893 239.392029,48.3927893 Z M477.24385,-552.645522 C501.569136,-552.645522 521.257115,-533.025155 521.257115,-508.82655 C521.257115,-484.614279 501.569136,-464.998467 477.24385,-464.998467 C452.978015,-464.998467 433.258024,-484.614279 433.258024,-508.82655 C433.258024,-533.025155 452.978015,-552.645522 477.24385,-552.645522 Z M-301.147031,-466.720431 L395.578754,-466.720431 C410.922115,-437.301269 441.736888,-417.138802 477.24385,-417.138802 C528.007279,-417.138802 569.299442,-458.265497 569.299442,-508.82655 C569.299442,-559.373937 528.007279,-600.500632 477.24385,-600.500632 C438.736816,-600.500632 405.722293,-576.798572 392.025314,-543.288607 L-301.147031,-543.288607 C-368.516047,-543.288607 -421.278001,-492.395005 -421.278001,-427.434142 L-421.278001,311.34762 C-421.278001,377.283351 -366.261419,432.99663 -301.147031,432.99663 L440.502102,432.99663 C505.744543,432.99663 558.831199,378.422216 558.831199,311.34762 L558.831199,-126.90132 C558.831199,-192.891717 505.744543,-246.57326 440.502102,-246.57326 L0.534085855,-246.57326 C-66.6428527,-246.57326 -123.401855,-191.771074 -123.401855,-126.90132 L-123.401855,10.8284643 C-123.401855,74.7324604 -67.8044663,126.714817 0.534085855,126.714817 L154.164346,126.714817 C167.884192,160.211116 200.898715,183.904065 239.392029,183.904065 C290.155458,183.904065 331.443048,142.77737 331.443048,92.2208722 C331.443048,41.6643746 290.155458,0.533124157 239.392029,0.533124157 C203.871348,0.533124157 173.047427,20.713813 157.713213,50.142086 L0.534085855,50.142086 C-22.0990865,50.142086 -46.5341319,35.1090673 -46.5341319,10.8284643 L-46.5341319,-126.90132 C-46.5341319,-149.464515 -24.0930374,-170.000529 0.534085855,-170.000529 L440.502102,-170.000529 C463.743521,-170.000529 481.958903,-151.072592 481.958903,-126.90132 L481.958903,311.34762 C481.958903,335.778553 462.97521,356.423899 440.502102,356.423899 L-301.147031,356.423899 C-324.191799,356.423899 -344.405705,335.354895 -344.405705,311.34762 L-344.405705,-427.434142 C-344.405705,-449.828785 -325.810741,-466.720431 -301.147031,-466.720431 L-301.147031,-466.720431 Z" id="Fill-27" fill="url(#linearGradient-27)" mask="url(#mask-26)"></path>
                    </g>
                </g>
                <path d="M149.648,1360.582 L149.648,1334.314 C144.871976,1340.15136 139.698028,1344.86098 134.126,1348.443 C128.553972,1352.02502 123.181026,1354.74466 118.007,1356.602 C112.832974,1358.45934 107.990689,1359.65333 103.48,1360.184 C98.9693108,1360.71467 95.1220159,1360.98 91.938,1360.98 C76.2832551,1360.98 62.6850577,1358.45936 51.143,1353.418 C39.6009423,1348.37664 30.0490378,1341.34538 22.487,1332.324 C14.9249622,1323.30262 9.28668524,1312.4904 5.572,1299.887 C1.85731476,1287.2836 0,1273.55274 0,1258.694 C0,1226.58851 7.9599204,1201.71375 23.88,1184.069 C39.8000796,1166.42425 62.4858527,1157.602 91.938,1157.602 C104.674064,1157.602 116.01695,1159.79098 125.967,1164.169 C135.91705,1168.54702 143.943303,1175.24662 150.046,1184.268 L150.046,1161.582 L181.09,1161.582 L181.09,1361.776 C181.09,1374.24673 178.967355,1385.32428 174.722,1395.009 C170.476645,1404.69372 164.573038,1412.91897 157.011,1419.685 C149.448962,1426.45103 140.427719,1431.62498 129.947,1435.207 C119.466281,1438.78902 108.123394,1440.58 95.918,1440.58 C68.58853,1440.58 47.693739,1435.93671 33.233,1426.65 C18.772261,1417.36329 10.0826813,1401.31078 7.164,1378.492 L40.198,1378.492 C42.3206773,1389.63606 47.4282929,1398.32564 55.521,1404.561 C63.6137071,1410.79636 75.6199204,1413.914 91.54,1413.914 C99.5000398,1413.914 107.061964,1412.78634 114.226,1410.531 C121.390036,1408.27566 127.558974,1404.89269 132.733,1400.382 C137.907026,1395.87131 142.019651,1390.29937 145.071,1383.666 C148.122349,1377.03263 149.648,1369.33804 149.648,1360.582 Z M92.734,1183.472 C82.6512829,1183.472 73.8290378,1185.32931 66.267,1189.044 C58.7049622,1192.75869 52.4696912,1197.99897 47.561,1204.765 C42.6523088,1211.53103 38.9376793,1219.49095 36.417,1228.645 C33.8963207,1237.79905 32.636,1247.94794 32.636,1259.092 C32.636,1270.23606 33.8963207,1280.38495 36.417,1289.539 C38.9376793,1298.69305 42.7186415,1306.58663 47.76,1313.22 C52.8013585,1319.85337 59.1029622,1325.02731 66.665,1328.742 C74.2270378,1332.45669 83.0492829,1334.314 93.132,1334.314 C103.480052,1334.314 112.302297,1332.12502 119.599,1327.747 C126.895703,1323.36898 132.865643,1317.66437 137.509,1310.633 C142.152357,1303.60163 145.535323,1295.57538 147.658,1286.554 C149.780677,1277.53262 150.842,1268.37871 150.842,1259.092 C150.842,1249.80529 149.780677,1240.65138 147.658,1231.63 C145.535323,1222.60862 142.152357,1214.51604 137.509,1207.352 C132.865643,1200.18796 126.82937,1194.41702 119.4,1190.039 C111.97063,1185.66098 103.082052,1183.472 92.734,1183.472 Z M373.722,1357 L373.722,1330.334 C367.353968,1339.09004 358.598056,1346.45297 347.454,1352.423 C336.309944,1358.39303 324.635394,1361.378 312.43,1361.378 C287.488542,1361.378 267.854072,1355.87239 253.526,1344.861 C239.197928,1333.84961 232.034,1315.87346 232.034,1290.932 L232.034,1161.582 L263.476,1161.582 L263.476,1286.156 C263.476,1293.85071 264.868986,1300.68297 267.655,1306.653 C270.441014,1312.62303 274.288309,1317.73065 279.197,1321.976 C284.105691,1326.22135 289.876634,1329.40532 296.51,1331.528 C303.143366,1333.65068 310.307295,1334.712 318.002,1334.712 C334.187414,1334.712 347.321283,1329.93605 357.404,1320.384 C367.486717,1310.83195 372.528,1297.69808 372.528,1280.982 L372.528,1161.582 L403.97,1161.582 L403.97,1357 L373.722,1357 Z M603.766,1187.452 C616.236729,1167.28657 636.667191,1157.204 665.058,1157.204 C691.060797,1157.204 709.633944,1162.90861 720.778,1174.318 C731.922056,1185.72739 737.494,1203.50455 737.494,1227.65 L737.494,1357 L706.052,1357 L706.052,1232.426 C706.052,1215.70992 702.138372,1203.43837 694.311,1195.611 C686.483628,1187.78363 674.87541,1183.87 659.486,1183.87 C644.09659,1183.87 632.355707,1188.38062 624.263,1197.402 C616.170293,1206.42338 612.124,1219.82258 612.124,1237.6 L612.124,1357 L580.682,1357 L580.682,1232.426 C580.682,1215.70992 576.768372,1203.43837 568.941,1195.611 C561.113628,1187.78363 549.50541,1183.87 534.116,1183.87 C502.275841,1183.87 486.356,1201.77982 486.356,1237.6 L486.356,1357 L454.914,1357 L454.914,1161.582 L485.162,1161.582 L485.162,1183.87 C491.530032,1175.37929 499.224622,1168.81236 508.246,1164.169 C517.267378,1159.52564 527.74794,1157.204 539.688,1157.204 C558.261426,1157.204 572.390285,1159.85731 582.075,1165.164 C591.759715,1170.47069 598.989976,1177.89995 603.766,1187.452 Z M922.564,1225.262 C918.849315,1211.4646 912.481378,1201.05037 903.46,1194.019 C894.438622,1186.98763 883.162068,1183.472 869.63,1183.472 C859.016614,1183.472 849.929038,1185.52831 842.367,1189.641 C834.804962,1193.75369 828.569691,1199.32563 823.661,1206.357 C818.752309,1213.38837 815.170345,1221.48095 812.915,1230.635 C810.659655,1239.78905 809.532,1249.40728 809.532,1259.49 C809.532,1269.57272 810.659655,1279.12462 812.915,1288.146 C815.170345,1297.16738 818.752309,1305.1273 823.661,1312.026 C828.569691,1318.9247 834.804962,1324.36398 842.367,1328.344 C849.929038,1332.32402 859.016614,1334.314 869.63,1334.314 C886.611418,1334.314 899.347291,1329.93604 907.838,1321.18 C916.328709,1312.42396 921.767988,1300.61674 924.156,1285.758 L957.986,1285.758 C954.536649,1310.69946 945.11741,1329.53794 929.728,1342.274 C914.33859,1355.01006 894.306123,1361.378 869.63,1361.378 C839.116514,1361.378 816.099078,1352.48942 800.577,1334.712 C785.054922,1316.93458 777.294,1291.72816 777.294,1259.092 C777.294,1243.96792 779.084982,1230.23706 782.667,1217.899 C786.249018,1205.56094 791.820962,1194.88138 799.383,1185.86 C806.945038,1176.83862 816.563275,1169.87369 828.238,1164.965 C839.912725,1160.05631 853.70992,1157.602 869.63,1157.602 C881.03939,1157.602 891.652618,1159.19398 901.47,1162.378 C911.287382,1165.56202 919.976962,1170.07264 927.539,1175.91 C935.101038,1181.74736 941.402641,1188.84496 946.444,1197.203 C951.485359,1205.56104 954.934657,1214.91395 956.792,1225.262 L922.564,1225.262 Z M1122.758,1278.992 L1122.758,1267.45 L1063.058,1269.44 C1048.72993,1269.97067 1037.98404,1272.88931 1030.82,1278.196 C1023.65596,1283.50269 1020.074,1291.72794 1020.074,1302.872 C1020.074,1312.15871 1024.12029,1319.72064 1032.213,1325.558 C1040.30571,1331.39536 1050.71994,1334.314 1063.456,1334.314 C1072.21204,1334.314 1080.2383,1332.85468 1087.535,1329.936 C1094.8317,1327.01732 1101.06697,1323.03736 1106.241,1317.996 C1111.41503,1312.95464 1115.46132,1307.11737 1118.38,1300.484 C1121.29868,1293.85063 1122.758,1286.68671 1122.758,1278.992 Z M1126.34,1357 C1125.80933,1355.40799 1125.41133,1353.28535 1125.146,1350.632 C1124.88067,1348.50932 1124.68167,1345.72335 1124.549,1342.274 C1124.41633,1338.82465 1124.35,1334.44669 1124.35,1329.14 C1119.04331,1337.89604 1111.01705,1345.39164 1100.271,1351.627 C1089.52495,1357.86236 1076.72274,1360.98 1061.864,1360.98 C1052.84262,1360.98 1043.95404,1359.91868 1035.198,1357.796 C1026.44196,1355.67332 1018.54837,1352.29036 1011.517,1347.647 C1004.48563,1343.00364 998.847355,1337.0337 994.602,1329.737 C990.356645,1322.4403 988.234,1313.48539 988.234,1302.872 C988.234,1293.05462 990.422978,1284.4977 994.801,1277.201 C999.179022,1269.9043 1004.88363,1263.86802 1011.915,1259.092 C1018.94637,1254.31598 1026.77362,1250.66768 1035.397,1248.147 C1044.02038,1245.62632 1052.57729,1244.23333 1061.068,1243.968 L1122.36,1241.978 L1122.36,1225.262 C1122.36,1210.13792 1118.38004,1199.45836 1110.42,1193.223 C1102.45996,1186.98764 1091.31607,1183.87 1076.988,1183.87 C1062.12926,1183.87 1051.2507,1186.7223 1044.352,1192.427 C1037.4533,1198.1317 1032.54468,1206.68861 1029.626,1218.098 L996.99,1218.098 C997.255335,1210.66863 999.112649,1203.3057 1002.562,1196.009 C1006.01135,1188.7123 1011.05263,1182.14536 1017.686,1176.308 C1024.31937,1170.47064 1032.54462,1165.82735 1042.362,1162.378 C1052.17938,1158.92865 1063.72127,1157.204 1076.988,1157.204 C1091.58141,1157.204 1103.72028,1159.12765 1113.405,1162.975 C1123.08972,1166.82235 1130.91697,1172.26163 1136.887,1179.293 C1142.85703,1186.32437 1147.10232,1194.81495 1149.623,1204.765 C1152.14368,1214.71505 1153.404,1225.65994 1153.404,1237.6 L1153.404,1329.538 C1153.404,1334.57936 1153.47033,1338.82465 1153.603,1342.274 C1153.73567,1345.72335 1153.93467,1348.50932 1154.2,1350.632 C1154.46533,1353.28535 1154.86333,1355.40799 1155.394,1357 L1126.34,1357 Z M1306.236,1214.914 C1305.44,1204.30061 1301.19471,1196.40703 1293.5,1191.233 C1285.80529,1186.05897 1275.72273,1183.472 1263.252,1183.472 C1257.94531,1183.472 1252.90402,1184.00266 1248.128,1185.064 C1243.35198,1186.12534 1239.10669,1187.78366 1235.392,1190.039 C1231.67731,1192.29434 1228.69234,1195.14665 1226.437,1198.596 C1224.18166,1202.04535 1223.054,1206.15798 1223.054,1210.934 C1223.054,1220.22071 1226.03897,1227.05298 1232.009,1231.431 C1237.97903,1235.80902 1245.34196,1239.05932 1254.098,1241.182 C1262.85404,1243.30468 1272.47228,1245.09566 1282.953,1246.555 C1293.43372,1248.01434 1303.05196,1250.60131 1311.808,1254.316 C1320.56404,1258.03069 1327.92697,1263.60263 1333.897,1271.032 C1339.86703,1278.46137 1342.852,1289.20726 1342.852,1303.27 C1342.852,1314.14872 1340.53036,1323.30263 1335.887,1330.732 C1331.24364,1338.16137 1325.20737,1344.13131 1317.778,1348.642 C1310.34863,1353.15269 1302.18971,1356.40299 1293.301,1358.393 C1284.41229,1360.38301 1275.59004,1361.378 1266.834,1361.378 C1255.15927,1361.378 1244.54605,1360.05135 1234.994,1357.398 C1225.44195,1354.74465 1217.15037,1350.89736 1210.119,1345.856 C1203.08763,1340.81464 1197.64835,1334.57937 1193.801,1327.15 C1189.95365,1319.72063 1188.03,1311.36271 1188.03,1302.076 L1219.87,1302.076 C1222.52335,1324.36411 1238.17786,1335.508 1266.834,1335.508 C1271.87536,1335.508 1277.04931,1335.04367 1282.356,1334.115 C1287.66269,1333.18633 1292.50498,1331.52801 1296.883,1329.14 C1301.26102,1326.75199 1304.84299,1323.43535 1307.629,1319.19 C1310.41501,1314.94465 1311.808,1309.50537 1311.808,1302.872 C1311.808,1294.11596 1308.88936,1287.74802 1303.052,1283.768 C1297.21464,1279.78798 1289.85171,1276.80301 1280.963,1274.813 C1272.07429,1272.82299 1262.45605,1271.09834 1252.108,1269.639 C1241.75995,1268.17966 1232.14171,1265.59269 1223.253,1261.878 C1214.36429,1258.16331 1207.00136,1252.79037 1201.164,1245.759 C1195.32664,1238.72763 1192.408,1228.44607 1192.408,1214.914 C1192.408,1204.83128 1194.33165,1196.20804 1198.179,1189.044 C1202.02635,1181.87996 1207.2003,1175.97636 1213.701,1171.333 C1220.2017,1166.68964 1227.76362,1163.24034 1236.387,1160.985 C1245.01038,1158.72966 1254.09795,1157.602 1263.65,1157.602 C1274.26339,1157.602 1284.01429,1158.92865 1292.903,1161.582 C1301.79171,1164.23535 1309.41997,1168.01631 1315.788,1172.925 C1322.15603,1177.83369 1327.13098,1183.80363 1330.713,1190.835 C1334.29502,1197.86637 1336.086,1205.89262 1336.086,1214.914 L1306.236,1214.914 Z M1392.204,1187.452 L1361.558,1187.452 L1361.558,1161.582 L1392.204,1161.582 L1392.204,1104.27 L1423.646,1104.27 L1423.646,1161.582 L1471.804,1161.582 L1471.804,1187.452 L1423.646,1187.452 L1423.646,1305.26 C1423.646,1314.81205 1425.63598,1321.84331 1429.616,1326.354 C1433.59602,1330.86469 1440.36195,1333.12 1449.914,1333.12 C1452.03668,1333.12 1454.35832,1333.05367 1456.879,1332.921 C1459.39968,1332.78833 1461.72132,1332.58933 1463.844,1332.324 C1466.49735,1332.05867 1469.01799,1331.66067 1471.406,1331.13 L1471.406,1357 C1469.28332,1357.53067 1466.76268,1357.92867 1463.844,1358.194 C1460.92532,1358.45933 1458.07301,1358.72467 1455.287,1358.99 C1452.50099,1359.25533 1449.84768,1359.388 1447.327,1359.388 L1441.158,1359.388 C1424.70725,1359.388 1412.43571,1354.74471 1404.343,1345.458 C1396.25029,1336.17129 1392.204,1323.70074 1392.204,1308.046 L1392.204,1187.452 Z" id="gumcast" fill="#000000" fill-rule="nonzero"></path>
            </g>
        </g>
    </g>
</svg>