<?xml version="1.0" encoding="UTF-8"?>
<svg width="268px" height="268px" viewBox="0 0 268 268" version="1.1" xmlns="http://www.w3.org/2000/svg" xmlns:xlink="http://www.w3.org/1999/xlink">
    <!-- Generator: Sketch 57.1 (83088) - https://sketch.com -->
    <title>Group</title>
    <desc>Created with Sketch.</desc>
    <g id="Page-2" stroke="none" stroke-width="1" fill="none" fill-rule="evenodd">
        <g id="Group" transform="translate(2.000000, 2.000000)">
            <path d="M131.988,263.974 C204.882,263.974 263.975,204.882 263.975,131.987 C263.975,59.092 204.882,0 131.988,0 C59.093,0 0,59.092 0,131.987 C0,204.882 59.093,263.974 131.988,263.974" id="Fill-1" fill="#FFFFFE"></path>
            <path d="M131.988,263.974 C204.882,263.974 263.975,204.882 263.975,131.987 C263.975,59.092 204.882,0 131.988,0 C59.093,0 0,59.092 0,131.987 C0,204.882 59.093,263.974 131.988,263.974 Z" id="Stroke-2" stroke="#005F44" stroke-width="2.237"></path>
            <path d="M131.988,257.233 C201.159,257.233 257.234,201.158 257.234,131.987 C257.234,62.815 201.159,6.74 131.988,6.74 C62.816,6.74 6.741,62.815 6.741,131.987 C6.741,201.158 62.816,257.233 131.988,257.233" id="Fill-3" fill="#005F44"></path>
            <path d="M38.3449914,189.582 C38.3449914,188.612 39.135,187.83 40.104,187.83 C41.074,187.834 41.856,188.623 41.8540038,189.592 C41.849,190.558 41.063,191.342 40.095,191.338015 C39.126,191.334 38.342,190.55 38.3449914,189.582" id="Fill-4" fill="#FFFFFE"></path>
            <path d="M221.690996,189.14 C221.690996,188.167 222.483,187.393 223.447,187.393 C224.417,187.393 225.198,188.181 225.198,189.148 C225.194,190.118 224.405,190.897 223.439,190.897 C222.47,190.897 221.689,190.111 221.690996,189.14" id="Fill-5" fill="#FFFFFE"></path>
            <path d="M26.242,162.118 L29.806,160.815 C33.345,159.522 35.457,158.695 36.142,158.334 C36.937,157.915 37.258,157.421 37.104,156.851 L37.435,156.73 C37.723,157.516 38.031,158.358 38.36,159.259 C38.696,160.176 39.03,161.091 39.366,162.008 L39.034,162.13 C38.783,161.592 38.25,161.407 37.435,161.575 C36.764,161.728 34.876,162.373 31.771,163.507 L30.44,163.994 L33.706,172.93 L35.037,172.443 C38.143,171.307 39.997,170.574 40.604,170.244 C41.336,169.849 41.628,169.378 41.485,168.83 L41.815,168.71 C42.133,169.577 42.452,170.453 42.775,171.337 C43.145,172.351 43.463,173.218 43.726,173.939 L43.396,174.06 C43.148,173.533 42.585,173.365 41.706,173.555 C40.956,173.737 38.81,174.473 35.271,175.767 L31.708,177.07 C28.398,178.279 26.423,179.05 25.78,179.377 C25.014,179.771 24.702,180.238 24.846,180.784 L24.515,180.906 C24.264,180.22 23.951,179.359 23.573,178.329 C23.232,177.396 22.927,176.562 22.657,175.824 L22.988,175.703 C23.213,176.165 23.722,176.317 24.515,176.152 C25.166,176.005 27.002,175.38 30.026,174.274 L31.179,173.852 L27.912,164.918 L26.736,165.349 C23.729,166.448 21.93,167.152 21.338,167.461 C20.622,167.834 20.326,168.266 20.449,168.756 L20.117,168.877 C19.849,168.142 19.541,167.298 19.194,166.349 C18.859,165.432 18.566,164.631 18.315,163.944 L18.646,163.822 C18.861,164.257 19.387,164.378 20.224,164.18 C20.927,164.017 22.933,163.329 26.242,162.118" id="Fill-6" fill="#FFFFFE"></path>
            <path d="M28.197,155.233 L24.604,155.75 C21.106,156.252 19.019,156.593 18.341,156.778 C17.512,157.001 17.109,157.381 17.134,157.916 L16.785,157.965 C16.658,157.091 16.527,156.182 16.39,155.237 C16.264,154.362 16.135,153.478 16.006,152.587 L16.355,152.536 C16.484,153.068 16.98,153.334 17.842,153.334 C18.56,153.32 20.658,153.064 24.137,152.564 L27.649,152.061 C29.561,151.785 30.961,151.199 31.85,150.3 C32.831,149.301 33.199,147.968 32.958,146.301 C32.734,144.755 32.033,143.62 30.856,142.894 C29.76,142.245 28.196,142.065 26.163,142.356 L22.729,142.85 C19.233,143.35 17.147,143.694 16.471,143.878 C15.629,144.122 15.229,144.528 15.276,145.098 L14.928,145.147 C14.781,144.136 14.652,143.252 14.543,142.498 C14.404,141.536 14.281,140.687 14.174,139.949 L14.523,139.899 C14.628,140.38 15.118,140.611 15.996,140.591 C16.714,140.576 18.815,140.32 22.295,139.821 L25.708,139.331 C28.448,138.938 30.662,139.234 32.353,140.217 C34.389,141.396 35.597,143.289 35.974,145.897 C36.405,148.864 35.673,151.219 33.779,152.961 C32.523,154.123 30.662,154.88 28.197,155.233" id="Fill-7" fill="#FFFFFE"></path>
            <path d="M25.685,133.627 L13.842,131.147 L13.879,130.678 L29.42,123.96 L29.423,123.907 C28.519,123.417 23.758,120.341 15.141,114.68 L15.178,114.21 L27.259,113.695 C30.994,113.536 33.279,113.392 34.11,113.266 C35.031,113.129 35.526,112.828 35.598,112.36 L35.95,112.389 C35.887,113.187 35.82,114.03 35.75,114.916 C35.675,115.872 35.6,116.818 35.526,117.756 L35.176,117.728 C35.172,117.117 34.699,116.773 33.759,116.7 C33.186,116.654 31.642,116.68 29.131,116.78 C26.182,116.879 24.115,116.909 22.927,116.867 L22.924,116.892 C24.014,117.486 25.884,118.603 28.532,120.246 C29.684,120.949 31.712,122.28 34.616,124.239 L34.577,124.734 C31.276,126.257 29.037,127.259 27.863,127.744 C25.137,128.857 23.135,129.634 21.858,130.074 L21.857,130.101 C22.931,130.239 24.977,130.601 27.994,131.19 C30.393,131.639 31.896,131.889 32.504,131.938 C33.479,132.014 34.016,131.752 34.116,131.147 L34.468,131.175 C34.395,132.096 34.321,133.024 34.247,133.962 C34.179,134.831 34.116,135.629 34.059,136.36 L33.706,136.331 C33.691,135.858 33.258,135.479 32.407,135.193 C31.554,134.907 29.315,134.385 25.685,133.627" id="Fill-8" fill="#FFFFFE"></path>
            <path d="M34.817,97.022 L34.843,97.029 C36.751,97.586 37.982,98.808 38.538,100.695 C38.969,102.146 38.849,104.016 38.181,106.306 C38.093,106.608 37.965,107.005 37.798,107.502 C37.607,108.081 37.478,108.487 37.409,108.72 L36.816,110.753 L36.446,110.646 C36.563,110.122 36.21,109.685 35.385,109.336 C34.691,109.043 32.537,108.369 28.924,107.314 L25.287,106.252 C21.907,105.265 19.873,104.707 19.185,104.579 C18.354,104.444 17.845,104.601 17.659,105.05 L17.314,104.95 C17.397,104.666 17.592,103.972 17.896,102.867 C18.415,100.937 18.656,100.037 18.617,100.171 C18.968,98.97 19.41,97.968 19.944,97.164 C20.478,96.361 21.165,95.765 22.004,95.377 C23.089,94.897 24.276,94.846 25.565,95.221 C26.635,95.534 27.476,96.122 28.088,96.983 C28.698,97.845 28.977,98.772 28.924,99.762 L28.973,99.777 C29.477,98.673 30.272,97.85 31.358,97.304 C32.443,96.76 33.596,96.666 34.817,97.022 Z M24.98,98.32 L24.956,98.314 C24.052,98.05 23.264,98.137 22.591,98.574 C21.919,99.011 21.446,99.698 21.174,100.632 C21.067,100.999 20.98,101.391 20.914,101.806 L26.72,103.5 C26.788,103.304 26.858,103.079 26.931,102.828 C27.102,102.245 27.18,101.698 27.166,101.186 C27.13,99.691 26.402,98.736 24.98,98.32 Z M33.732,100.076 L33.706,100.069 C32.635,99.755 31.696,99.953 30.889,100.661 C30.22,101.265 29.722,102.126 29.395,103.248 C29.293,103.598 29.212,103.919 29.15,104.21 L34.875,105.88 C35.159,105.965 35.344,105.955 35.428,105.852 C35.548,105.634 35.675,105.289 35.812,104.821 C36.025,104.085 36.084,103.358 35.985,102.639 C35.774,101.307 35.024,100.452 33.732,100.076 L33.732,100.076 Z" id="Fill-9" fill="#FFFFFE"></path>
            <path d="M41.124,73.329 L41.147,73.341 C43.841,74.729 45.63,76.793 46.517,79.531 C47.404,82.268 47.134,85.01 45.711,87.759 C44.36,90.37 42.326,92.119 39.61,93.007 C36.895,93.897 34.236,93.669 31.636,92.328 C28.912,90.923 27.139,88.839 26.314,86.075 C25.491,83.311 25.789,80.556 27.213,77.806 C28.572,75.18 30.573,73.439 33.215,72.58 C35.857,71.721 38.492,71.971 41.124,73.329 Z M39.743,76.431 L39.721,76.419 C37.817,75.436 35.899,75.219 33.967,75.768 C32.035,76.317 30.602,77.494 29.667,79.298 C28.707,81.152 28.564,83.019 29.236,84.901 C29.909,86.783 31.221,88.228 33.171,89.233 C35.106,90.231 37.04,90.457 38.97,89.908 C40.903,89.36 42.339,88.175 43.284,86.354 C44.235,84.517 44.379,82.66 43.713,80.782 C43.047,78.904 41.724,77.453 39.743,76.431 L39.743,76.431 Z" id="Fill-10" fill="#FFFFFE"></path>
            <path d="M45.684,70.661 L42.688,68.338 C39.92,66.192 38.226,64.934 37.609,64.565 C36.883,64.135 36.322,64.118 35.927,64.515 L35.622,64.28 C36.082,63.687 36.642,62.964 37.303,62.11 C37.912,61.326 38.457,60.623 38.938,60.003 L39.242,60.239 C38.994,60.701 39.156,61.231 39.729,61.829 C40.256,62.345 41.897,63.672 44.651,65.807 L51.944,71.462 C52.179,71.643 52.387,71.618 52.569,71.384 L55.207,67.979 C55.601,67.471 55.829,67.013 55.888,66.608 C55.948,66.202 55.837,65.837 55.558,65.508 L55.775,65.231 C56.943,66.202 57.955,67.032 58.813,67.719 L51.773,76.801 L51.444,76.546 C51.745,76.074 51.574,75.524 50.935,74.898 C50.41,74.38 48.66,72.968 45.684,70.661" id="Fill-11" fill="#FFFFFE"></path>
            <path d="M66.248,45.978 L66.266,45.997 C68.704,48.701 69.643,51.679 69.082,54.929 C68.678,57.264 67.261,59.529 64.83,61.722 C64.571,61.956 64.184,62.282 63.672,62.701 C63.042,63.227 62.65,63.559 62.495,63.699 L60.536,65.466 L60.3,65.206 C60.696,64.778 60.64,64.194 60.136,63.45 C59.711,62.848 58.235,61.148 55.711,58.35 L53.17,55.534 C50.821,52.932 49.381,51.4 48.848,50.94 C48.221,50.403 47.681,50.303 47.228,50.639 L46.959,50.344 C47.401,49.922 48.081,49.272 49.002,48.393 C50.68,46.822 51.487,46.065 51.422,46.123 C53.503,44.243 55.548,43.104 57.555,42.701 C59.125,42.386 60.689,42.536 62.249,43.145 C63.736,43.728 65.07,44.671 66.248,45.978 Z M63.899,48.395 L63.88,48.374 C62.142,46.447 60.157,45.599 57.927,45.825 C56.429,45.981 54.93,46.734 53.432,48.085 C53.007,48.469 52.535,48.932 52.013,49.472 L61.662,60.163 C61.837,60.358 62.072,60.352 62.365,60.145 C62.659,59.94 63.012,59.65 63.426,59.277 C64.961,57.891 65.847,56.354 66.079,54.665 C66.376,52.425 65.649,50.335 63.899,48.395 L63.899,48.395 Z" id="Fill-12" fill="#FFFFFE"></path>
            <path d="M75.4,42.633 L70.561,34.749 L67.368,36.709 C66.773,37.075 66.395,37.418 66.233,37.737 C66.071,38.058 66.073,38.47 66.238,38.971 L65.91,39.172 L63.836,35.794 L77.213,27.584 L79.286,30.962 L78.986,31.147 C78.596,30.743 78.191,30.549 77.773,30.564 C77.449,30.601 77.014,30.789 76.467,31.124 L73.291,33.073 L78.129,40.958 C80.108,44.18 81.34,46.09 81.829,46.691 C82.406,47.4 82.94,47.614 83.431,47.332 L83.616,47.633 C82.769,48.151 81.982,48.636 81.254,49.082 C80.407,49.601 79.613,50.088 78.871,50.545 L78.687,50.245 C79.141,49.883 79.194,49.299 78.842,48.492 C78.516,47.794 77.369,45.84 75.4,42.633" id="Fill-13" fill="#FFFFFE"></path>
            <path d="M104.859,32.959 L104.869,32.985 C105.364,34.492 105.238,35.919 104.49,37.267 C103.675,38.691 102.318,39.716 100.417,40.34 C98.945,40.824 97.628,40.998 96.466,40.864 C96.156,39.692 95.785,38.392 95.354,36.964 L95.687,36.854 C96.408,38.044 97.662,38.347 99.446,37.76 C100.354,37.462 101.027,36.979 101.467,36.311 C101.907,35.645 101.992,34.905 101.726,34.092 C101.405,33.115 100.613,32.385 99.354,31.9 C98.737,31.699 97.782,31.362 96.489,30.886 C94.222,30.072 92.789,28.754 92.191,26.932 C91.704,25.458 91.839,24.033 92.587,22.659 C93.336,21.284 94.629,20.293 96.466,19.689 C97.575,19.325 98.589,19.147 99.51,19.155 C99.771,20.113 100.141,21.371 100.619,22.934 L100.285,23.043 C100.008,22.536 99.603,22.225 99.072,22.107 C98.612,21.987 98.059,22.033 97.414,22.244 C96.539,22.531 95.901,22.999 95.502,23.643 C95.101,24.29 95.026,24.994 95.276,25.755 C95.549,26.584 96.168,27.216 97.134,27.652 C98.65,28.255 100.161,28.85 101.672,29.436 C103.284,30.228 104.348,31.402 104.859,32.959" id="Fill-14" fill="#FFFFFE"></path>
            <path d="M112.811,27.966 L111.278,18.844 L107.583,19.465 C106.894,19.58 106.415,19.757 106.145,19.994 C105.874,20.23 105.722,20.613 105.687,21.139 L105.308,21.203 L104.65,17.294 L120.128,14.693 L120.786,18.601 L120.439,18.659 C120.228,18.138 119.924,17.808 119.531,17.665 C119.218,17.579 118.743,17.589 118.11,17.696 L114.435,18.313 L115.969,27.436 C116.597,31.164 117.024,33.398 117.252,34.136 C117.521,35.01 117.936,35.408 118.496,35.332 L118.554,35.68 C117.574,35.844 116.664,35.997 115.823,36.138 C114.843,36.303 113.923,36.458 113.065,36.602 L113.007,36.254 C113.564,36.09 113.831,35.568 113.808,34.689 C113.767,33.919 113.434,31.679 112.811,27.966" id="Fill-15" fill="#FFFFFE"></path>
            <path d="M134.374,29.78 L127.498,29.84 C126.595,32.123 126.146,33.474 126.15,33.893 C126.153,34.26 126.364,34.459 126.782,34.492 L126.785,34.844 C125.722,34.852 124.833,34.861 124.119,34.867 C123.144,34.875 122.308,34.883 121.61,34.89 L121.607,34.537 C122.007,34.482 122.434,34.01 122.889,33.126 C123.342,32.241 124.311,29.953 125.796,26.26 L130.758,14.053 L131.282,14.046 L136.33,26.193 C137.858,29.86 138.847,32.128 139.291,32.995 C139.733,33.862 140.146,34.322 140.53,34.371 L140.534,34.723 C139.855,34.729 139.025,34.737 138.051,34.744 C137.265,34.752 136.289,34.76 135.124,34.771 L135.12,34.417 C135.537,34.379 135.745,34.176 135.743,33.809 C135.739,33.407 135.282,32.063 134.374,29.78 Z M128.418,27.334 L133.437,27.289 L133.411,27.211 C131.893,23.245 131.071,21.01 130.945,20.504 L130.894,20.505 C130.792,20.907 129.967,23.158 128.418,27.255 L128.418,27.334 L128.418,27.334 Z" id="Fill-16" fill="#FFFFFE"></path>
            <path d="M146.251,27.198 L147.632,18.051 L143.928,17.491 C143.238,17.386 142.726,17.405 142.397,17.545 C142.064,17.687 141.802,18.002 141.605,18.492 L141.224,18.434 L141.816,14.516 L157.334,16.86 L156.743,20.779 L156.394,20.727 C156.355,20.165 156.173,19.756 155.841,19.5 C155.571,19.318 155.117,19.182 154.482,19.086 L150.799,18.529 L149.418,27.675 C148.853,31.414 148.562,33.67 148.55,34.443 C148.535,35.357 148.802,35.864 149.362,35.967 L149.307,36.315 C148.326,36.166 147.411,36.029 146.569,35.902 C145.586,35.753 144.665,35.612 143.804,35.483 L143.857,35.135 C144.437,35.152 144.853,34.739 145.105,33.896 C145.306,33.152 145.688,30.919 146.251,27.198" id="Fill-17" fill="#FFFFFE"></path>
            <path d="M159.078,29.655 L160.214,26.034 C161.27,22.671 161.87,20.639 162.015,19.935 C162.173,19.087 162.02,18.565 161.564,18.367 L161.671,18.031 C164.081,18.788 165.743,19.308 166.657,19.596 C168.52,20.179 170.416,20.772 172.344,21.378 C171.875,22.725 171.457,23.951 171.095,25.056 L170.758,24.952 C170.845,24.387 170.613,23.929 170.069,23.579 C169.768,23.378 169.239,23.157 168.475,22.917 L164.901,21.795 L163.079,27.602 L166.226,28.59 C167.156,28.882 167.787,29.044 168.115,29.075 C168.443,29.104 168.693,28.995 168.863,28.741 L169.169,28.837 C168.93,29.602 168.743,30.2 168.608,30.633 C168.452,31.131 168.239,31.805 167.974,32.653 L167.669,32.557 C167.685,32.214 167.554,31.954 167.271,31.775 C166.993,31.595 166.396,31.362 165.486,31.077 L162.302,30.078 L160.588,35.547 C160.498,35.831 160.472,36.014 160.51,36.099 C160.545,36.184 160.676,36.279 160.897,36.385 L164.947,37.655 C165.613,37.845 166.098,37.924 166.399,37.89 C166.816,37.837 167.134,37.607 167.355,37.197 L167.691,37.303 C167.078,39.085 166.668,40.302 166.464,40.951 L160.972,39.229 C158.527,38.461 156.705,37.89 155.506,37.514 L155.612,37.178 C156.113,37.281 156.549,36.925 156.916,36.107 C157.224,35.417 157.945,33.266 159.078,29.655" id="Fill-18" fill="#FFFFFE"></path>
            <path d="M181.928,38.248 L183.878,35.187 C185.778,32.206 186.877,30.399 187.179,29.766 C187.55,28.99 187.523,28.436 187.099,28.104 L187.29,27.807 C188.038,28.284 188.817,28.781 189.625,29.296 C190.377,29.772 191.133,30.255 191.897,30.742 L191.708,31.04 C191.218,30.789 190.693,30.991 190.13,31.643 C189.673,32.198 188.499,33.956 186.611,36.92 L184.703,39.914 C183.666,41.543 183.2,42.989 183.305,44.254 C183.428,45.651 184.203,46.804 185.63,47.713 C186.953,48.558 188.276,48.77 189.598,48.354 C190.807,47.949 191.963,46.88 193.067,45.148 L194.931,42.221 C196.829,39.243 197.928,37.436 198.227,36.803 C198.592,36.004 198.541,35.436 198.077,35.098 L198.268,34.801 C199.135,35.352 199.892,35.835 200.538,36.247 C201.361,36.772 202.087,37.233 202.72,37.638 L202.529,37.934 C202.096,37.699 201.599,37.919 201.043,38.597 C200.584,39.152 199.411,40.912 197.521,43.878 L195.669,46.786 C194.183,49.121 192.513,50.607 190.661,51.243 C188.434,52.014 186.205,51.687 183.972,50.264 C181.429,48.645 180.113,46.547 180.018,43.969 C179.955,42.255 180.591,40.349 181.928,38.248" id="Fill-19" fill="#FFFFFE"></path>
            <path d="M214.201,59.245 L205.433,68.253 L205.075,67.906 L205.448,54.085 C205.472,53.037 205.55,51.265 205.686,48.774 L205.648,48.737 C205.035,49.405 203.766,50.726 201.842,52.702 C199.261,55.352 197.746,56.97 197.296,57.556 C196.763,58.277 196.669,58.843 197.016,59.255 L196.771,59.507 C196.033,58.791 195.39,58.165 194.841,57.629 C194.266,57.07 193.679,56.498 193.081,55.916 L193.327,55.663 C193.752,56.029 194.324,55.929 195.045,55.364 C195.642,54.874 197.254,53.282 199.882,50.583 L208.274,41.963 L208.63,42.309 L208.174,56.339 C208.115,58.396 208.024,60.122 207.909,61.517 L207.946,61.553 C208.72,60.748 210.145,59.279 212.225,57.143 C214.645,54.658 216.065,53.122 216.489,52.536 C217.007,51.85 217.072,51.291 216.677,50.859 L216.924,50.607 C217.599,51.264 218.216,51.865 218.778,52.412 C219.39,53.009 219.977,53.579 220.54,54.126 L220.293,54.378 C219.926,54.071 219.41,54.199 218.742,54.764 C218.181,55.218 216.669,56.711 214.201,59.245" id="Fill-20" fill="#FFFFFE"></path>
            <path d="M220.381,67.351 L217.354,69.638 C214.349,71.908 212.577,73.309 212.041,73.845 C211.419,74.466 211.242,75.03 211.514,75.534 L211.232,75.746 C210.645,74.967 210.089,74.231 209.563,73.535 C208.933,72.701 208.375,71.964 207.893,71.325 L208.176,71.112 C208.567,71.517 209.149,71.504 209.919,71.076 C210.57,70.693 212.395,69.369 215.39,67.105 L218.443,64.801 C221.259,62.675 222.917,61.366 223.422,60.875 C224.041,60.275 224.203,59.737 223.909,59.259 L224.215,59.028 C224.677,59.639 225.218,60.355 225.837,61.177 C226.405,61.927 226.951,62.65 227.477,63.345 L227.169,63.576 C226.817,63.198 226.271,63.224 225.526,63.658 C224.893,64.007 223.177,65.238 220.381,67.351" id="Fill-21" fill="#FFFFFE"></path>
            <path d="M230.66,84.085 L216.983,85.525 L216.744,85.09 L225.21,74.226 C227.489,71.293 228.88,69.422 229.388,68.614 C229.897,67.806 230.072,67.206 229.915,66.814 L230.225,66.644 C230.502,67.148 230.936,67.932 231.526,69 C232.067,69.976 232.546,70.845 232.968,71.608 L232.66,71.779 C232.391,71.369 232.092,71.257 231.756,71.441 C231.328,71.678 229.97,73.236 227.679,76.115 C225.631,78.681 223.927,80.729 222.562,82.26 L222.589,82.307 C224.694,81.938 227.32,81.571 230.464,81.205 C234.143,80.763 236.196,80.426 236.624,80.188 C236.944,80.012 237.014,79.724 236.835,79.326 L237.143,79.156 C237.59,79.964 238.062,80.818 238.558,81.717 C239.072,82.648 239.456,83.341 239.709,83.799 L239.402,83.969 C239.153,83.629 238.546,83.467 237.582,83.484 C236.692,83.496 234.386,83.696 230.66,84.085" id="Fill-22" fill="#FFFFFE"></path>
            <path d="M230.198,92.513 L233.776,91.251 C237.101,90.08 239.087,89.343 239.738,89.038 C240.51,88.654 240.837,88.221 240.721,87.738 L241.055,87.62 C241.895,90.003 242.473,91.646 242.794,92.55 C243.442,94.391 244.104,96.265 244.774,98.17 C243.415,98.602 242.184,99.003 241.08,99.375 L240.963,99.043 C241.466,98.773 241.696,98.316 241.65,97.67 C241.631,97.307 241.488,96.751 241.223,95.998 L239.978,92.462 L234.238,94.486 L235.333,97.596 C235.66,98.517 235.908,99.118 236.08,99.399 C236.252,99.68 236.49,99.814 236.794,99.799 L236.901,100.102 C236.145,100.368 235.553,100.577 235.128,100.727 C234.635,100.901 233.968,101.136 233.131,101.431 L233.022,101.129 C233.308,100.937 233.437,100.675 233.414,100.343 C233.386,100.011 233.216,99.394 232.898,98.493 L231.791,95.348 L226.385,97.255 C226.108,97.352 225.943,97.442 225.898,97.522 C225.852,97.603 225.852,97.763 225.9,98.005 L227.312,102.006 C227.558,102.654 227.784,103.09 227.995,103.312 C228.286,103.613 228.664,103.729 229.121,103.659 L229.24,103.991 C227.444,104.568 226.225,104.971 225.584,105.197 L223.67,99.768 C222.817,97.352 222.182,95.549 221.764,94.365 L222.097,94.248 C222.317,94.712 222.863,94.846 223.737,94.651 C224.475,94.484 226.63,93.772 230.198,92.513" id="Fill-23" fill="#FFFFFE"></path>
            <path d="M235.084,107.781 L238.816,107.109 C242.284,106.486 244.362,106.067 245.049,105.857 C245.873,105.603 246.255,105.221 246.199,104.707 L246.575,104.639 L246.998,106.98 C247.021,107.098 247.107,107.533 247.265,108.285 C247.395,108.88 247.485,109.324 247.536,109.615 C247.798,111.056 247.837,112.313 247.658,113.39 C247.487,114.411 247.06,115.294 246.379,116.035 C245.555,116.964 244.437,117.554 243.031,117.807 C241.039,118.166 239.34,117.693 237.936,116.389 C237.405,115.902 236.995,115.392 236.704,114.86 L236.652,114.87 C236.114,115.427 234.238,117.411 231.023,120.822 C230.011,121.889 229.511,122.705 229.524,123.268 L229.177,123.332 C229.138,123.125 229.082,122.799 229,122.352 C228.917,121.887 228.856,121.538 228.813,121.307 C228.771,121.074 228.723,120.804 228.667,120.494 C228.611,120.185 228.567,119.945 228.538,119.772 C228.456,119.325 228.505,118.962 228.684,118.681 L235.519,111.913 C235.497,111.792 235.471,111.601 235.444,111.34 C235.397,111.082 235.366,110.91 235.352,110.824 L234.242,111.025 C231.233,111.565 229.41,111.939 228.773,112.145 C228.036,112.386 227.686,112.768 227.728,113.288 L227.381,113.35 C227.235,112.544 227.085,111.712 226.931,110.855 C226.783,110.033 226.63,109.175 226.468,108.283 L226.815,108.22 C226.954,108.703 227.471,108.915 228.366,108.858 C229.119,108.811 231.357,108.45 235.084,107.781 Z M242.293,114.685 L242.317,114.68 C243.351,114.494 244.107,114.019 244.592,113.254 C245.073,112.489 245.214,111.537 245.01,110.397 C244.934,109.983 244.832,109.564 244.704,109.141 L237.74,110.395 C237.75,110.642 237.788,110.957 237.856,111.336 C238.012,112.2 238.349,112.933 238.864,113.537 C239.738,114.555 240.883,114.938 242.293,114.685 L242.293,114.685 Z" id="Fill-24" fill="#FFFFFE"></path>
            <path d="M234.597,134.923 L234.57,134.924 C232.983,134.958 231.653,134.423 230.584,133.314 C229.458,132.12 228.875,130.524 228.832,128.524 C228.796,126.975 229.016,125.665 229.482,124.593 C230.692,124.638 232.046,124.661 233.538,124.666 L233.544,125.018 C232.196,125.359 231.541,126.47 231.582,128.346 C231.604,129.303 231.868,130.087 232.378,130.702 C232.89,131.318 233.572,131.615 234.426,131.597 C235.453,131.574 236.385,131.03 237.215,129.968 C237.587,129.436 238.187,128.622 239.019,127.523 C240.459,125.592 242.136,124.606 244.055,124.564 C245.607,124.53 246.932,125.072 248.027,126.189 C249.124,127.306 249.694,128.832 249.737,130.765 C249.764,131.932 249.636,132.953 249.361,133.831 C248.367,133.802 247.056,133.788 245.424,133.791 L245.415,133.438 C245.981,133.322 246.398,133.027 246.663,132.552 C246.913,132.146 247.032,131.605 247.016,130.928 C246.995,130.007 246.735,129.26 246.235,128.69 C245.735,128.118 245.083,127.842 244.281,127.858 C243.408,127.878 242.624,128.285 241.927,129.082 C240.907,130.355 239.898,131.629 238.896,132.901 C237.667,134.214 236.237,134.887 234.597,134.923" id="Fill-25" fill="#FFFFFE"></path>
            <path d="M240.959,143.373 L237.182,143.037 C233.429,142.705 231.176,142.555 230.42,142.592 C229.539,142.635 229.031,142.934 228.895,143.49 L228.545,143.459 C228.631,142.487 228.713,141.568 228.789,140.7 C228.881,139.657 228.963,138.738 229.034,137.94 L229.386,137.972 C229.405,138.535 229.844,138.916 230.703,139.115 C231.442,139.268 233.682,139.511 237.424,139.843 L241.233,140.181 C244.747,140.493 246.856,140.637 247.558,140.61 C248.422,140.582 248.902,140.292 249.004,139.739 L249.386,139.773 C249.32,140.536 249.24,141.431 249.148,142.455 C249.066,143.392 248.987,144.295 248.908,145.162 L248.525,145.13 C248.519,144.611 248.095,144.264 247.252,144.086 C246.549,143.921 244.451,143.683 240.959,143.373" id="Fill-26" fill="#FFFFFE"></path>
            <path d="M235.563,153.441 L244.594,155.446 L245.405,151.79 C245.556,151.107 245.573,150.596 245.454,150.257 C245.337,149.917 245.041,149.633 244.566,149.402 L244.648,149.026 L248.517,149.886 L245.119,165.208 L241.248,164.349 L241.325,164.006 C241.888,164.006 242.308,163.85 242.585,163.54 C242.784,163.281 242.952,162.836 243.092,162.21 L243.9,158.574 L234.868,156.568 C231.177,155.749 228.946,155.307 228.176,155.24 C227.266,155.162 226.742,155.397 226.601,155.945 L226.259,155.869 C226.473,154.899 226.672,153.998 226.858,153.165 C227.073,152.194 227.276,151.285 227.463,150.434 L227.808,150.51 C227.75,151.089 228.135,151.533 228.956,151.842 C229.687,152.092 231.888,152.626 235.563,153.441" id="Fill-27" fill="#FFFFFE"></path>
            <path d="M231.706,176.837 L229.019,173.529 L228.073,173.142 C225.172,171.948 223.4,171.276 222.764,171.128 C221.975,170.935 221.448,171.095 221.179,171.606 L220.856,171.472 C221.206,170.618 221.555,169.771 221.898,168.934 C222.349,167.838 222.706,166.966 222.971,166.322 L223.296,166.456 C223.128,167.002 223.385,167.48 224.067,167.892 C224.631,168.216 226.361,168.973 229.254,170.162 L230.004,170.47 L234.456,170.044 C238.629,169.633 241.145,169.351 242.002,169.196 C243.015,169.028 243.624,168.761 243.832,168.396 L244.158,168.529 C243.951,169.029 243.634,169.802 243.203,170.851 C242.886,171.624 242.495,172.574 242.031,173.703 L241.706,173.569 C241.845,173.136 241.77,172.861 241.482,172.742 C241.124,172.596 239.655,172.642 237.07,172.88 C235.874,172.99 234.317,173.114 232.393,173.247 L232.376,173.295 C232.58,173.53 233.578,174.721 235.373,176.871 C237.063,178.905 238.094,179.997 238.465,180.15 C238.738,180.261 238.968,180.14 239.153,179.782 L239.48,179.916 C239.009,181.06 238.64,181.954 238.376,182.6 C238.051,183.39 237.759,184.098 237.502,184.727 L237.174,184.593 C237.267,184.234 237.019,183.643 236.434,182.818 C235.927,182.121 234.352,180.128 231.706,176.837" id="Fill-28" fill="#FFFFFE"></path>
            <path d="M63.306,201.779 C61.951,200.314 60.63,198.887 59.343,197.497 C57.609,195.622 56.443,194.362 55.846,193.717 L55.529,194.01 C55.801,194.403 55.667,194.907 55.128,195.521 C54.688,196.044 53.219,197.461 50.721,199.772 L48.055,202.239 C45.37,204.724 43.731,206.182 43.14,206.615 C42.449,207.116 41.913,207.209 41.53,206.895 L41.251,207.153 C41.894,207.848 42.509,208.513 43.094,209.146 C43.703,209.803 44.3,210.449 44.886,211.082 L45.166,210.824 C44.85,210.384 44.925,209.879 45.388,209.309 C45.74,208.842 46.946,207.655 49.006,205.749 L50.235,204.611 L52.381,206.931 C52.993,207.592 53.371,208.063 53.517,208.345 C53.663,208.627 53.652,208.914 53.486,209.207 L53.727,209.468 C54.397,208.848 54.912,208.371 55.272,208.038 C55.62,207.717 56.085,207.286 56.669,206.746 L56.428,206.485 C56.147,206.605 55.861,206.57 55.568,206.378 C55.346,206.213 54.912,205.781 54.266,205.083 L52.172,202.82 L56.733,198.598 L59.19,201.253 C59.709,201.814 60.047,202.241 60.204,202.535 C60.494,203.123 60.457,203.631 60.094,204.06 L60.37,204.358 C61.721,203.154 62.699,202.294 63.306,201.779 Z M76.312,215.773 C75.922,213.105 74.576,210.894 72.276,209.142 C69.868,207.307 67.27,206.551 64.485,206.873 C61.698,207.195 59.403,208.54 57.599,210.907 C55.877,213.167 55.217,215.673 55.619,218.424 C56.021,221.176 57.365,223.422 59.652,225.165 C62.033,226.979 64.616,227.698 67.401,227.322 C70.186,226.946 72.471,225.587 74.254,223.247 L74.269,223.226 C76.022,220.926 76.703,218.442 76.312,215.773 Z M66.628,224.277 C64.753,224.603 63.029,224.166 61.455,222.967 C59.894,221.777 59.019,220.233 58.829,218.335 C58.639,216.435 59.174,214.659 60.435,213.004 C61.695,211.349 63.266,210.362 65.148,210.041 C67.029,209.721 68.757,210.16 70.331,211.359 C71.878,212.538 72.746,214.077 72.937,215.976 C73.127,217.875 72.607,219.632 71.377,221.246 L71.362,221.266 C70.08,222.948 68.503,223.951 66.628,224.277 Z M75.131,232.041 C75.486,234.561 77.018,236.478 79.726,237.793 C80.897,238.362 82.107,238.639 83.354,238.626 C84.458,238.636 85.458,238.417 86.352,237.969 C88.073,237.134 89.521,235.509 90.694,233.093 L92.111,230.176 C93.601,227.106 94.539,225.271 94.925,224.67 C95.385,223.955 95.836,223.685 96.277,223.862 L96.432,223.542 C95.778,223.224 95.002,222.848 94.104,222.412 C93.404,222.072 92.59,221.677 91.663,221.226 L91.507,221.546 C91.995,221.82 92.107,222.362 91.845,223.174 C91.618,223.833 90.757,225.705 89.259,228.789 L87.821,231.751 C86.965,233.513 86,234.649 84.925,235.159 C83.714,235.717 82.432,235.666 81.078,235.009 C79.617,234.3 78.754,233.289 78.489,231.978 C78.27,230.802 78.567,229.378 79.378,227.707 L80.839,224.699 C82.329,221.631 83.266,219.797 83.653,219.195 C84.12,218.503 84.601,218.248 85.095,218.432 L85.25,218.112 C84.429,217.713 83.622,217.322 82.831,216.938 C81.949,216.509 81.12,216.106 80.344,215.73 L80.189,216.049 C80.623,216.316 80.705,216.844 80.435,217.633 C80.208,218.293 79.346,220.165 77.848,223.25 L76.343,226.349 C75.303,228.491 74.899,230.389 75.131,232.041 Z M113.587,230.148 C113.899,229.355 114.29,228.994 114.761,229.064 L114.851,228.72 C114.098,228.524 113.304,228.317 112.469,228.1 C111.7,227.899 110.857,227.68 109.941,227.441 L109.851,227.785 C110.379,227.974 110.595,228.485 110.501,229.317 C110.424,230.014 109.963,231.982 109.119,235.222 C108.441,237.824 107.963,239.658 107.686,240.721 C107.1,239.467 106.333,237.966 105.386,236.216 L99.008,224.434 L98.54,224.312 L95.603,235.58 C94.682,239.115 94.079,241.23 93.793,241.924 C93.473,242.75 93.044,243.118 92.508,243.031 L92.418,243.375 C93.204,243.58 93.998,243.786 94.8,243.995 C95.536,244.187 96.403,244.413 97.402,244.674 L97.491,244.33 C96.98,244.144 96.785,243.621 96.904,242.761 C96.989,242.032 97.482,239.941 98.382,236.487 C99.009,234.082 99.424,232.451 99.63,231.596 L99.679,231.609 C100.773,233.781 101.57,235.318 102.07,236.217 L108.366,247.767 L108.833,247.889 L111.904,236.105 C112.769,232.783 113.33,230.797 113.587,230.148 Z M132.05,234.983 C131.42,233.483 130.457,232.292 129.16,231.409 C127.523,230.283 125.346,229.63 122.629,229.449 C122.731,229.456 121.632,229.408 119.334,229.306 C118.083,229.257 117.161,229.221 116.57,229.198 L116.543,229.603 C117.08,229.673 117.373,230.116 117.42,230.933 C117.46,231.613 117.367,233.649 117.141,237.041 L116.9,240.661 C116.657,244.306 116.47,246.489 116.337,247.208 C116.162,248.061 115.794,248.494 115.234,248.508 L115.21,248.862 L117.767,249.032 C117.986,249.047 118.491,249.098 119.282,249.184 C119.938,249.262 120.443,249.312 120.797,249.336 C123.97,249.547 126.505,249.013 128.404,247.732 C131.084,245.927 132.542,243.253 132.777,239.709 L132.779,239.684 C132.892,237.98 132.649,236.413 132.05,234.983 Z M126.446,245.339 C125.143,246.269 123.519,246.669 121.573,246.54 C121.083,246.507 120.678,246.464 120.358,246.408 C119.954,246.348 119.761,246.182 119.779,245.912 L120.689,232.243 C121.403,232.24 122.031,232.256 122.573,232.292 C124.484,232.42 125.996,232.953 127.106,233.891 C128.749,235.255 129.489,237.168 129.325,239.632 L129.323,239.657 C129.157,242.155 128.198,244.049 126.446,245.339 Z M136.48,248.096 C136.454,248.981 136.199,249.469 135.715,249.562 L135.745,249.915 C136.941,249.813 138.812,249.653 141.356,249.435 L146.942,248.957 C146.886,248.299 146.81,247.016 146.714,245.106 L146.36,245.136 C146.313,245.582 146.131,245.89 145.813,246.062 C145.495,246.233 144.999,246.356 144.324,246.431 L140.265,246.779 C140.025,246.765 139.873,246.723 139.807,246.652 C139.741,246.582 139.697,246.412 139.674,246.142 L139.217,240.809 L142.391,240.537 C143.322,240.457 143.947,240.446 144.268,240.503 C144.588,240.561 144.804,240.738 144.914,241.034 L145.243,241.006 C145.169,240.146 145.109,239.447 145.063,238.908 C145.024,238.453 144.971,237.829 144.903,237.037 L144.574,237.065 C144.513,237.342 144.308,237.538 143.96,237.653 C143.695,237.743 143.08,237.83 142.115,237.913 L138.992,238.18 L138.501,232.442 L142.133,232.131 C142.917,232.064 143.476,232.067 143.809,232.141 C144.471,232.254 144.86,232.585 144.976,233.135 L145.33,233.105 C145.24,231.959 145.146,230.66 145.047,229.208 C143.059,229.379 141.121,229.545 139.234,229.706 C138.509,229.768 136.799,229.915 134.103,230.146 L134.133,230.499 C134.609,230.51 134.925,230.932 135.082,231.768 C135.225,232.451 135.443,234.495 135.734,237.899 L136.044,241.513 C136.357,245.17 136.502,247.364 136.48,248.096 Z M164.205,229.931 C163.142,228.701 161.857,227.867 160.35,227.429 C158.445,226.866 156.172,226.92 153.534,227.59 C153.632,227.565 152.572,227.86 150.356,228.475 C149.151,228.816 148.264,229.068 147.695,229.23 L147.794,229.623 C148.327,229.523 148.743,229.853 149.041,230.615 C149.289,231.25 149.832,233.215 150.669,236.51 L151.562,240.026 C152.461,243.566 152.959,245.7 153.056,246.425 C153.154,247.29 152.938,247.816 152.41,248.003 L152.497,248.347 L154.981,247.716 C155.194,247.662 155.689,247.554 156.468,247.391 C157.116,247.261 157.612,247.153 157.956,247.065 C161.038,246.283 163.283,244.989 164.691,243.182 C166.679,240.636 167.236,237.641 166.362,234.199 L166.356,234.175 C165.935,232.519 165.218,231.105 164.205,229.931 Z M162.088,241.514 C161.137,242.802 159.717,243.686 157.827,244.166 C157.351,244.288 156.952,244.372 156.631,244.418 C156.228,244.485 155.994,244.388 155.927,244.126 L152.555,230.848 C153.233,230.624 153.835,230.445 154.361,230.311 C156.218,229.839 157.82,229.877 159.167,230.425 C161.152,231.213 162.448,232.803 163.056,235.196 L163.062,235.221 C163.678,237.647 163.353,239.744 162.088,241.514 Z M176.815,223.004 C176.907,223.09 177.085,223.389 177.348,223.9 L180.71,230.415 C181.889,232.699 182.635,234.199 182.946,234.913 C183.382,235.906 183.577,236.605 183.529,237.01 C183.481,237.416 183.206,237.777 182.703,238.093 L182.878,238.431 C183.974,237.865 184.989,237.342 185.921,236.861 C186.762,236.426 187.679,235.953 188.671,235.441 L188.497,235.103 C188.008,235.318 187.593,235.322 187.255,235.115 C186.916,234.909 186.475,234.336 185.933,233.397 C185.545,232.72 184.761,231.238 183.581,228.951 L181.449,224.82 C180.074,222.156 178.995,220.065 178.21,218.545 L177.05,219.143 C175.346,221.717 174.018,223.544 173.069,224.624 L174.067,225.507 C175.097,224.443 175.9,223.619 176.475,223.037 C176.61,222.93 176.723,222.919 176.815,223.004 Z M197.979,224.234 C198.01,222.078 197.904,220.303 197.661,218.909 C197.378,217.338 196.858,216.002 196.1,214.902 C194.948,213.231 193.506,212.237 191.772,211.922 C190.038,211.607 188.316,212.039 186.606,213.217 C184.882,214.404 183.851,215.957 183.511,217.874 C183.197,219.651 183.568,221.305 184.624,222.837 C185.64,224.314 186.961,225.196 188.587,225.483 C190.212,225.77 191.755,225.41 193.218,224.403 C194.165,223.751 194.799,222.986 195.118,222.108 L195.189,222.121 C195.23,223.284 195.223,224.408 195.17,225.492 C195.07,227.614 194.853,229.818 194.517,232.102 L197.622,229.963 C197.835,227.743 197.954,225.834 197.979,224.234 Z M190.946,214.955 C191.941,215.163 192.756,215.727 193.389,216.646 C194.032,217.579 194.283,218.525 194.143,219.484 C194.003,220.505 193.453,221.345 192.492,222.007 C191.586,222.631 190.633,222.841 189.631,222.638 C188.628,222.435 187.811,221.874 187.177,220.955 C186.573,220.078 186.345,219.121 186.494,218.084 C186.642,217.047 187.162,216.222 188.053,215.608 L188.074,215.594 C188.993,214.96 189.951,214.748 190.946,214.955 Z M198.237,208.87 C198.347,208.931 198.594,209.175 198.977,209.604 L203.859,215.073 C205.571,216.991 206.667,218.257 207.147,218.871 C207.818,219.724 208.181,220.352 208.235,220.756 C208.29,221.161 208.114,221.579 207.706,222.011 L207.959,222.295 C208.88,221.473 209.732,220.713 210.514,220.014 C211.221,219.384 211.99,218.697 212.823,217.953 L212.57,217.669 C212.15,217.999 211.75,218.107 211.37,217.991 C210.991,217.876 210.421,217.431 209.661,216.657 C209.116,216.099 207.987,214.86 206.273,212.939 L203.177,209.471 C201.181,207.235 199.614,205.479 198.475,204.204 L197.501,205.073 C196.493,207.991 195.664,210.091 195.014,211.374 L196.201,211.98 C196.933,210.692 197.504,209.694 197.916,208.987 C198.019,208.849 198.127,208.811 198.237,208.87 Z M212.57,205.698 C213.273,205.147 213.957,204.819 214.622,204.714 C215.502,204.597 216.262,204.828 216.902,205.406 C217.605,206.041 217.948,206.784 217.931,207.635 C217.932,208.593 217.541,209.505 216.759,210.371 C215.806,211.425 214.831,212.025 213.833,212.171 C213.357,212.244 212.832,212.157 212.257,211.91 L212.036,212.155 C213.775,213.863 214.688,214.757 214.776,214.836 C216.387,214.263 217.828,213.274 219.098,211.869 C220.367,210.463 221.077,208.996 221.226,207.467 C221.402,205.757 220.811,204.288 219.454,203.062 C218.273,201.996 216.883,201.64 215.284,201.995 C214.395,202.196 213.628,202.54 212.982,203.027 L212.945,202.993 C213.314,202.256 213.506,201.438 213.519,200.538 C213.547,199.195 213.038,198.052 211.995,197.11 C210.727,195.964 209.222,195.596 207.481,196.006 C206.274,196.282 205.097,197.054 203.952,198.322 C202.875,199.514 202.133,200.804 201.727,202.192 C202.544,202.885 203.502,203.727 204.6,204.719 L204.838,204.455 C204.14,203.21 204.431,201.878 205.713,200.46 C206.336,199.77 207.023,199.352 207.771,199.208 C208.615,199.059 209.371,199.286 210.039,199.889 C210.732,200.516 211.047,201.256 210.984,202.111 C210.942,202.665 210.717,203.294 210.31,203.997 C210.004,204.564 209.523,205.224 208.866,205.975 L210.636,207.574 C211.429,206.696 212.074,206.07 212.57,205.698 L212.57,205.698 Z" id="Fill-29" fill="#FFFFFE"></path>
            <path d="M41.854,131.987 C41.854,181.766 82.209,222.12 131.989,222.12 C181.768,222.12 222.121,181.766 222.121,131.987 C222.121,82.207 181.768,41.853 131.989,41.853 C82.209,41.853 41.854,82.207 41.854,131.987" id="Fill-30" fill="#009B77"></path>
            <path d="M85.766,174.997 C86.308,170.925 86.578,158.85 86.578,138.77 L86.578,122.489 C86.578,103.767 86.308,92.506 85.766,88.707 C85.137,84.004 83.38,81.516 80.496,81.244 L80.496,78.946 C84.925,78.946 91.26,78.946 99.492,78.946 C107.36,78.946 113.419,78.946 117.671,78.946 L117.671,81.244 C114.849,81.516 113.12,83.732 112.481,87.892 C112.026,91.24 111.797,100.648 111.797,116.116 L111.797,120.865 L152.178,120.865 L152.178,116.116 C152.178,100.648 151.95,91.24 151.494,87.892 C150.855,83.732 149.127,81.516 146.304,81.244 L146.304,78.946 C150.555,78.946 156.615,78.946 164.484,78.946 C172.715,78.946 179.049,78.946 183.48,78.946 L183.48,81.244 C180.596,81.516 178.838,84.004 178.208,88.707 C177.667,92.506 177.397,103.767 177.397,122.489 L177.397,138.77 C177.397,158.85 177.667,170.925 178.208,174.997 C178.838,179.881 180.687,182.459 183.752,182.73 L183.752,185.028 C179.229,185.028 172.987,185.028 165.029,185.028 C157.249,185.028 150.78,185.028 145.624,185.028 L145.624,182.73 C148.81,182.459 150.72,180.288 151.358,176.218 C151.903,172.87 152.178,163.555 152.178,148.269 L152.178,141.892 L111.797,141.892 L111.797,148.269 C111.797,163.555 112.071,172.87 112.617,176.218 C113.255,180.288 115.165,182.459 118.351,182.73 L118.351,185.028 C113.195,185.028 106.726,185.028 98.946,185.028 C90.988,185.028 84.747,185.028 80.224,185.028 L80.224,182.73 C83.289,182.459 85.137,179.881 85.766,174.997" id="Fill-31" fill="#FFFFFE"></path>
            <path d="M41.804,131.988 C41.804,181.713 82.26,222.167 131.988,222.167 C181.715,222.167 222.171,181.713 222.171,131.988 C222.171,82.263 181.715,41.807 131.988,41.807 C82.26,41.807 41.804,82.263 41.804,131.988 Z M44.82,131.988 C44.82,83.925 83.924,44.823 131.988,44.823 C180.051,44.823 219.155,83.925 219.155,131.988 C219.155,180.05 180.051,219.151 131.988,219.151 C83.924,219.151 44.82,180.05 44.82,131.988 L44.82,131.988 Z" id="Fill-32" fill="#FFFFFE"></path>
        </g>
    </g>
</svg>