<?xml version="1.0" encoding="UTF-8"?>
<svg width="150px" height="124px" viewBox="0 0 150 124" version="1.1" xmlns="http://www.w3.org/2000/svg" xmlns:xlink="http://www.w3.org/1999/xlink">
    <!-- Generator: Sketch 62 (91390) - https://sketch.com -->
    <title>neocitieslogo</title>
    <desc>Created with Sketch.</desc>
    <g id="Page-1" stroke="none" stroke-width="1" fill="none" fill-rule="evenodd">
        <g id="neocitieslogo" fill-rule="nonzero">
            <path d="M119.885,1.204 C120.664,0.599 121.717,0.296 122.668,0.673 C123.553,1.073 123.811,2.075 124.24,2.86 C125.718,5.664 126.74,8.683 128.253,11.474 C130.326,16.551 131.202,21.995 132.66,27.258 C132.775,27.96 133.478,28.244 133.996,28.614 C135.711,29.695 137.24,31.049 138.57,32.576 C142.644,36.464 145.612,41.616 146.413,47.219 C147.267,50.758 146.168,54.391 146.685,57.944 C147.606,60.383 147.864,62.988 148.592,65.479 C149.214,69.381 150.255,73.272 149.988,77.258 C149.81,79.781 149.699,82.342 149.084,84.809 C147.496,89.138 145.651,93.494 142.505,96.946 C139.168,100.973 134.72,103.833 130.514,106.86 C129.452,107.672 128.19,108.171 127.065,108.885 C124.827,110.303 122.655,111.903 120.141,112.824 C116.927,114.075 113.805,115.571 110.52,116.644 C107.415,117.571 104.33,118.582 101.293,119.712 C96.086,121.159 90.818,122.672 85.372,122.778 C82.63,123.122 79.911,123.696 77.141,123.801 C70.551,123.917 63.86,124.151 57.399,122.629 C54.884,121.843 52.396,120.979 49.858,120.275 C45.281,118.337 40.916,115.759 37.372,112.246 C35.028391,110.265917 32.8132427,108.138613 30.74,105.877 C29.681,104.797 29.217,103.332 28.511,102.03 C27.65,102.213 26.736,102.642 25.888,102.163 C24.845,101.69 23.586,101.371 22.949,100.336 C20.806,97.162 19.183,93.691 17.711,90.171 C16.58,87.912 15.501,85.609 14.875,83.15 C13.969,79.376 12.977,75.542 13.227,71.629 C13.375,70.579 13.703,69.561 13.77,68.498 C12.61,65.711 9.987,63.328 8.79,60.555 C6.232,54.978 3.811,49.325 1.978,43.469 C1.169,40.708 0.426,37.957 0.362,35.053 C0.673,33.961 1.007,32.518 2.112,31.874 C3.28,31.491 4.542,31.804 5.727,31.973 C8.483,32.574 11.311,32.733 14.08,33.255 C16.694,33.726 19.159,34.756 21.737,35.367 C22.714,33.84 23.415,32.142 24.574,30.73 C26.233,28.421 28.051,26.235 29.82,24.008 C31.375,22.016 33.305,20.78 35.095,19.022 C36.038,18.139 37.108,17.043 38.169,16.283 C40.035,14.962 41.639,13.262 43.747,12.303 C45.437,11.549 46.876,10.342 48.58,9.617 C50.996,8.664 52.826,6.756 54.996,5.391 C56.914,3.641 59.341,2.473 61.884,1.955 C63.595,1.857 65.336,1.738 67.031,1.976 C69.261,2.287 70.71,2.961 72.562,3.393 C73.915,3.29 75.238,2.987 76.628,2.997 C79.2,3.015 81.357,3.138 83.667,3.663 C86.47,4.095 89.136,5.088 91.883,5.738 C94.638,6.32 97.296,7.481 99.806,8.794 C101.384,9.617 102.943,10.29 104.428,11.284 C105.514,11.982 106.472,12.861 107.597,13.511 C108.691,12.005 110.159,10.834 111.307,9.373 C112.314,8.102 113.699,7.204 114.728,5.954 C116.239,4.165 118.02,2.621 119.885,1.204 L119.885,1.204 Z" id="Path" fill="#000000"></path>
            <path d="M119.146,8.749 C119.768,7.948 120.531,7.274 121.309,6.63 C121.965,7.909 122.627,9.203 123.03,10.591 C123.635,12.892 124.458,15.129 125.089,17.423 C126.132,20.328 126.704,23.366 127.359,26.376 C125.927,26.059 124.439,26.015 123.028,25.612 C121.497,24.293 120.148,22.779 118.849,21.237 C116.974,19.454 115.027,17.724 112.777,16.417 C114.77,13.756 117.094,11.363 119.146,8.749 L119.146,8.749 Z" id="Path" fill="#F59C32"></path>
            <path d="M60.096,8.922 C61.69,8.061 63.526,7.811 65.297,7.582 C66.609,7.402 67.88,7.903 69.176,8.056 C72.518,8.44 75.752,9.66 78.569,11.473 C81.68,13.85 85.12,15.794 87.996,18.472 C90.371,20.733 92.819,22.935 94.912,25.471 C91.923,25.497 89.011,26.184 86.084,26.716 C84.542,27.02 83.026,27.591 81.44,27.581 C79.916,25.829 78.364,24.106 77.037,22.199 C73.99,19.298 70.972,16.263 67.271,14.168 C65.297,13.062 63.067,12.495 60.831,12.251 C60.177,12.156 59.632,12.479 59.198,12.932 C61.651,13.97 64.271,14.731 66.389,16.411 C68.567,18.209 70.782,20.039 72.407,22.373 C74.016,24.627 75.899,26.684 77.328,29.066 C70.23,32.247 64.277,37.38 58.694,42.69 C56.116,45.031 53.762,47.659 51.923,50.623 C50.541,52.567 49.13,54.501 48.034,56.627 C46.914,58.904 45.348,60.95 44.42,63.331 C43.541,65.576 41.895,67.387 40.578,69.384 C39.812,70.628 38.65,71.548 37.682,72.628 C34.941,75.63 32.194,78.706 30.298,82.327 C28.133,85.981 26.575,89.96 25.401,94.036 C24.003,90.274 22.163,86.706 20.597,83.017 C19.635,80.361 19.537,77.502 19.354,74.713 C20.596,75.427 21.754,76.324 23.103,76.83 C24.475,77.109 26.086,77.168 27.182,76.142 C28.883,74.689 29.731,72.538 31.041,70.769 C32.76,68.534 34.047,66.021 35.527,63.635 C37.223,60.896 38.998,58.214 40.714,55.489 C42.709,52.932 45.067,50.621 46.691,47.795 C46.6511678,47.645004 46.6078225,47.495963 46.561,47.348 C45.134,46.189 43.433,45.421 41.856,44.491 C39.253744,42.9669934 36.6291246,41.4814981 33.983,40.035 C31.976,39.112 29.887,38.376 27.79,37.694 C28.6796863,36.2175839 29.5520793,34.7308156 30.407,33.234 C34.511,26.755 40.417,21.529 47.063,17.733 C49.52,16.174 51.999,14.648 54.542,13.238 C56.428,11.851 58.158,10.245 60.096,8.922 L60.096,8.922 Z M81.699,8.42 C84.583,8.269 87.273,9.462 89.928,10.411 C93.429,11.542 96.89,12.865 100.147,14.59 C103.237,16.528 106.451,18.277 109.49,20.291 C111.155,21.698 113.13,22.7 114.69,24.237 C109.758,24.507 104.803,24.374 99.889,24.878 C98.535,23.116 96.883,21.632 95.305,20.081 C92.973,17.397 90.389,14.916 87.525,12.805 C85.753,11.123 83.551,10 81.699,8.42 L81.699,8.42 Z" id="Shape" fill="#FFCF38"></path>
            <path d="M111.486,30.002 C115.381,29.644 119.244,30.453 123.123,30.653 C125.031,30.737 126.726,31.307 128.635,31.956 C131.754,33.017 134.432,34.982 136.468,37.467 C139.315,41.564 141.731,46.218 141.901,51.299 C140.596,50.376 139.303,49.399 137.813,48.79 C136.215,48.12 134.758,47.144 133.102,46.607 C128.897,45.29 124.482,44.838 120.091,44.685 C117.088,44.628 114.063,44.214 111.078,44.697 C108.816,45.055 106.51,44.803 104.264,45.259 C101.396,45.483 98.593,46.127 95.741,46.453 C89.828,47.624 84.118,49.573 78.26,50.959 C72.383,52.438 66.933,55.155 61.262,57.196 C58.816,58.434 56.179,59.307 53.857,60.775 C52.963,61.325 51.972,61.681 50.998,62.059 C52.526,59.482 53.97,56.85 55.743,54.422 C58.393,50.332 62.135,47.15 65.445,43.617 C66.758,42.184 68.294,40.961 69.91,39.875 C73.054,37.929 76.259,36.027 79.713,34.663 C82.75,33.448 86.02,33.052 89.215,32.444 C93.337,31.84 97.416,30.891 101.594,30.719 C104.884,30.359 108.188,30.267 111.486,30.002 Z" id="Path" fill="#FFCF38"></path>
            <path d="M6.167,38.442 C8.18,37.836 9.881,39.338 11.841,39.447 C14.663,39.749 17.32,40.821 20.119,41.229 C24.877,41.926 28.873,44.754 33.158,46.71 C35.385,47.577 37.486,48.757 39.806,49.379 C37.75,51.819 35.827,54.363 33.956,56.947 C32.629,58.779 31.507,60.842 30.394,62.902 C29.534,64.488 28.88,65.922 27.899,67.3 C26.632,68.987 25.612,70.835 24.41,72.562 C22.492,71.078 21.214,69.019 19.74,67.146 C15.572,62.733 13.994,56.732 11.119,51.526 C9.318,48.456 8.848,44.848 7.324,41.654 C6.83,40.623 6.522,39.522 6.167,38.442 L6.167,38.442 Z" id="Path" fill="#F59C32"></path>
            <path d="M91.53,52.383 C97.47,51.072 103.508,50.181 109.551,49.501 C112.716,49.48 115.882,48.911 119.041,49.329 C123.256,49.639 127.543,49.841 131.594,51.148 C133.701,52.011 135.772,53.022 137.545,54.458 C138.998,55.612 140.554,56.793 141.352,58.52 C142.759,61.601 143.091,65.008 143.995,68.24 C144.862,71.246 145.36,74.05 145.350148,77.161 C143.357,75.525 141.325,73.813 138.834,72.979 C137.213,72.35 135.451,72.288 133.74,72.124 C132.615,72.085 131.18,72.185 130.564,73.284 C130.282,74.048 130.978,74.743 131.684,74.899 C133.525,75.414 135.442,75.635 137.263,76.221 C139.411,76.946 141.068,78.541 142.779,79.946 C143.663,80.669 144.323,81.612 145.008,82.509 C144.592,83.799 143.829,85.432 143.181,86.628 C140.878,84.748 138.762,82.611 135.901,81.664 C133.705,80.762 131.028,80.009 128.83,81.307 C127.781,81.888 127.959,83.608 129.135,83.917 C130.489,84.172 131.91,84.125 133.209,84.649 C135.51,85.575 137.734,86.768 139.245,88.87 C139.609,89.453 140.289,90.166 139.858,90.884 C138.81,92.653 137.203,93.987 135.811,95.471 C133.993,97.352 131.691,98.635 129.689,100.296 C127.765,101.904 125.436,102.887 123.294,104.166 C121.697,105.023 120.154,106.005 118.455,106.649 C120.136,104.386 121.802,102.005 122.474,99.228 C123.23,96.136 123.764,92.771 122.624,89.703 C121.658,87.092 120.082,84.545 117.621,83.105 C115.494,81.848 113.325,80.58 110.921,79.931 C108.531,79.288 106.253,78.324 103.87,77.673 C102.974,77.386 101.952,77.214 101.319,76.46 C97.981,72.528 97.438,67.224 95.266,62.702 C93.746,59.363 92.93,55.771 91.53,52.383 L91.53,52.383 Z" id="Path" fill="#F59C32"></path>
            <path d="M85.337,54.204 C87.33,53.371 89.418,52.807 91.53,52.383 C92.929,55.771 93.746,59.363 95.267,62.705 C97.439,67.226 97.982,72.531 101.32,76.463 C101.953,77.217 102.974,77.389 103.871,77.676 C106.254,78.326 108.532,79.291 110.922,79.934 C113.326,80.582 115.495,81.851 117.622,83.108 C120.083,84.547 121.659,87.094 122.625,89.706 C123.765,92.774 123.23,96.14 122.475,99.231 C121.803,102.008 120.137,104.389 118.456,106.652 C117.25,107.762 115.656,108.327 114.237,109.105 C111.773,110.459 109.232,110.654 106.715,111.876 C104.403,112.693 101.764,113.651 99.311,113.954 C97.1,114.255 94.936,114.899 92.708,115.048 C90.473,114.528 88.212,113.843 86.406,112.374 C82.52,109.19 79.193,105.091 77.732,100.229 C77.24,97.721 77.275,95.139 77.236,92.596 C77.667,89.321 79.67,86.325 82.434,84.524 C84.206,83.377 86.045,82.314 88.017,81.545 C89.329,80.898 90.855,80.387 91.766,79.183 C91.443,76.542 91.499,73.838 90.789,71.249 C90.415,69.748 90.272,68.198 89.806,66.72 C88.418,62.514 87.428,58.146 85.337,54.204 L85.337,54.204 Z" id="Path" fill="#FFFFFF"></path>
            <path d="M73.195,57.869 C77.822,56.335 81.195,55.386 85.337,54.204 C87.428,58.145 88.418,62.514 89.807,66.719 C90.274,68.198 90.416,69.747 90.79,71.248 C91.5,73.837 91.443,76.541 91.767,79.182 C90.856,80.386 89.33,80.897 88.018,81.544 C86.046,82.314 84.207,83.376 82.435,84.523 C79.67,86.325 77.667,89.32 77.237,92.595 C77.276,95.138 77.241,97.72 77.733,100.228 C79.194,105.089 82.521,109.189 86.407,112.373 C88.213,113.842 90.473,114.527 92.709,115.047 C90.230226,115.864683 87.6435548,116.308882 85.034,116.365 C78.657,116.837 71.811,118.432 65.645,117.314 C62.413,116.728 59.313,116.207 56.111,115.466 C55.6104973,115.352424 55.1609364,115.078121 54.831,114.685 C54.666,112.736 54.929,110.753 55.456,108.878 C56.728,105.442 59.106,102.571 61.616,99.958 C62.704,98.854 64.6,98.368 64.946,96.684 C64.706,95.79 63.7,95.518 62.891,95.708 C60.608,96.153 58.637,97.952 57.024,99.476 C54.737,101.622 52.838,104.189 51.564,107.058 C50.704,109.019 50.535,111.183 50.247,113.282 C48.03,112.373 46.442,110.931 44.396,109.706 C45.528,105.014 47.611,100.409 51.206,97.078 C52.44,95.561 54.015,94.383 55.386,93.007 C56.224,91.992 54.913,90.735 53.857,90.756 C52.367,90.924 51.179,91.605 50.086,92.535 C47.872,94.676 45.606,96.841 44.087,99.549 C42.586,101.875 41.861,104.559 40.925,107.135 C38.281,105.227 36.009,103.199 34.16,100.523 C32.866,98.758 31.532,96.961 30.785,94.883 C31.3603739,92.5484107 32.0678459,90.2483755 32.904,87.994 C34.673,84.767 36.537,81.52 39.122,78.855 C41.014,76.981 42.656,74.847 44.794,73.234 C46.65,71.533 48.836,70.244 50.672,68.519 C52.235,67.141 54.199,66.368 55.912,65.208 C59.741,62.618 63.834,61.421 67.872,59.72 C69.584,59.117 71.48,58.479 73.195,57.869 Z" id="Path" fill="#F59C32"></path>
            <path d="M103.771,61.76 C105.504,60.819 107.721,61.719 108.712,63.311 C109.347,64.459 109.744,65.749 109.941,67.042 C109.912,68.697 109.589,70.413 108.778,71.879 C108.084,73.202 106.406,73.817 105.045,73.109 C103.257,72.17 101.381,70.588 101.289,68.416 C101.219,67.008 100.972,65.547 101.416,64.172 C101.875,63.121 102.739,62.256 103.771,61.76 Z M76.3,67.124 C78.117,66.603 79.879,67.678 80.972,69.055 C82.038,71.535 82.481,74.458 81.437,77.015 C80.126,79.068 76.723,79.973 74.811,78.243 C73.16,76.403 72.96,73.768 73.166,71.417 C73.229,69.531 74.619,67.858 76.3,67.124 L76.3,67.124 Z" id="Shape" fill="#000000"></path>
            <path d="M99.713,82.986 C100.311,82.536 101.114,82.55 101.83,82.477 C103.004,82.308 103.988,83.378 104.175,84.454 C104.654,86.652 106.156,88.395 107.34,90.242 C108.25,91.678 110.141,93.209 111.803,92.621 C113.744,91.933 115.001,90.209 116.695,89.05 C117.911,88.852 118.135,90.449 118.369,91.309 C118.466,93.039 116.571,93.675 115.515,94.668 C113.869,96.208 111.613,97.267 109.32,96.839 C109.625266,98.8646527 109.392126,100.93497 108.644,102.842 C107.53,104.49 106.091,106.358 103.902,106.438 C102.105,106.42 100.046,106.314 98.754,104.9 C97.18,103.15 95.871,100.984 95.872,98.564 C92.543,98.514 88.988,98.835 85.976,97.133 C85.076,96.151 84.245,94.574 85.083,93.321 C86.4,91.986 88.128,93.577 89.583,93.81 C91.597,94.131 94.039,94.639 95.659,92.96 C97.27,91.051 98.284,88.708 99.046,86.369 C99.449,85.123 98.799,83.904 99.713,82.986 L99.713,82.986 Z" id="Path" fill="#000000"></path>
            <path d="M102.268,90.727 C103.186,92.131 104.135,93.519 104.976,94.973 C105.377,95.594 105.368,96.351 105.411,97.065 C105.464,98.329 105.522,99.686 104.878,100.829 C104.146,101.91 102.339,102.259 101.403,101.241 C100.561,100.327 99.87,99.21 99.588,97.993 C99.298,97.094 99.984,96.345 100.362,95.595 C101.252,94.082 101.804,92.406 102.268,90.727 L102.268,90.727 Z" id="Path" fill="#F31E3E"></path>
        </g>
    </g>
</svg>