<?xml version="1.0" encoding="UTF-8"?>
<svg width="152px" height="156px" viewBox="0 0 152 156" version="1.1" xmlns="http://www.w3.org/2000/svg" xmlns:xlink="http://www.w3.org/1999/xlink">
    <!-- Generator: Sketch 57.1 (83088) - https://sketch.com -->
    <title>Untitled 4</title>
    <desc>Created with Sketch.</desc>
    <g id="Page-2" stroke="none" stroke-width="1" fill="none" fill-rule="evenodd">
        <path d="M120.335941,49.3314774 C120.335941,49.3314774 107.95047,49.3314774 107.531684,49.3314774 C107.531684,48.8971789 107.531684,31.7423905 107.531684,31.7423905 C107.531684,14.2401633 93.3266618,0 75.8676252,0 C58.4085885,0 44.2035659,14.2401633 44.2035659,31.7423905 C44.2035659,31.7423905 44.2035659,48.8971789 44.2035659,49.3314774 C43.7847801,49.3314774 31.6592457,49.3314774 31.6592457,49.3314774 C14.2050226,49.3314774 0,63.5716407 0,81.09317 C0,98.576095 14.2050226,112.816258 31.6592457,112.816258 C31.6592457,112.816258 43.7847801,112.816258 44.2035659,112.816258 C44.2035659,113.240906 44.2035659,124.276912 44.2035659,124.276912 C44.2035659,141.78879 58.4085885,156 75.8676252,156 C93.3266618,156 107.531684,141.78879 107.531684,124.276912 C107.531684,124.276912 107.531684,113.240906 107.531684,112.816258 C107.95047,112.816258 120.335941,112.816258 120.335941,112.816258 C137.78535,112.816258 152,98.576095 152,81.09317 C152,63.5716407 137.78535,49.3314774 120.335941,49.3314774 Z M56,31.6271865 C56,20.8018826 64.6825165,12 75.3716167,12 C86.1938552,12 95,20.6477172 95,31.3092203 C95,42.1200712 86.1938552,50.9364068 75.3716167,50.9364068 L73.0607169,50.9364068 L73.0607169,41.334791 L75.3716167,41.334791 C80.8730797,41.334791 85.518654,36.7387341 85.518654,31.3092203 C85.518654,25.9519715 80.9681785,21.5967981 75.3716167,21.5967981 C69.9129481,21.5967981 65.4765911,26.1013193 65.4765911,31.6271865 L65.4765911,69.180922 L56,77 L56,31.6271865 Z M95,124.283348 C95,135.147823 86.2525153,144 75.4952147,144 C64.7379141,144 56,135.147823 56,124.283348 L56,112.020907 L65.5370552,112.020907 L65.5370552,124.283348 C65.5370552,129.836517 70.0017178,134.364188 75.4952147,134.364188 C80.9887117,134.364188 85.4581595,129.836517 85.4581595,124.283348 L85.4581595,92.7444454 L95,85 L95,124.283348 Z M120.373269,101 L107.359422,101 L107.359422,91.4497608 L120.373269,91.4497608 C125.907285,91.4497608 130.396147,86.9904306 130.396147,81.5167464 C130.396147,76 125.907285,71.5406699 120.373269,71.5406699 L101.338952,71.5406699 C98.7766406,71.5406699 96.4599639,72.2822967 93.3341361,74.1004785 C92.7465382,74.4258373 90.5021072,76.0669856 89.6977724,76.7129187 C70.5623119,91.9808612 67.6243227,94.3253589 67.3883203,94.5119617 C66.6273329,95.1100478 64.6911499,96.569378 63.3666466,97.2870813 C59.768814,99.4641148 55.9349789,100.794258 52.269717,101 L31.6267309,101 C20.8091511,101 12,92.2535885 12,81.5167464 C12,70.7511962 20.8091511,62 31.6267309,62 L44.6116797,62 L44.6116797,71.5406699 L31.6267309,71.5406699 C26.0927152,71.5406699 21.5990367,76 21.5990367,81.5167464 C21.5990367,86.9904306 26.0927152,91.4497608 31.6267309,91.4497608 C31.6267309,91.4497608 51.5472607,91.430622 51.5376279,91.430622 C53.7916918,91.3062201 56.1035521,90.4880383 58.7959061,88.8421053 L61.3822998,87.0191388 C61.3822998,87.0191388 83.6098736,69.2296651 83.6291391,69.2488038 C83.6580373,69.2200957 87.0921132,66.507177 88.9416014,65.5645933 C93.1318483,63.1291866 97.0716436,62 101.338952,62 L120.373269,62 C131.200482,62 140,70.7511962 140,81.5167464 C140,92.2535885 131.200482,101 120.373269,101 L120.373269,101 Z" id="Fill-1" fill="#628229"></path>
    </g>
</svg>