<?xml version="1.0" encoding="UTF-8"?>
<svg width="218px" height="235px" viewBox="0 0 218 235" version="1.1" xmlns="http://www.w3.org/2000/svg" xmlns:xlink="http://www.w3.org/1999/xlink">
    <!-- Generator: Sketch 57.1 (83088) - https://sketch.com -->
    <title>Untitled 3</title>
    <desc>Created with Sketch.</desc>
    <g id="Page-2" stroke="none" stroke-width="1" fill="none" fill-rule="evenodd">
        <path d="M218,116.858256 C218,168.294152 202.878173,196.353323 177.634518,215.022235 C159.492386,228.445589 136.050761,235 108.522843,235 C81.7258883,235 55.7106599,228.531831 36.0812183,211.942879 C15.3096447,194.379898 0,167.939037 0,117.162641 C0,74.7669624 10.4974619,48.2043477 29.2690355,29.266563 C51.7461929,6.58484986 82.8172589,0 109.19797,0 C135.659898,0 160.781726,6.13841936 182.741117,23.8789586 C203.548223,40.6809792 218,70.135246 218,116.858256 L218,116.858256 Z M178.589436,27.300888 C162.744406,14.0065214 145.080845,8 108.730482,8 C67.7856688,8 47.0625175,17.1921049 32.5446608,33.0896351 C15.9448645,51.2661995 9,76.8420286 9,117.110032 C9,150.191481 13.5741886,183.217219 33.5223113,203.161302 C50.9072674,220.542736 71.8482372,227 108.284714,227 C142.041517,227 162.87611,222.882545 180.914522,205.18711 C200.269976,186.195157 208,160.38636 208,117.110032 C208,72.7296379 197.80812,43.4263216 178.589436,27.300888 L178.589436,27.300888 Z" id="Shape" fill="#000000" fill-rule="nonzero"></path>
        <path d="M173.62684,69.830628 L173.62684,71.1890432 C173.62684,71.1890432 176.893157,71.5033035 178.982789,74.1795841 C181.077492,76.8558648 181.640476,80.6117814 179.317536,87.0591848 C176.725784,94.2516891 159.039993,134.497273 155.89033,140.823028 C154.231812,144.148104 153.044982,148.436235 152.684876,150.266041 C152.53779,151.006073 152.096533,151.077035 151.873368,150.266041 C151.579197,149.20668 147.831047,143.742607 145.934148,141.071395 C144.113328,138.506626 132.564563,124.679175 120.792633,110.648977 C120.143427,109.873464 119.265985,108.930683 118.489981,108.19572 C117.947285,107.734467 117.947285,107.653367 118.611707,107.146496 C119.656523,106.163166 120.001413,105.656294 120.787561,104.657758 C132.534132,89.7912213 141.978049,77.34753 142.835204,76.267894 C145.203791,73.2874906 147.273135,71.0572567 148.439677,70.3324307 L148.439677,69.830628 L118.966741,69.830628 C119.017461,61.2695711 119.04282,54.0365172 119.154403,51.4362672 C119.575372,41.907086 120.574541,37.892665 125.514592,32.2917368 C128.015049,29.4481886 130.261911,28.0036052 130.261911,28.0036052 C129.886589,27.3345351 129.739503,27 129.739503,27 C127.482498,28.1911476 122.588093,28.4395146 117.313295,28.4395146 C112.038497,28.4395146 94.8903301,28.1100482 87.1911532,28.1100482 C79.4919764,28.1100482 74.6381475,29.8638231 71.0421552,33.0419063 C67.6186081,36.0628595 64.0124719,43.1590582 63.6777251,44.329931 L64.6413902,44.9584515 C65.8992267,43.6203112 68.7800782,41.1569165 72.0463956,40.0671431 C75.9416313,38.7695525 79.4108256,38.3944677 84.2646545,38.3944677 C89.1184834,38.3944677 101.25052,38.7290028 104.846512,38.7290028 C108.442504,38.7290028 111.374075,38.4806358 113.296333,37.9788332 C115.299742,37.4567557 116.141681,37.1424955 116.978548,36.6406928 C118.429118,35.7739429 118.733433,36.8079604 117.561819,37.7304662 C116.770599,38.353918 115.010643,39.9505627 113.296333,41.9121548 C109.198221,46.5956459 105.76453,52.0293067 105.76453,63.819134 C105.76453,65.5070155 105.769602,67.5345009 105.784817,69.8407655 L69.6220171,69.8407655 L69.6220171,70.3628429 C69.6220171,70.3628429 72.6347385,72.430878 76.5654777,77.2005373 C78.1732768,79.1469232 89.3112164,92.5131204 102.087387,108.048727 C102.680802,108.773553 103.994429,110.035663 104.597988,110.770626 C105.267481,111.105161 105.018957,111.606964 104.638563,111.728613 C103.761121,112.833592 103.279288,113.183334 102.127962,114.612711 C90.0821485,129.605965 78.8782739,144.198791 77.904465,145.673786 C75.8148333,148.85187 75.185915,149.703413 74.6229317,150.89963 C74.0954519,152.009678 73.5984036,152.673679 73.2636568,151.168272 C72.92891,149.662864 72.3862144,147.011927 69.6220171,140.823028 C66.8628918,134.634129 44.3486322,88.3973251 42.5988193,84.7985386 C40.1135778,79.699413 40.8388626,76.267894 42.3452232,74.0984847 C43.4001829,72.572802 45.1043485,71.5894716 46.7831546,71.2143868 L46.7831546,69.8356968 L18,69.8356968 L18,71.2143868 C18,71.2143868 19.6331587,71.5489219 20.5511765,72.3852596 C21.5909204,73.333109 23.1835038,76.0651455 24.1471689,77.7580958 C27.4946371,83.6124597 64.7123971,159.952352 66.3607716,163.566345 C69.0133865,169.395365 69.3481334,170.845017 69.3481334,170.845017 L69.9364763,170.845017 C69.9364763,170.845017 73.8621435,164.88421 79.8317951,157.382514 C81.6627588,155.086387 91.5834373,141.416067 103.472021,126.19979 C104.33932,125.089741 105.267481,124.081067 105.840609,122.844301 C106.165212,122.165094 106.586181,122.251262 106.39852,123.062256 C106.271722,123.604608 106.185499,127.041196 106.185499,127.57848 C106.312297,149.277642 106.6369,172.862365 106.773842,185.483461 C106.941216,200.958243 103.259001,205.641734 95.3924503,205.641734 C93.216596,205.641734 91.0407417,204.891565 89.9553505,204.009609 C88.7735927,203.05669 88.2156814,201.277572 90.8784402,200.623708 C93.5006236,199.979981 95.8134198,197.197258 95.8692109,192.85337 C95.9250021,188.585514 92.7144758,184.160527 86.8614783,184.241626 C80.5875114,184.322726 76.1952274,189.340752 76.1952274,196.614356 C76.1952274,202.296383 80.5875114,212.165168 95.8996425,211.997901 C113.970899,211.800221 118.545772,197.146571 119.184834,190.197365 C119.686954,184.763704 119.605804,179.912945 119.605804,171.387369 C119.605804,165.705342 119.382639,148.557884 119.118899,133.351744 C119.103683,132.322795 119.108755,130.143249 118.981957,129.053475 C118.733433,127.847121 119.154403,127.69506 119.610876,128.764558 C120.199218,130.13818 121.254178,131.765237 121.593997,132.180871 C133.548516,146.981514 142.987362,158.751067 144.605305,160.819102 C150.011973,167.727758 152.066101,170.850086 152.066101,170.850086 L152.816746,170.850086 C152.816746,170.850086 154.698429,165.107233 157.041656,160.256475 C159.471107,155.238448 191.363349,83.7341088 192.63133,81.0476907 C193.970317,78.2041425 195.95851,74.6459057 197.317785,73.439552 C198.322025,72.5474584 199.60015,71.5185096 201,71.2042494 L201,69.8458342 L173.62684,69.8458342 L173.62684,69.830628 Z M132.000347,76.0488193 C132.434152,76.0587305 133.155479,76.0587305 133.412735,76.0289969 C134.098752,75.9447518 134.229903,76.0141301 133.559018,76.6434907 C133.125213,77.0548051 131.954949,78.1549473 131.2084,78.9924428 C131.04194,79.1807554 127.268846,83.5961907 121.952213,90.1524431 C121.054338,91.2575408 120.383453,92.0603472 119.636905,93.3636688 C119.182923,94.3052318 118.83487,94.2358535 119.082038,92.9275764 C119.208145,91.9067238 119.248498,90.1871323 119.27372,88.7995656 C119.278764,84.6765105 119.354428,80.2709864 119.374605,76.0488193 C119.374605,76.0488193 131.14787,76.0240413 132.000347,76.0488193 L132.000347,76.0488193 Z M106.398365,93.4013284 C105.740333,92.1281471 103.264877,89.1179122 102.925416,88.7329969 C97.1597971,82.2486548 94.7417886,79.4802256 94.0785336,78.6659818 C93.5197282,77.9701734 92.8460282,77.1460599 92.4230073,76.7710142 C91.7754197,76.2035109 91.8850918,75.9172918 92.6580189,76.0209229 C93.1280421,76.0801406 94.0158638,76.0850754 94.5328894,76.1048147 L106.628154,76.1048147 C106.659489,80.2451214 106.722159,83.8672729 106.758716,88.8020842 C106.758716,90.5934208 106.774384,91.7728407 106.915391,93.0608264 C107.176515,94.353747 106.784829,94.1563545 106.398365,93.4013284 L106.398365,93.4013284 Z" id="Shape" fill="#000000" fill-rule="nonzero"></path>
    </g>
</svg>